<?xml version="1.0" encoding="UTF-8" standalone="no"?>
<!-- Created with Inkscape (http://www.inkscape.org/) -->

<svg
   width="512"
   height="512"
   viewBox="0 0 512 512"
   version="1.1"
   id="svg1"
   inkscape:version="1.4 (e7c3feb100, 2024-10-09)"
   sodipodi:docname="reel-floppy.svg"
   xml:space="preserve"
   xmlns:inkscape="http://www.inkscape.org/namespaces/inkscape"
   xmlns:sodipodi="http://sodipodi.sourceforge.net/DTD/sodipodi-0.dtd"
   xmlns="http://www.w3.org/2000/svg"
   xmlns:svg="http://www.w3.org/2000/svg"><sodipodi:namedview
     id="namedview1"
     pagecolor="#ffffff"
     bordercolor="#ffffff"
     borderopacity="1"
     inkscape:showpageshadow="0"
     inkscape:pageopacity="0"
     inkscape:pagecheckerboard="1"
     inkscape:deskcolor="#505050"
     inkscape:document-units="px"
     inkscape:zoom="1.637934"
     inkscape:cx="246.65219"
     inkscape:cy="263.13637"
     inkscape:window-width="1920"
     inkscape:window-height="1174"
     inkscape:window-x="0"
     inkscape:window-y="1"
     inkscape:window-maximized="1"
     inkscape:current-layer="svg1" /><defs
     id="defs1"><inkscape:path-effect
       effect="powerstroke"
       message=""
       id="path-effect6"
       is_visible="true"
       lpeversion="1.3"
       scale_width="1"
       interpolator_type="CubicBezierJohan"
       interpolator_beta="0.2"
       start_linecap_type="zerowidth"
       end_linecap_type="zerowidth"
       offset_points="6.9999954,3.3004764e-15"
       linejoin_type="extrp_arc"
       miter_limit="4"
       not_jump="false"
       sort_points="true" /><inkscape:path-effect
       effect="fill_between_many"
       method="bsplinespiro"
       autoreverse="false"
       close="false"
       join="false"
       linkedpaths="#path6,0,1"
       id="path-effect7" /></defs><style
     type="text/css"
     id="style1">
	.st0{fill:#00003C;}
	.st1{fill:#64648C;}
	.st2{fill:#1ED2AF;}
</style><g
     inkscape:groupmode="layer"
     id="layer1"
     inkscape:label="floppy disk"
     style="display:inline"><path
       d="M 73.066406,37.138672 37.138672,73.068359 V 474.86133 H 474.86133 V 37.138672 Z M 54.142578,418.20117 H 75.90625 v 21.76172 H 54.142578 Z"
       style="display:inline;fill:#64648c;stroke-width:19.561"
       id="path25" /><path
       d="M 128.28906,37.138672 V 165.26758 c 0,9.8301 7.91404,17.74219 17.74414,17.74219 h 207.25977 c 9.8301,0 17.74414,-7.91209 17.74414,-17.74219 V 37.138672 Z m 43.48828,6.974609 h 34.31641 v 13.535156 h -34.31641 z m 144.08399,0 h 34.3164 v 13.535156 h -34.3164 z m -163.375,20.25 h 60.6875 V 174.79687 h -60.6875 z"
       style="fill:#7d7d7d;stroke-width:20.4211"
       id="path24" /><path
       d="m 54.142578,418.20117 v 21.76172 H 75.90625 v -21.76172 z"
       style="display:none;fill:#00003c;stroke-width:9.40573"
       id="path16" /><path
       d="m 425.33398,400.97656 v 64.00391 h 35.48829 v -64.00391 z"
       style="display:inline;fill:#00003c;stroke-width:20.5989;fill-opacity:0.45805541"
       id="path15" /><circle
       style="display:inline;fill:#00003c;fill-opacity:1;stroke-width:14.2471"
       id="circle12"
       cx="256"
       cy="256"
       r="65.388947" /><g
       id="g9"
       transform="rotate(28.160308,252.04745,260.87231)"><circle
         style="fill:#7d7d7d;fill-opacity:1;stroke-width:13.715"
         id="path2"
         cx="256"
         cy="256"
         r="62.946842" /><rect
         style="fill:#00003c;fill-opacity:1;stroke-width:14.137"
         id="rect4"
         width="20.013868"
         height="19.368259"
         x="245.99307"
         y="246.31587"
         ry="7.1006413" /><rect
         style="fill:#00003c;fill-opacity:1;stroke-width:24.684"
         id="rect7"
         width="46.925728"
         height="25.184048"
         x="195.36543"
         y="252.59489"
         ry="7.5373883"
         transform="rotate(-10.093852)" /></g><g
       id="g22"
       style="fill:#00003c;fill-opacity:0.45805541"><path
         d="m 66.646484,117.23633 a 9.1887846,9.1887846 0 0 0 -9.1875,9.18945 9.1887846,9.1887846 0 0 0 9.1875,9.1875 9.1887846,9.1887846 0 0 0 9.189453,-9.1875 9.1887846,9.1887846 0 0 0 -9.189453,-9.18945 z"
         style="fill:#00003c;stroke-width:14.137;fill-opacity:0.45805541"
         id="path20" /><path
         d="M 37.138672,115.84766 A 18.198462,18.198462 0 0 0 37.59375,115.96875 18.198462,18.198462 0 0 0 55.791016,97.769531 18.198462,18.198462 0 0 0 37.59375,79.572266 18.198462,18.198462 0 0 0 37.138672,79.693359 Z"
         style="fill:#00003c;stroke-width:19.3323;fill-opacity:0.45805541"
         id="path19" /></g><g
       id="g23"
       transform="matrix(-1,0,0,1,512,0)"
       style="fill:#00003c;fill-opacity:0.45805541"><path
         d="m 66.646484,117.23633 a 9.1887846,9.1887846 0 0 0 -9.1875,9.18945 9.1887846,9.1887846 0 0 0 9.1875,9.1875 9.1887846,9.1887846 0 0 0 9.189453,-9.1875 9.1887846,9.1887846 0 0 0 -9.189453,-9.18945 z"
         style="fill:#00003c;stroke-width:14.137;fill-opacity:0.45805541"
         id="path22" /><path
         d="M 37.138672,115.84766 A 18.198462,18.198462 0 0 0 37.59375,115.96875 18.198462,18.198462 0 0 0 55.791016,97.769531 18.198462,18.198462 0 0 0 37.59375,79.572266 18.198462,18.198462 0 0 0 37.138672,79.693359 Z"
         style="fill:#00003c;stroke-width:19.3323;fill-opacity:0.45805541"
         id="path23" /></g></g><style
     type="text/css"
     id="style1-3">
	.st0{fill:#00003C;}
	.st1{fill:#64648C;}
	.st2{fill:#1ED2AF;}
</style><style
     type="text/css"
     id="style1-0">
	.st0{fill:#00003C;}
	.st1{fill:#64648C;}
	.st2{fill:#1ED2AF;}
</style><style
     type="text/css"
     id="style1-5">
	.st0{fill:#00003C;}
	.st1{fill:#64648C;}
	.st2{fill:#1ED2AF;}
</style><style
     type="text/css"
     id="style1-7">
	.st0{fill:#00003C;}
	.st1{fill:#64648C;}
	.st2{fill:#1ED2AF;}
</style></svg>
