<?xml version="1.0" encoding="UTF-8" standalone="no"?>
<!-- Created with Inkscape (http://www.inkscape.org/) -->

<svg
   width="512"
   height="512"
   viewBox="0 0 512 512"
   version="1.1"
   id="svg1"
   inkscape:version="1.4 (e7c3feb100, 2024-10-09)"
   sodipodi:docname="reel-computer.svg"
   xml:space="preserve"
   xmlns:inkscape="http://www.inkscape.org/namespaces/inkscape"
   xmlns:sodipodi="http://sodipodi.sourceforge.net/DTD/sodipodi-0.dtd"
   xmlns="http://www.w3.org/2000/svg"
   xmlns:svg="http://www.w3.org/2000/svg"><sodipodi:namedview
     id="namedview1"
     pagecolor="#ffffff"
     bordercolor="#ffffff"
     borderopacity="1"
     inkscape:showpageshadow="0"
     inkscape:pageopacity="0"
     inkscape:pagecheckerboard="1"
     inkscape:deskcolor="#505050"
     inkscape:document-units="px"
     inkscape:zoom="1.0903021"
     inkscape:cx="453.54402"
     inkscape:cy="363.20209"
     inkscape:window-width="1920"
     inkscape:window-height="1174"
     inkscape:window-x="0"
     inkscape:window-y="1"
     inkscape:window-maximized="1"
     inkscape:current-layer="layer2" /><defs
     id="defs1"><inkscape:path-effect
       effect="perspective-envelope"
       up_left_point="133.91308,-182.87411"
       up_right_point="309.11828,-211.48829"
       down_left_point="133.91308,-40.746573"
       down_right_point="309.11828,-1.0533484"
       id="path-effect98"
       is_visible="true"
       lpeversion="1"
       deform_type="perspective"
       horizontal_mirror="false"
       vertical_mirror="false"
       overflow_perspective="false" /><inkscape:path-effect
       effect="simplify"
       id="path-effect88"
       is_visible="true"
       lpeversion="1.3"
       threshold="17.241379"
       steps="1"
       smooth_angles="360"
       helper_size="0"
       simplify_individual_paths="false"
       simplify_just_coalesce="false" /><inkscape:path-effect
       effect="simplify"
       id="path-effect86"
       is_visible="true"
       lpeversion="1.3"
       threshold="17.241379"
       steps="1"
       smooth_angles="360"
       helper_size="0"
       simplify_individual_paths="false"
       simplify_just_coalesce="false" /><inkscape:perspective
       sodipodi:type="inkscape:persp3d"
       inkscape:vp_x="-624.78209 : 458.45 : 1"
       inkscape:vp_y="0 : 1034.6751 : 0"
       inkscape:vp_z="663.07543 : 458.45 : 1"
       inkscape:persp3d-origin="19.146665 : 370.15774 : 1"
       id="perspective30" /><inkscape:perspective
       sodipodi:type="inkscape:persp3d"
       inkscape:vp_x="-347.41985 : 380.36507 : 1"
       inkscape:vp_y="0 : 1000 : 0"
       inkscape:vp_z="568.96723 : 398.81925 : 1"
       inkscape:persp3d-origin="138.05377 : 340.766 : 1"
       id="perspective1" /><inkscape:path-effect
       effect="powerstroke"
       message=""
       id="path-effect6"
       is_visible="true"
       lpeversion="1.3"
       scale_width="1"
       interpolator_type="CubicBezierJohan"
       interpolator_beta="0.2"
       start_linecap_type="zerowidth"
       end_linecap_type="zerowidth"
       offset_points="6.9999954,3.3004764e-15"
       linejoin_type="extrp_arc"
       miter_limit="4"
       not_jump="false"
       sort_points="true" /><inkscape:path-effect
       effect="fill_between_many"
       method="bsplinespiro"
       autoreverse="false"
       close="false"
       join="false"
       linkedpaths="#path6,0,1"
       id="path-effect7" /></defs><g
     inkscape:groupmode="layer"
     id="layer2"
     inkscape:label="computer"
     transform="matrix(-0.97328735,0,0,0.97328735,501.81894,31.843036)"><g
       id="g1"
       style="fill:#c17643;stroke-width:14.137"
       transform="matrix(0.93929882,0,0,0.93929882,9.1177513,59.615493)"
       inkscape:label="screen"><path
         d="M 100.806,62.480376 306.52779,30.740578 V 269.61097 L 100.806,226.20585 Z"
         style="fill:#e9e9ff;fill-rule:evenodd;stroke:none;stroke-linejoin:round"
         id="path37" /><path
         d="M 85.899485,60.866048 V 229.80463 L 100.806,226.20585 V 62.480376 Z"
         style="fill:#353564;fill-rule:evenodd;stroke:none;stroke-linejoin:round"
         id="path38" /><path
         d="M 85.899485,229.80463 294.15552,276.98561 306.52779,269.61097 100.806,226.20585 Z"
         style="fill:#442712"
         id="path39" /><path
         d="M 85.899485,60.866048 294.15552,26.854072 306.52779,30.740578 100.806,62.480376 Z"
         style="fill:#4d4d9f;fill-rule:evenodd;stroke:none;stroke-linejoin:round"
         id="path40" /><path
         d="M 294.15552,26.854072 V 276.98561 l 12.37227,-7.37464 V 30.740578 Z"
         style="fill:#00003c;fill-opacity:1"
         id="path41" /><path
         d="M 85.899485,60.866048 294.15552,26.854072 V 276.98561 L 85.899485,229.80463 Z"
         style="fill:#64648c;fill-opacity:1"
         id="path42" /><path
         d="M 91.61275,65.861962 288.44225,33.716145 V 270.12354 L 91.61275,225.53127 Z"
         style="fill:#000000;fill-opacity:1;stroke-width:13.3613"
         id="path55" /><g
         id="g98"
         inkscape:label="lumi splash"
         transform="matrix(0.74822622,0,0,0.74822622,28.555594,228.96258)"
         inkscape:path-effect="#path-effect98"><path
           style="fill:#ffffff;fill-opacity:1;stroke:#1ed2af;stroke-width:4;stroke-dasharray:none;stroke-opacity:1"
           id="path97"
           sodipodi:type="arc"
           sodipodi:cx="222.91365"
           sodipodi:cy="-112.34848"
           sodipodi:rx="55.282585"
           sodipodi:ry="55.282585"
           d="m 309.11828,-106.27082 c 0,58.110005 -52.43008,93.339292 -104.57521,81.525667 -42.06446,-9.529819 -70.62999,-47.817753 -70.62999,-87.065187 0,-39.24744 28.56553,-75.72904 70.62999,-82.59893 52.14513,-8.51624 104.57521,30.02845 104.57521,88.13845 z" /><g
           id="g23"
           transform="matrix(1.7245769,0,0,1.7245769,61.621151,-154.24954)"
           inkscape:label="lumi">
		<g
   id="g21">
			<path
   class="st2"
   d="m 77.462253,23.935695 -0.291742,0.592833 -0.871106,2.218484 c -4.543898,10.545307 -5.65374,20.093236 -2.718357,21.924733 3.153139,1.746351 9.558467,-5.24257 14.545799,-16.017558 l 0.957131,-2.303696 0.320626,-0.614284 z"
   id="path13"
   inkscape:original-d="m 89.9,23.1 -0.2,0.4 -0.6,1.5 c -3.2,7.3 -4,13.9 -1.9,14.9 2.2,0.9 6.5,-4.2 9.7,-11.4 l 0.6,-1.5 0.2,-0.4 z" />
			<g
   id="g20">
				<path
   class="st2"
   d="m 70.783837,55.038471 c -0.551734,-0.376759 -1.237848,-0.19122 -1.511195,0.347277 l -2.164471,4.839493 c -0.267803,0.526923 0,1.294781 0.53743,1.682198 0.539877,0.389183 1.218191,0.225965 1.490602,-0.303896 L 71.338116,56.7349 c 0.2781,-0.541603 0,-1.317931 -0.554279,-1.696429 z"
   id="path14"
   inkscape:original-d="m 85.2,44.5 c -0.4,-0.2 -0.9,0 -1.1,0.4 l -1.6,3.6 c -0.2,0.4 0,0.9 0.4,1.1 0.4,0.2 0.9,0 1.1,-0.4 l 1.6,-3.6 c 0.2,-0.4 0,-0.9 -0.4,-1.1 z" />
				<path
   class="st2"
   d="m 78.488811,56.982647 c -0.294172,-0.648763 -1.026558,-1.062668 -1.609354,-0.85273 -0.580052,0.20895 -0.869055,0.910168 -0.580052,1.554034 l 2.484277,5.987583 c 0.147699,0.329326 0.295574,0.5079 0.591852,0.714362 0.296986,0.206955 0.743796,0.290649 1.042561,0.194655 0.59968,-0.192681 0.900601,-0.899394 0.59968,-1.56359 z"
   id="path15"
   inkscape:original-d="m 90.6,45 c -0.2,-0.4 -0.7,-0.6 -1.1,-0.4 -0.4,0.2 -0.6,0.7 -0.4,1.1 l 1.7,3.7 c 0.1,0.2 0.2,0.3 0.4,0.4 0.2,0.1 0.5,0.1 0.7,0 0.4,-0.2 0.6,-0.7 0.4,-1.1 z" />
				<path
   class="st2"
   d="m 97.686968,50.584041 -5.196282,-4.617734 c -0.655801,-0.546904 -1.470949,-0.474269 -1.957601,-0.05144 -0.484838,0.579064 -0.323426,1.386397 0.162015,1.915938 l 5.124594,4.622184 c 0.168673,0.02195 0.168673,0.183381 0.33756,0.205465 0.507955,0.228259 1.188257,0.31763 1.700771,-0.102732 0.514486,-0.584858 0.514486,-1.399242 -0.171057,-1.971679 z"
   id="path16"
   inkscape:original-d="m 102.7,39.2 -3.1,-2.5 c -0.4,-0.3 -0.9,-0.2 -1.2,0.1 -0.3,0.4 -0.2,0.9 0.1,1.2 l 3.1,2.5 c 0.1,0 0.1,0.1 0.2,0.1 0.3,0.1 0.7,0.1 1,-0.2 0.3,-0.4 0.3,-0.9 -0.1,-1.2 z" />
				<path
   class="st2"
   d="m 90.857317,57.822771 -4.310037,-5.17545 c -0.470099,-0.529957 -1.249773,-0.789205 -1.870095,-0.253634 -0.463263,0.399969 -0.617309,1.149661 0,1.854581 l 4.246777,5.163765 c 0.160016,0.18292 0.320229,0.366067 0.480642,0.392018 0.482433,0.235762 0.966667,0.314394 1.452713,-0.0816 0.487868,-0.397479 0.487868,-1.349099 0,-1.89968 z"
   id="path17"
   inkscape:original-d="m 98.6,44.3 -2.7,-2.9 c -0.3,-0.3 -0.8,-0.4 -1.2,0 -0.3,0.3 -0.4,0.8 0,1.2 l 2.7,2.9 c 0.1,0.1 0.2,0.2 0.3,0.2 0.3,0.1 0.6,0.1 0.9,-0.2 0.3,-0.3 0.3,-0.9 0,-1.2 z" />
				<path
   class="st2"
   d="m 65.2462,49.044668 c 0.528994,-0.07292 1.1936,0.301713 1.326972,0.893634 0.133522,0.59259 -0.133372,1.273033 -0.665356,1.341105 l -5.063811,1.103137 c -0.253816,0.101926 -0.507073,0.06388 -0.759773,-0.113672 -0.252145,-0.177164 -0.503736,-0.493226 -0.629325,-0.790208 -0.125451,-0.574924 0.125589,-1.235173 0.629325,-1.30369 z"
   id="path18"
   inkscape:original-d="m 81.1,40.9 c 0.4,-0.1 0.9,0.1 1,0.5 0.1,0.4 -0.1,0.9 -0.5,1 l -3.9,1.3 c -0.2,0.1 -0.4,0.1 -0.6,0 -0.2,-0.1 -0.4,-0.3 -0.5,-0.5 -0.1,-0.4 0.1,-0.9 0.5,-1 z" />
				<path
   class="st2"
   d="m 60.210513,30.359585 5.035687,1.129022 c 0.661616,0.181368 1.060378,0.778162 0.927307,1.343252 -0.13292,0.707668 -0.663108,1.101194 -1.190913,0.922665 l -5.024503,-1.176342 c -0.126004,-0.008 -0.126004,-0.008 -0.251868,-0.15545 -0.376767,-0.162968 -0.627257,-0.73459 -0.627257,-1.290517 0,-0.555927 0.627257,-0.939295 1.131547,-0.77263 z"
   id="path19"
   inkscape:original-d="m 77.2,28 3.9,0.6 c 0.5,0.1 0.8,0.5 0.7,0.9 -0.1,0.5 -0.5,0.8 -0.9,0.7 L 77,29.6 c -0.1,0 -0.1,0 -0.2,-0.1 -0.3,-0.1 -0.5,-0.5 -0.5,-0.9 0,-0.4 0.5,-0.7 0.9,-0.6 z" />
				<path
   class="st2"
   d="m 58.953926,39.320431 4.980139,0.466473 c 0.654229,0.06128 1.048529,0.6685 1.048529,1.238787 0,0.71286 -0.525439,1.086247 -1.048529,1.032161 l -4.980139,-0.514929 c -0.124903,-0.01291 -0.249669,-0.02582 -0.374299,-0.177379 -0.373075,-0.176799 -0.621114,-0.617045 -0.621114,-1.170247 0,-0.414902 0.49662,-0.921587 0.995413,-0.874866 z"
   id="path20"
   inkscape:original-d="m 76.2,34.5 h 3.9 c 0.5,0 0.8,0.4 0.8,0.8 0,0.5 -0.4,0.8 -0.8,0.8 h -3.9 c -0.1,0 -0.2,0 -0.3,-0.1 -0.3,-0.1 -0.5,-0.4 -0.5,-0.8 0,-0.3 0.4,-0.7 0.8,-0.7 z" />
			</g>
		</g>
		<g
   id="g22">
			<path
   class="st0"
   d="M 131.59201,51.61654 117.51984,34.334874 c 4.00041,-0.125164 7.4895,-1.362502 10.00319,-3.762506 0.63514,-0.696912 0.42313,-1.60973 -0.21111,-2.174694 L 102.20679,10.164883 c 0,0 0,-0.1652082 0.17689,-0.1703686 1.4235,-3.1989787 1.24475,-6.5131583 -0.52999,-9.22418765 v 0 L 108.72353,-4.40083 c 0.74344,-0.5685339 0.74344,-1.4166512 0.37123,-2.0625574 -0.55646,-0.6275162 -1.47897,-0.5445053 -2.21259,-0.1423889 l -6.78031,5.1918674 C 99.061581,-2.3190538 98.0293,-3.0545715 96.665209,-3.433102 95.314959,-3.8077915 93.978341,-4.0184935 92.65515,-3.908279 l -0.820265,-7.400031 c -0.163438,-0.616922 -0.815148,-1.017643 -1.625226,-0.923566 -0.805055,0.09349 -1.285697,0.934966 -1.125681,1.545783 l 0.803059,7.3238159 c -2.867924,1.0152573 -5.518882,3.07710933 -6.747522,6.0839066 V 2.8752429 L 60.084232,0.89859623 c -0.629325,-0.0925316 -1.130306,0.36164957 -1.130306,1.05617847 -0.374299,2.5223765 0.37553,4.9825738 1.890079,7.150722 L 47.442622,11.069652 c -0.225152,0.0071 -0.449836,0.145849 -0.562004,0.412453 -0.112051,0.266328 -0.223987,0.532381 -0.223987,0.795236 0.336155,4.203441 2.375248,7.910254 5.742505,10.643516 0.828394,0.695771 1.782736,1.264177 2.745294,1.700887 2.938035,1.609731 6.464394,2.300538 10.10177,2.013968 l 5.814457,-0.369285 -0.414992,1.299749 v 0.146016 c -0.825702,2.294561 -1.373023,4.589818 -1.917845,6.72975 -0.542342,2.419226 -0.812587,4.707378 -0.812587,6.872707 -0.134893,5.613365 1.22097,9.551659 3.979726,11.253509 2.680564,1.571991 6.29968,0.904206 10.330854,-2.343635 l 0.151824,-0.133667 0.152008,-0.133828 c 0.152191,0.01935 0.152191,-0.133989 0.304566,-0.114713 3.399478,-2.99084 6.731004,-7.497105 9.656475,-12.956106 l 4.344273,5.820471 c 2.919247,4.037152 6.793471,7.275109 11.149091,9.642325 1.48292,0.692859 2.98177,1.393164 4.49682,1.92958 6.62587,2.258206 13.57065,2.109181 18.89421,-0.673915 0.65174,-0.472731 0.86961,-1.364663 0.21693,-1.98813 z M 93.149786,7.8683773 c 0,0 0,-0.1597008 0.165294,-0.1661311 0,-0.1598013 0.165502,-0.3262422 0.165502,-0.4861441 L 123.76838,29.520874 c -2.04518,1.512814 -5.06001,2.078067 -8.20777,1.755376 l -0.19446,-0.0091 c -0.77517,-0.03631 -1.35378,-0.235802 -2.12161,-0.271301 l -2.27872,-0.616959 c -2.42752,-0.78404 -4.81338,-2.057446 -6.97965,-3.802064 L 99.407447,22.998323 C 95.147141,19.699629 92.65515,15.219718 92.65515,11.394118 c 0,-0.797 0,-1.4345995 0.164672,-2.077604 v 0 c -0.164672,-0.4727953 0,-0.9570007 0.329964,-1.4481367 -0.165086,0.1659222 0,0.1597007 0,0 z M 60.971123,3.3551975 90.857317,6.3730984 c 0,0.1583067 -0.162217,0.3236145 -0.162217,0.4818225 v 0 0.1582081 c -0.162015,0.4811239 -0.485441,0.8099249 -0.646853,1.1318335 -0.322221,0.6426181 -0.804056,1.1315816 -1.443722,1.6237753 -2.839786,2.5731082 -7.43638,3.8929752 -12.160364,3.2256212 l -4.688654,-0.639443 c -2.072609,-0.243001 -3.975167,-0.918121 -5.582,-1.87725 C 65.642722,10.208494 65.2462,9.9360442 64.851013,9.5220196 64.457155,9.2516393 64.064618,8.8401527 63.803658,8.5665946 c 0,0 -0.130261,0.00523 -0.130261,-0.1365498 C 61.864894,6.9562629 60.971123,5.1769196 60.971123,3.3551975 Z M 73.439641,23.690063 c -0.423234,0.137413 -0.844996,0.127146 -1.405068,0.260374 -0.139614,-0.0035 -0.418357,-0.01044 -0.557487,0.132612 l -6.362763,0.407989 C 60.717027,24.78789 56.603902,23.702921 53.584452,21.184221 50.87693,19.000754 49.146289,16.200531 48.575434,13.022766 l 14.061085,-2.009879 c 1.036878,0.961552 2.346075,1.783568 3.803281,2.468982 1.475433,0.693987 2.969438,1.106182 4.759507,1.373881 l 4.666848,0.686434 c 4.10406,0.566883 8.039862,-0.07809 11.310622,-1.82661 -0.629497,1.411496 -1.567972,2.662673 -2.499592,3.750161 v 0 c -1.690414,1.845301 -3.8096,3.508216 -6.335548,4.683017 -0.440473,0.14292 -0.879384,0.435495 -1.46218,0.574305 l -0.14527,-0.0028 c -0.579369,0.138082 -1.156018,0.42453 -1.729965,0.560971 l -0.143067,-0.0031 c -0.570597,0.283963 -0.996799,0.42208 -1.421514,0.412 z m 7.728504,23.807683 -4.288688,-2.453513 c -0.580052,-0.362763 -1.301288,-0.143254 -1.588598,0.42048 -0.286637,0.562413 0,1.339564 0.575296,1.705825 l 3.213101,1.894468 c -2.635095,1.763439 -4.788698,2.364675 -6.344187,1.41444 -1.812902,-1.120776 -2.777884,-4.304496 -2.640504,-8.804383 0,-1.602487 0.275234,-3.327216 0.5511,-5.055914 l 6.088522,3.318672 c 0.582109,0.352191 1.313627,0.117452 1.60745,-0.459061 0.294522,-0.577882 0,-1.356261 -0.58695,-1.704778 l -6.55538,-3.453367 c 0.277779,-1.446289 0.695652,-2.888116 1.255076,-4.327965 v 0 l 10.991176,5.623651 c 0.614317,0.351317 1.386423,0.09698 1.696584,-0.500649 0.310918,-0.599088 0,-1.393481 -0.619567,-1.74083 L 73.298399,27.820319 c 0.141242,-0.437387 0.42422,-1.017916 0.565957,-1.456661 1.139866,-0.109136 2.146046,-0.37341 3.160542,-0.789764 0.437355,-0.136589 0.729789,-0.278031 1.169741,-0.415521 l 10.250463,4.847735 c 0.159423,0.478278 0.319043,0.800114 0.47886,1.279479 0.480642,1.126815 1.124285,2.267538 1.771138,3.25574 -2.885724,5.291553 -6.172524,9.79976 -9.526955,12.956419 z M 113.05324,51.77532 C 107.43202,49.923109 102.38368,46.198725 98.716603,41.414009 L 93.978341,35.071434 C 93.812212,34.900518 93.646293,34.729817 93.480582,34.39943 93.149786,33.899602 92.819822,33.560531 92.65515,33.072514 92.326427,32.575918 91.998527,32.080565 91.834885,31.595002 l -0.163438,-0.167351 c -0.326262,-0.651284 -0.65171,-1.300942 -0.81413,-1.78347 V 29.485874 C 90.6951,29.004046 90.533085,28.522818 90.371271,27.884178 89.565215,25.490469 89.244191,22.963882 89.404604,20.605657 v -0.787116 c 0.160611,-1.574035 0.482433,-3.150804 1.128481,-4.576922 0.975129,3.481391 3.445256,7.17365 7.153883,9.998679 l 4.519822,3.593141 c 1.77938,1.401771 3.58222,2.487252 5.59301,3.428157 2.04038,0.954754 4.11101,1.581444 6.21257,1.872721 l 14.1458,17.640911 c -4.5956,1.79386 -9.84707,1.680077 -15.10493,9.2e-5 z"
   id="path21"
   inkscape:original-d="m 120.3,37.5 -6.8,-9 c 2,-0.2 3.7,-1 4.9,-2.4 0.3,-0.4 0.2,-0.9 -0.1,-1.2 l -13,-10.5 c 0,0 0,-0.1 0.1,-0.1 0.8,-1.9 0.7,-3.9 -0.3,-5.6 0,0 0,0 0,0 l 3.8,-2.8 c 0.4,-0.3 0.4,-0.8 0.2,-1.2 -0.3,-0.4 -0.8,-0.4 -1.2,-0.2 l -3.8,2.8 c -0.6,-0.6 -1.2,-1.1 -2,-1.4 -0.8,-0.3 -1.6,-0.5 -2.4,-0.5 L 99.2,0.7 C 99.1,0.3 98.7,0 98.2,0 97.7,0 97.4,0.5 97.5,0.9 L 98,5.6 c -1.8,0.5 -3.5,1.7 -4.3,3.6 0,0 0,0.1 0,0.1 L 77.1,6.9 c -0.5,-0.1 -0.9,0.2 -0.9,0.7 -0.3,1.8 0.3,3.6 1.5,5.2 l -11.2,1.1 c -0.2,0 -0.4,0.1 -0.5,0.3 -0.1,0.2 -0.2,0.4 -0.2,0.6 0.3,3.2 2.1,6 5,8 0.7,0.5 1.5,0.9 2.3,1.2 2.4,1.1 5.2,1.5 8,1.2 l 4.3,-0.4 c -0.1,0.3 -0.2,0.6 -0.3,0.9 0,0 0,0.1 0,0.1 -0.6,1.6 -1,3.2 -1.4,4.7 -0.4,1.7 -0.6,3.3 -0.6,4.8 -0.1,3.9 0.9,6.5 2.9,7.4 1.9,0.8 4.4,0 7.1,-2.5 0,0 0.1,-0.1 0.1,-0.1 0,0 0,0 0.1,-0.1 0.1,0 0.1,-0.1 0.2,-0.1 2.2,-2.2 4.3,-5.3 6.1,-8.9 l 2.6,3.4 c 1.7,2.3 3.9,4 6.3,5.1 0.8,0.3 1.6,0.6 2.4,0.8 3.4,0.8 6.8,0.2 9.3,-1.7 0.3,-0.3 0.4,-0.8 0.1,-1.1 z M 100,12.8 c 0,0 0,-0.1 0.1,-0.1 0,-0.1 0.1,-0.2 0.1,-0.3 l 16.4,13.2 c -1,0.9 -2.5,1.3 -4.1,1.2 0,0 -0.1,0 -0.1,0 -0.4,0 -0.7,-0.1 -1.1,-0.1 -0.4,-0.1 -0.8,-0.2 -1.2,-0.3 -1.3,-0.4 -2.6,-1.1 -3.8,-2.1 l -2.6,-2.1 c -2.5,-2 -4,-4.8 -4,-7.2 0,-0.5 0,-0.9 0.1,-1.3 v 0 c -0.1,-0.3 0,-0.6 0.2,-0.9 -0.1,0.1 0,0.1 0,0 z M 77.8,8.7 98.6,11.8 c 0,0.1 -0.1,0.2 -0.1,0.3 v 0 c 0,0 0,0.1 0,0.1 -0.1,0.3 -0.3,0.5 -0.4,0.7 -0.2,0.4 -0.5,0.7 -0.9,1 -1.8,1.6 -4.8,2.4 -8,1.9 L 85.9,15.3 C 84.4,15.1 83,14.6 81.8,13.9 81.4,13.7 81.1,13.5 80.8,13.2 80.5,13 80.2,12.7 80,12.5 c 0,0 -0.1,0 -0.1,-0.1 C 78.5,11.3 77.8,10 77.8,8.7 Z M 87.1,23 c -0.3,0.1 -0.6,0.1 -1,0.2 -0.1,0 -0.3,0 -0.4,0.1 L 81,23.7 C 77.6,24 74.3,23.3 71.8,21.5 69.5,19.9 68,17.8 67.5,15.4 l 11.6,-1.2 c 0.8,0.7 1.8,1.3 2.9,1.8 1.1,0.5 2.2,0.8 3.5,1 l 3.3,0.5 c 2.8,0.4 5.4,0 7.5,-1.1 -0.4,0.9 -1,1.7 -1.6,2.4 v 0 c -1.1,1.2 -2.5,2.3 -4.2,3.1 -0.3,0.1 -0.6,0.3 -1,0.4 0,0 -0.1,0 -0.1,0 -0.4,0.1 -0.8,0.3 -1.2,0.4 h -0.1 c -0.4,0.2 -0.7,0.3 -1,0.3 z m 5.3,15.5 -2.9,-1.3 c -0.4,-0.2 -0.9,0 -1.1,0.4 -0.2,0.4 0,0.9 0.4,1.1 0,0 2.2,1 2.2,1 -1.8,1.4 -3.3,2 -4.4,1.5 -1.3,-0.6 -2,-2.7 -1.9,-5.8 0,-1.1 0.2,-2.3 0.4,-3.5 l 4.3,1.9 c 0.4,0.2 0.9,0 1.1,-0.4 0.2,-0.4 0,-0.9 -0.4,-1.1 l -4.6,-2 c 0.2,-1 0.5,-2 0.9,-3 v 0 l 7.5,3.3 c 0.4,0.2 0.9,0 1.1,-0.4 0.2,-0.4 0,-0.9 -0.4,-1.1 L 87,25.8 c 0.1,-0.3 0.3,-0.7 0.4,-1 0.8,-0.1 1.5,-0.3 2.2,-0.6 0.3,-0.1 0.5,-0.2 0.8,-0.3 l 6.7,2.9 c 0.1,0.3 0.2,0.5 0.3,0.8 0.3,0.7 0.7,1.4 1.1,2 -1.8,3.5 -3.9,6.6 -6.1,8.9 z m 18.8,0.3 c -3,-0.7 -5.8,-2.6 -7.9,-5.3 l -2.8,-3.7 c -0.1,-0.1 -0.2,-0.2 -0.3,-0.4 C 100,29.1 99.8,28.9 99.7,28.6 99.5,28.3 99.3,28 99.2,27.7 l -0.1,-0.1 c -0.2,-0.4 -0.4,-0.8 -0.5,-1.1 0,0 0,-0.1 0,-0.1 -0.1,-0.3 -0.2,-0.6 -0.3,-1 -0.5,-1.5 -0.7,-3.1 -0.6,-4.6 0,-0.2 0,-0.3 0,-0.5 0.1,-1 0.3,-2 0.7,-2.9 0.6,2.2 2.1,4.5 4.3,6.2 l 2.6,2.1 c 1,0.8 2,1.4 3.1,1.9 1.1,0.5 2.2,0.8 3.3,0.9 l 7,9.3 c -2.2,1.3 -4.8,1.6 -7.5,1 z" />
		</g>
	</g></g></g><g
       id="g25"
       style="fill:#c17643;stroke-width:14.137"
       transform="matrix(1.1050547,0,0,1.1639417,-67.342815,39.904901)"
       inkscape:label="tower"><path
         d="m 462.6274,39.518832 57.16639,-0.737635 V 199.4957 l -57.16639,-7.28933 z"
         style="fill:#e9e9ff;fill-rule:evenodd;stroke:none;stroke-width:14.7401;stroke-linejoin:round"
         id="path43" /><path
         d="M 340.15973,30.946213 V 276.92122 L 462.6274,192.20637 V 39.518832 Z"
         style="fill:#353564;fill-rule:evenodd;stroke:none;stroke-width:14.5149;stroke-linejoin:round"
         id="path44" /><path
         d="m 340.15973,276.92122 84.43341,19.54522 95.20065,-96.97074 -57.16639,-7.28933 z"
         style="fill:#442712;stroke-width:14.6092"
         id="path45" /><path
         d="m 340.15973,30.946213 84.43341,-1.977855 95.20065,9.812839 -57.16639,0.737635 z"
         style="fill:#4d4d9f;fill-rule:evenodd;stroke:none;stroke-width:14.7401;stroke-linejoin:round"
         id="path46" /><path
         d="M 424.59314,28.968358 V 296.46644 L 519.79379,199.4957 V 38.781197 Z"
         style="fill:#00003c;fill-opacity:1;stroke-width:14.7401"
         id="path47" /><path
         d="m 340.15973,30.946213 84.43341,-1.977855 V 296.46644 l -84.43341,-19.54522 z"
         style="fill:#64648c;fill-opacity:1;stroke-width:14.5149"
         id="path48" /><path
         d="m 373.41639,44.765101 42.83304,-1.003366 0.67279,129.952915 -43.50583,-4.16653 z"
         style="fill:#00003c;fill-opacity:1;stroke-width:7.36341"
         id="path94"
         sodipodi:nodetypes="ccccc" /><ellipse
         style="fill:#1ed2af;fill-opacity:1;stroke:#00003c;stroke-width:3.72177;stroke-dasharray:none;stroke-opacity:1"
         id="path95"
         cx="380.21301"
         cy="260.26202"
         rx="8.7462683"
         ry="8.303771" /><path
         d="m 401.83806,48.757472 8.88688,0.114276 0.9646,104.211982 -10.01597,-1.07387 z"
         style="fill:#64648c;fill-opacity:1;stroke-width:3.06506"
         id="path96"
         sodipodi:nodetypes="ccccc" /></g><g
       id="g30"
       style="fill:#c17643;stroke-width:14.137"
       transform="matrix(0.93894636,-0.02572976,0.02572976,0.93894636,-12.655272,68.402527)"
       inkscape:label="keyboard"><g
         id="g97"
         inkscape:label="body"><path
           d="m 82.185258,260.75648 229.633192,67.30366 v 8.80627 L 82.185258,267.40366 Z"
           style="fill:#e9e9ff;fill-rule:evenodd;stroke:none;stroke-linejoin:round"
           id="path49" /><path
           d="m -0.5421656,290.26577 v 7.59384 L 82.185258,267.40366 v -6.64718 z"
           style="fill:#353564;fill-rule:evenodd;stroke:none;stroke-linejoin:round"
           id="path50" /><path
           d="M -0.5421656,297.85961 242.33126,392.91331 311.81845,336.86641 82.185258,267.40366 Z"
           style="fill:#442712"
           id="path51" /><path
           d="M -0.5421656,290.26577 242.33126,382.36493 311.81845,328.06014 82.185258,260.75648 Z"
           style="fill:#4d4d9f;fill-rule:evenodd;stroke:none;stroke-linejoin:round"
           id="path52" /><path
           d="m 242.33126,382.36493 v 10.54838 l 69.48719,-56.0469 v -8.80627 z"
           style="fill:#00003c;fill-opacity:1"
           id="path53" /><path
           d="M -0.5421656,290.26577 242.33126,382.36493 v 10.54838 L -0.5421656,297.85961 Z"
           style="fill:#64648c;fill-opacity:1"
           id="path54" /></g><g
         id="g84"
         inkscape:label="keys"
         transform="matrix(1.0031701,0.03152972,0.16690906,1.0302606,-51.494655,-11.558405)"><path
           d="m 83.715434,266.04328 -18.699681,6.67167 14.114331,5.35306 20.57277,-7.33944 z"
           style="fill:#00003c;fill-opacity:1;fill-rule:evenodd;stroke-width:3.19577;stroke-linejoin:round"
           id="path58" /><path
           d="m 108.45044,272.62208 -18.699681,6.67167 14.114331,5.35306 20.57277,-7.33944 z"
           style="fill:#00003c;fill-opacity:1;fill-rule:evenodd;stroke-width:3.19577;stroke-linejoin:round"
           id="path59" /><path
           d="m 131.18402,280.45736 -18.69968,6.67167 14.11433,5.35306 20.57277,-7.33944 z"
           style="fill:#00003c;fill-opacity:1;fill-rule:evenodd;stroke-width:3.19577;stroke-linejoin:round"
           id="path60" /><path
           d="m 155.91902,287.03616 -18.69968,6.67167 14.11433,5.35306 20.57277,-7.33944 z"
           style="fill:#00003c;fill-opacity:1;fill-rule:evenodd;stroke-width:3.19577;stroke-linejoin:round"
           id="path61" /><path
           d="m 181.23254,294.42339 -18.69969,6.67167 14.11434,5.35306 20.57277,-7.33944 z"
           style="fill:#00003c;fill-opacity:1;fill-rule:evenodd;stroke-width:3.19577;stroke-linejoin:round"
           id="path62" /><path
           d="m 205.96754,301.00219 -18.69968,6.67167 14.11433,5.35306 20.57277,-7.33944 z"
           style="fill:#00003c;fill-opacity:1;fill-rule:evenodd;stroke-width:3.19577;stroke-linejoin:round"
           id="path63" /><path
           d="m 228.70112,308.83747 -18.69968,6.67167 14.11433,5.35306 20.57277,-7.33944 z"
           style="fill:#00003c;fill-opacity:1;fill-rule:evenodd;stroke-width:3.19577;stroke-linejoin:round"
           id="path64" /><path
           d="m 253.43612,315.41627 -18.69968,6.67167 14.11433,5.35306 20.57277,-7.33944 z"
           style="fill:#00003c;fill-opacity:1;fill-rule:evenodd;stroke-width:3.19577;stroke-linejoin:round"
           id="path65" /><path
           d="m 279.20401,322.42333 -18.69968,6.67167 14.11433,5.35306 20.57277,-7.33944 z"
           style="fill:#00003c;fill-opacity:1;fill-rule:evenodd;stroke-width:3.19577;stroke-linejoin:round"
           id="path66" /><path
           d="m 60.731577,277.0072 -18.699681,6.67167 14.114331,5.35306 20.57277,-7.33944 z"
           style="fill:#00003c;fill-opacity:1;fill-rule:evenodd;stroke-width:3.19577;stroke-linejoin:round"
           id="path67" /><path
           d="m 85.466583,283.586 -18.699681,6.67167 14.114331,5.35306 20.572767,-7.33944 z"
           style="fill:#00003c;fill-opacity:1;fill-rule:evenodd;stroke-width:3.19577;stroke-linejoin:round"
           id="path68" /><path
           d="m 108.20016,291.42128 -18.699677,6.67167 14.114327,5.35306 20.57277,-7.33944 z"
           style="fill:#00003c;fill-opacity:1;fill-rule:evenodd;stroke-width:3.19577;stroke-linejoin:round"
           id="path69" /><path
           d="m 132.93516,298.00008 -18.69968,6.67167 14.11433,5.35306 20.57277,-7.33944 z"
           style="fill:#00003c;fill-opacity:1;fill-rule:evenodd;stroke-width:3.19577;stroke-linejoin:round"
           id="path70" /><path
           d="m 158.24868,305.38731 -18.69969,6.67167 14.11434,5.35306 20.57277,-7.33944 z"
           style="fill:#00003c;fill-opacity:1;fill-rule:evenodd;stroke-width:3.19577;stroke-linejoin:round"
           id="path71" /><path
           d="m 182.98368,311.96611 -18.69968,6.67167 14.11433,5.35306 20.57277,-7.33944 z"
           style="fill:#00003c;fill-opacity:1;fill-rule:evenodd;stroke-width:3.19577;stroke-linejoin:round"
           id="path72" /><path
           d="m 205.71726,319.80139 -18.69968,6.67167 14.11433,5.35306 20.57277,-7.33944 z"
           style="fill:#00003c;fill-opacity:1;fill-rule:evenodd;stroke-width:3.19577;stroke-linejoin:round"
           id="path73" /><path
           d="m 230.45226,326.38019 -18.69968,6.67167 14.11433,5.35306 20.57277,-7.33944 z"
           style="fill:#00003c;fill-opacity:1;fill-rule:evenodd;stroke-width:3.19577;stroke-linejoin:round"
           id="path74" /><path
           d="m 256.22015,333.38725 -18.69968,6.67167 14.11433,5.35306 20.57277,-7.33944 z"
           style="fill:#00003c;fill-opacity:1;fill-rule:evenodd;stroke-width:3.19577;stroke-linejoin:round"
           id="path75" /><path
           d="m 35.263739,286.64287 -18.699681,6.67167 14.114331,5.35306 20.57277,-7.33944 z"
           style="fill:#00003c;fill-opacity:1;fill-rule:evenodd;stroke-width:3.19577;stroke-linejoin:round"
           id="path76" /><path
           d="m 59.998745,293.22167 -18.699681,6.67167 14.114331,5.35306 20.572767,-7.33944 z"
           style="fill:#00003c;fill-opacity:1;fill-rule:evenodd;stroke-width:3.19577;stroke-linejoin:round"
           id="path77" /><path
           d="m 82.732322,301.05695 -18.699677,6.67167 14.114327,5.35306 20.57277,-7.33944 z"
           style="fill:#00003c;fill-opacity:1;fill-rule:evenodd;stroke-width:3.19577;stroke-linejoin:round"
           id="path78" /><path
           d="m 107.46732,307.63575 -18.699678,6.67167 14.114328,5.35306 20.57277,-7.33944 z"
           style="fill:#00003c;fill-opacity:1;fill-rule:evenodd;stroke-width:3.19577;stroke-linejoin:round"
           id="path79" /><path
           d="m 132.78084,315.02298 -18.69969,6.67167 14.11434,5.35306 20.57277,-7.33944 z"
           style="fill:#00003c;fill-opacity:1;fill-rule:evenodd;stroke-width:3.19577;stroke-linejoin:round"
           id="path80" /><path
           d="m 157.51584,321.60178 -18.69968,6.67167 14.11433,5.35306 20.57277,-7.33944 z"
           style="fill:#00003c;fill-opacity:1;fill-rule:evenodd;stroke-width:3.19577;stroke-linejoin:round"
           id="path81" /><path
           d="m 180.24942,329.43706 -18.69968,6.67167 14.11433,5.35306 20.57277,-7.33944 z"
           style="fill:#00003c;fill-opacity:1;fill-rule:evenodd;stroke-width:3.19577;stroke-linejoin:round"
           id="path82" /><path
           d="m 204.98442,336.01586 -18.69968,6.67167 14.11433,5.35306 20.57277,-7.33944 z"
           style="fill:#00003c;fill-opacity:1;fill-rule:evenodd;stroke-width:3.19577;stroke-linejoin:round"
           id="path83" /><path
           d="m 230.75231,343.02292 -18.69968,6.67167 14.11433,5.35306 20.57277,-7.33944 z"
           style="fill:#00003c;fill-opacity:1;fill-rule:evenodd;stroke-width:3.19577;stroke-linejoin:round"
           id="path84" /></g></g><g
       id="g96"
       inkscape:label="mouse"
       style="fill:#c17643;stroke-width:14.137"
       transform="matrix(0.93894636,-0.02572976,0.02572976,0.93894636,1.4799727,58.979031)"><path
         d="m 362.70468,370.97998 a 24.74123,43.482984 55.918352 0 0 -27.61435,7.89162 c 0.59673,-0.0185 1.19353,-0.0281 1.79182,-0.0255 5.90238,0.0236 11.84419,1.1042 17.33175,3.526 1.5708,-1.30957 3.15838,-2.42875 4.74988,-3.3599 5.62782,-3.29269 11.30206,-4.3602 16.51153,-4.35022 a 24.74123,43.482984 55.918352 0 0 -12.77063,-3.68197 z"
         style="fill:#00003c;stroke-width:20.975"
         id="path93" /><path
         d="m 358.52054,384.69387 c 4.40166,2.95695 7.78034,7.20174 10.0461,11.87153 1.9481,4.01512 3.3108,8.30291 4.09307,12.67858 a 24.74123,43.482984 55.918352 0 0 7.23382,-29.92388 c -6.45557,-0.88236 -13.93506,-0.2003 -21.37299,5.37377 z"
         style="fill:#00003c;stroke-width:20.975"
         id="path92" /><path
         d="m 368.72329,413.67759 c -0.63862,-4.60427 -2.18138,-10.98858 -4.20092,-15.15093 -2.38454,-4.9146 -6.13803,-9.15961 -10.91885,-11.50253 -6.82994,-3.34709 -17.76264,-4.62003 -25.44316,-3.73511 a 24.74123,43.482984 55.918352 0 0 -21.32095,43.12496 24.74123,43.482984 55.918352 0 0 49.03857,-2.23846 24.74123,43.482984 55.918352 0 0 12.84531,-10.49793 z"
         style="fill:#00003c;stroke-width:20.975"
         id="path90" /><path
         d="m 375.47531,374.66195 c -5.20947,-0.01 -10.88371,1.05753 -16.51153,4.35022 -1.97289,1.1543 -3.93962,2.5809 -5.87604,4.32557 l 3.00795,3.33543 c 8.22247,-7.40825 16.64026,-8.33139 23.79784,-7.35307 a 24.74123,43.482984 55.918352 0 0 -0.0605,-0.1136 24.74123,43.482984 55.918352 0 0 -4.35767,-4.54455 z"
         style="display:inline;fill:#64648c;stroke-width:14.137"
         id="path89" /><path
         d="m 354.2139,382.37207 c -5.48756,-2.4218 -11.42937,-3.50237 -17.33175,-3.526 -0.59829,-0.003 -1.19509,0.007 -1.79182,0.0255 -1.45367,0.80568 -2.88802,1.66417 -4.29585,2.57117 -0.89134,0.59715 -1.76998,1.21299 -2.63412,1.84625 7.68052,-0.88492 18.61322,0.38802 25.44316,3.73511 4.78082,2.34292 8.53431,6.58793 10.91885,11.50253 2.01954,4.16235 3.5623,10.54666 4.20092,15.15093 1.40625,-1.4454 2.72184,-2.92716 3.93642,-4.43361 -0.78227,-4.37567 -2.14497,-8.66346 -4.09307,-12.67858 -2.26576,-4.66979 -5.64444,-8.91458 -10.0461,-11.87153 -0.80885,0.60616 -4.68308,-2.00797 -4.30664,-2.3218 z"
         style="fill:#64648c"
         id="path91"
         sodipodi:nodetypes="sccccssccscss" /></g></g><style
     type="text/css"
     id="style1">
	.st0{fill:#00003C;}
	.st1{fill:#64648C;}
	.st2{fill:#1ED2AF;}
</style><style
     type="text/css"
     id="style1-5">
	.st0{fill:#00003C;}
	.st1{fill:#64648C;}
	.st2{fill:#1ED2AF;}
</style></svg>
