<?xml version="1.0" encoding="UTF-8" standalone="no"?>
<!-- Created with Inkscape (http://www.inkscape.org/) -->

<svg
   width="512"
   height="512"
   viewBox="0 0 512 512"
   version="1.1"
   id="svg1"
   inkscape:version="1.4 (e7c3feb100, 2024-10-09)"
   sodipodi:docname="reel-fly_swat.svg"
   xml:space="preserve"
   xmlns:inkscape="http://www.inkscape.org/namespaces/inkscape"
   xmlns:sodipodi="http://sodipodi.sourceforge.net/DTD/sodipodi-0.dtd"
   xmlns="http://www.w3.org/2000/svg"
   xmlns:svg="http://www.w3.org/2000/svg"><sodipodi:namedview
     id="namedview1"
     pagecolor="#ffffff"
     bordercolor="#ffffff"
     borderopacity="1"
     inkscape:showpageshadow="0"
     inkscape:pageopacity="0"
     inkscape:pagecheckerboard="1"
     inkscape:deskcolor="#505050"
     inkscape:document-units="px"
     inkscape:zoom="0.63874035"
     inkscape:cx="534.64605"
     inkscape:cy="380.43628"
     inkscape:window-width="1920"
     inkscape:window-height="1174"
     inkscape:window-x="0"
     inkscape:window-y="1"
     inkscape:window-maximized="1"
     inkscape:current-layer="g21" /><defs
     id="defs1"><inkscape:path-effect
       effect="powerstroke"
       message=""
       id="path-effect6"
       is_visible="true"
       lpeversion="1.3"
       scale_width="1"
       interpolator_type="CubicBezierJohan"
       interpolator_beta="0.2"
       start_linecap_type="zerowidth"
       end_linecap_type="zerowidth"
       offset_points="6.9999954,3.3004764e-15"
       linejoin_type="extrp_arc"
       miter_limit="4"
       not_jump="false"
       sort_points="true" /><inkscape:path-effect
       effect="fill_between_many"
       method="bsplinespiro"
       autoreverse="false"
       close="false"
       join="false"
       linkedpaths="#path6,0,1"
       id="path-effect7" /></defs><g
     inkscape:label="squish"
     inkscape:groupmode="layer"
     id="layer1"
     style="display:inline"><path
       class="st2"
       d="m 264.89561,155.19078 c -32.2781,-42.77208 55.42954,-70.292294 -11.76588,-67.661184 -39.86901,1.561121 9.88147,109.733804 -67.15126,63.267414 -25.27811,-15.24784 54.86999,-47.47369 19.41148,-53.839495 -53.93121,-9.682175 -0.73689,22.674835 -33.04638,39.875865 -13.28925,7.07496 -20.73323,-66.017661 -43.59877,-53.6753 -42.22334,22.79136 51.25003,53.94758 26.72824,77.10292 -20.69591,19.54264 -67.17227,-32.46086 -70.783425,17.04906 -1.446652,19.83431 66.971525,-15.11907 85.799175,7.09309 17.881,21.09529 -57.8224,49.51762 -34.29665,59.21847 61.38491,25.31206 -0.63836,-46.34273 73.20832,-29.49831 54.82348,12.50521 64.61732,131.2024 86.99462,116.79602 28.28856,-18.21201 15.79347,-52.8017 -27.96467,-83.75339 -30.83221,-21.80874 -27.79423,-51.10312 -17.37562,-65.62309 15.197,-21.17931 48.32616,35.73037 50.06129,19.49719 6.34771,-59.38582 -11.9499,-13.68796 -36.22047,-45.84926 z"
       id="path12"
       style="display:inline;fill:#00003c;fill-opacity:1;stroke-width:14.6998"
       sodipodi:nodetypes="ssssssssssssssss"
       inkscape:transform-center-x="-58.764717"
       inkscape:transform-center-y="-38.60784"
       inkscape:label="blue squish"
       transform="matrix(2.1854175,-0.21038335,0.21038335,2.1854175,-215.06579,-124.55201)" /><path
       class="st2"
       d="m 187.902,134.54838 c -31.90079,14.07232 -41.87375,-50.825732 -46.64127,-4.5279 -2.8287,27.46985 74.74841,13.61582 36.0098,57.51401 -12.71199,14.4051 -26.58451,-46.21209 -34.31438,-23.21926 -11.75689,34.97134 15.17531,4.7079 23.59856,29.92489 3.46458,10.37201 -46.40847,1.89033 -40.33356,19.76784 11.21787,33.0125 41.26096,-24.93352 54.44559,-3.92139 11.12758,17.73384 -28.3618,39.77352 4.57836,51.41805 13.19624,4.66495 -3.6514,-48.46136 13.11603,-57.17723 15.92435,-8.27764 27.67169,48.60396 36.4833,34.36473 22.99181,-37.15395 -31.22386,-8.16003 -12.71359,-55.38018 13.74195,-35.05605 94.50902,-19.71803 86.99874,-37.64549 -9.49423,-22.66326 -33.96852,-20.56023 -59.03782,3.53083 -17.66396,16.97468 -37.06654,9.47032 -45.81654,-0.32551 -12.76303,-14.28855 28.72694,-26.31896 17.98025,-30.51266 -39.31471,-15.3418 -10.36655,5.60801 -34.35347,16.18927 z"
       id="path13"
       style="display:inline;stroke-width:10.1466"
       sodipodi:nodetypes="ssssssssssssssss"
       inkscape:label="green squish"
       transform="matrix(2.1854175,-0.21038335,0.21038335,2.1854175,-215.06579,-124.55201)" /></g><g
     id="g21"
     inkscape:label="swatter"><path
       d="m 173.82429,82.654297 c -39.95511,0 -72.12116,34.224893 -72.12116,76.737403 v 240.55886 c 0,42.51252 32.16605,76.73741 72.12116,76.73741 h 185.39243 c 39.95511,0 72.12116,-34.22489 72.12116,-76.73741 V 159.3917 c 0,-42.51251 -32.16605,-76.737403 -72.12116,-76.737403 z m -22.04797,40.127923 h 15.88088 c 9.31576,0 16.81554,13.20479 16.81554,29.60814 0,16.40333 -7.49978,29.60812 -16.81554,29.60812 h -15.88088 c -9.31576,0 -16.81555,-13.20479 -16.81555,-29.60812 0,-16.40335 7.49979,-29.60814 16.81555,-29.60814 z m 72.01058,0 h 15.88089 c 9.31576,0 16.81555,13.20479 16.81555,29.60814 0,16.40333 -7.49979,29.60812 -16.81555,29.60812 H 223.7869 c -9.31575,0 -16.81554,-13.20479 -16.81554,-29.60812 0,-16.40335 7.49979,-29.60814 16.81554,-29.60814 z m 69.58632,0 h 15.88089 c 9.31575,0 16.81554,13.20479 16.81554,29.60814 0,16.40333 -7.49979,29.60812 -16.81554,29.60812 h -15.88089 c -9.31576,0 -16.81555,-13.20479 -16.81555,-29.60812 0,-16.40335 7.49979,-29.60814 16.81555,-29.60814 z m 72.01059,0 h 15.88088 c 9.31576,0 16.81555,13.20479 16.81555,29.60814 0,16.40333 -7.49979,29.60812 -16.81555,29.60812 h -15.88088 c -9.31576,0 -16.81554,-13.20479 -16.81554,-29.60812 0,-16.40335 7.49978,-29.60814 16.81554,-29.60814 z m -213.60749,84.85311 h 15.88088 c 9.31576,0 16.81554,13.20479 16.81554,29.60814 0,16.40335 -7.49978,29.61035 -16.81554,29.61035 h -15.88088 c -9.31576,0 -16.81555,-13.207 -16.81555,-29.61035 0,-16.40335 7.49979,-29.60814 16.81555,-29.60814 z m 72.01058,0 h 15.88089 c 9.31576,0 16.81555,13.20479 16.81555,29.60814 0,16.40335 -7.49979,29.61035 -16.81555,29.61035 H 223.7869 c -9.31575,0 -16.81554,-13.207 -16.81554,-29.61035 0,-16.40335 7.49979,-29.60814 16.81554,-29.60814 z m 69.58632,0 h 15.88089 c 9.31575,0 16.81554,13.20479 16.81554,29.60814 0,16.40335 -7.49979,29.61035 -16.81554,29.61035 h -15.88089 c -9.31576,0 -16.81555,-13.207 -16.81555,-29.61035 0,-16.40335 7.49979,-29.60814 16.81555,-29.60814 z m 72.01059,0 h 15.88088 c 9.31576,0 16.81555,13.20479 16.81555,29.60814 0,16.40335 -7.49979,29.61035 -16.81555,29.61035 h -15.88088 c -9.31576,0 -16.81554,-13.207 -16.81554,-29.61035 0,-16.40335 7.49978,-29.60814 16.81554,-29.60814 z m -213.60749,84.85312 h 15.88088 c 9.31576,0 16.81554,13.20701 16.81554,29.61036 0,16.40335 -7.49978,29.60813 -16.81554,29.60813 h -15.88088 c -9.31576,0 -16.81555,-13.20478 -16.81555,-29.60813 0,-16.40335 7.49979,-29.61036 16.81555,-29.61036 z m 72.01058,0 h 15.88089 c 9.31576,0 16.81555,13.20701 16.81555,29.61036 0,16.40335 -7.49979,29.60813 -16.81555,29.60813 H 223.7869 c -9.31575,0 -16.81554,-13.20478 -16.81554,-29.60813 0,-16.40335 7.49979,-29.61036 16.81554,-29.61036 z m 69.58632,0 h 15.88089 c 9.31575,0 16.81554,13.20701 16.81554,29.61036 0,16.40335 -7.49979,29.60813 -16.81554,29.60813 h -15.88089 c -9.31576,0 -16.81555,-13.20478 -16.81555,-29.60813 0,-16.40335 7.49979,-29.61036 16.81555,-29.61036 z m 72.01059,0 h 15.88088 c 9.31576,0 16.81555,13.20701 16.81555,29.61036 0,16.40335 -7.49979,29.60813 -16.81555,29.60813 h -15.88088 c -9.31576,0 -16.81554,-13.20478 -16.81554,-29.60813 0,-16.40335 7.49978,-29.61036 16.81554,-29.61036 z m -213.60749,84.85534 h 15.88088 c 9.31576,0 16.81554,13.20478 16.81554,29.60813 0,16.40335 -7.49978,29.60813 -16.81554,29.60813 h -15.88088 c -9.31576,0 -16.81555,-13.20478 -16.81555,-29.60813 0,-16.40335 7.49979,-29.60813 16.81555,-29.60813 z m 72.01058,0 h 15.88089 c 9.31576,0 16.81555,13.20478 16.81555,29.60813 0,16.40335 -7.49979,29.60813 -16.81555,29.60813 H 223.7869 c -9.31575,0 -16.81554,-13.20478 -16.81554,-29.60813 0,-16.40335 7.49979,-29.60813 16.81554,-29.60813 z m 69.58632,0 h 15.88089 c 9.31575,0 16.81554,13.20478 16.81554,29.60813 0,16.40335 -7.49979,29.60813 -16.81554,29.60813 h -15.88089 c -9.31576,0 -16.81555,-13.20478 -16.81555,-29.60813 0,-16.40335 7.49979,-29.60813 16.81555,-29.60813 z m 72.01059,0 h 15.88088 c 9.31576,0 16.81555,13.20478 16.81555,29.60813 0,16.40335 -7.49979,29.60813 -16.81555,29.60813 h -15.88088 c -9.31576,0 -16.81554,-13.20478 -16.81554,-29.60813 0,-16.40335 7.49978,-29.60813 16.81554,-29.60813 z"
       style="fill:#64648c;stroke-width:4.40735"
       id="path21"
       transform="matrix(0.57620552,-0.52354765,0.52354765,0.57620552,-18.659124,203.63323)"
       inkscape:label="slapper" /><path
       id="rect30"
       style="display:inline;fill:#824a22;stroke-width:1.0096"
       d="m 365.5044,173.46866 c 4.01711,0 7.2511,5.71266 7.2511,12.80865 0,0 -3.48295,74.0041 0,167.46487 3.48295,93.46077 22.46984,139.33274 -7.2511,139.33274 -29.72094,0 -10.13243,-45.67143 -7.2511,-139.33274 2.88133,-93.66131 0,-167.46487 0,-167.46487 0,-7.09599 3.23399,-12.80865 7.2511,-12.80865 z"
       sodipodi:nodetypes="sszzzss"
       inkscape:label="stick"
       transform="matrix(1.6234065,-1.4781281,1.4781281,1.6234065,-487.81414,571.1036)" /></g><style
     type="text/css"
     id="style1">
	.st0{fill:#00003C;}
	.st1{fill:#64648C;}
	.st2{fill:#1ED2AF;}
</style><style
     type="text/css"
     id="style1-53">
	.st0{fill:#00003C;}
	.st1{fill:#64648C;}
	.st2{fill:#1ED2AF;}
</style><style
     type="text/css"
     id="style1-3">
	.st0{fill:#00003C;}
	.st1{fill:#64648C;}
	.st2{fill:#1ED2AF;}
</style><style
     type="text/css"
     id="style1-0">
	.st0{fill:#00003C;}
	.st1{fill:#64648C;}
	.st2{fill:#1ED2AF;}
</style><style
     type="text/css"
     id="style1-5">
	.st0{fill:#00003C;}
	.st1{fill:#64648C;}
	.st2{fill:#1ED2AF;}
</style><style
     type="text/css"
     id="style1-7">
	.st0{fill:#00003C;}
	.st1{fill:#64648C;}
	.st2{fill:#1ED2AF;}
</style></svg>
