<?xml version="1.0" encoding="UTF-8" standalone="no"?>
<!-- Created with Inkscape (http://www.inkscape.org/) -->

<svg
   width="512"
   height="512"
   viewBox="0 0 512 512"
   version="1.1"
   id="svg1"
   inkscape:version="1.4 (e7c3feb100, 2024-10-09)"
   sodipodi:docname="reel-fire_extinguisher.svg.2025_04_19_21_57_16.0.svg"
   xml:space="preserve"
   xmlns:inkscape="http://www.inkscape.org/namespaces/inkscape"
   xmlns:sodipodi="http://sodipodi.sourceforge.net/DTD/sodipodi-0.dtd"
   xmlns="http://www.w3.org/2000/svg"
   xmlns:svg="http://www.w3.org/2000/svg"><sodipodi:namedview
     id="namedview1"
     pagecolor="#cccccc"
     bordercolor="#ffffff"
     borderopacity="1"
     inkscape:showpageshadow="0"
     inkscape:pageopacity="0"
     inkscape:pagecheckerboard="1"
     inkscape:deskcolor="#505050"
     inkscape:document-units="px"
     inkscape:zoom="1.3579774"
     inkscape:cx="153.53716"
     inkscape:cy="178.94259"
     inkscape:window-width="1920"
     inkscape:window-height="1174"
     inkscape:window-x="0"
     inkscape:window-y="1"
     inkscape:window-maximized="1"
     inkscape:current-layer="layer1" /><defs
     id="defs1"><inkscape:path-effect
       effect="perspective-envelope"
       up_left_point="71.439922,129.73169"
       up_right_point="85.464355,129.73169"
       down_left_point="57.179024,261.72491"
       down_right_point="98.873856,261.72491"
       id="path-effect2"
       is_visible="true"
       lpeversion="1"
       deform_type="perspective"
       horizontal_mirror="false"
       vertical_mirror="false"
       overflow_perspective="false" /><inkscape:path-effect
       effect="bend_path"
       id="path-effect1"
       is_visible="true"
       lpeversion="1"
       bendpath="m 153.0146,405.21521 c 0,0 16.5819,-21.95307 7.03093,-94.31244 -8.1714,-61.90755 -15.93069,-71.61972 -21.12759,-129.56435 -3.76827,-42.01573 5.60623,-64.4042 15.1315,-76.44276 12.42262,-15.700391 35.04255,-18.894415 35.04255,-18.894415 h 25.72172"
       prop_scale="1"
       scale_y_rel="false"
       vertical="false"
       hide_knot="false"
       bendpath-nodetypes="cssscc" /><inkscape:path-effect
       effect="skeletal"
       id="path-effect32"
       is_visible="true"
       lpeversion="1"
       pattern="M 0,0 H 1"
       copytype="single_stretched"
       prop_scale="1"
       scale_y_rel="false"
       spacing="0"
       normal_offset="0"
       tang_offset="0"
       prop_units="false"
       vertical_pattern="false"
       hide_knot="false"
       fuse_tolerance="0" /><linearGradient
       id="swatch30"
       inkscape:swatch="solid"><stop
         style="stop-color:#00003c;stop-opacity:1;"
         offset="0"
         id="stop30" /></linearGradient><inkscape:perspective
       sodipodi:type="inkscape:persp3d"
       inkscape:vp_x="-921.45338 : 548.76418 : 1"
       inkscape:vp_y="0 : 8086.478 : 0"
       inkscape:vp_z="1562.2865 : 784.10626 : 1"
       inkscape:persp3d-origin="405.99715 : -136.9237 : 1"
       id="perspective1" /><inkscape:path-effect
       effect="powerstroke"
       message=""
       id="path-effect6"
       is_visible="true"
       lpeversion="1.3"
       scale_width="1"
       interpolator_type="CubicBezierJohan"
       interpolator_beta="0.2"
       start_linecap_type="zerowidth"
       end_linecap_type="zerowidth"
       offset_points="6.9999954,3.3004764e-15"
       linejoin_type="extrp_arc"
       miter_limit="4"
       not_jump="false"
       sort_points="true" /><inkscape:path-effect
       effect="fill_between_many"
       method="bsplinespiro"
       autoreverse="false"
       close="false"
       join="false"
       linkedpaths="#path6,0,1"
       id="path-effect7" /></defs><style
     type="text/css"
     id="style1">
	.st0{fill:#00003C;}
	.st1{fill:#64648C;}
	.st2{fill:#1ED2AF;}
</style><style
     type="text/css"
     id="style1-53">
	.st0{fill:#00003C;}
	.st1{fill:#64648C;}
	.st2{fill:#1ED2AF;}
</style><style
     type="text/css"
     id="style1-3">
	.st0{fill:#00003C;}
	.st1{fill:#64648C;}
	.st2{fill:#1ED2AF;}
</style><style
     type="text/css"
     id="style1-0">
	.st0{fill:#00003C;}
	.st1{fill:#64648C;}
	.st2{fill:#1ED2AF;}
</style><style
     type="text/css"
     id="style1-5">
	.st0{fill:#00003C;}
	.st1{fill:#64648C;}
	.st2{fill:#1ED2AF;}
</style><style
     type="text/css"
     id="style1-7">
	.st0{fill:#00003C;}
	.st1{fill:#64648C;}
	.st2{fill:#1ED2AF;}
</style><g
     inkscape:groupmode="layer"
     id="layer1"
     inkscape:label="fire_extinguisher"
     transform="matrix(1.0655736,0.4226493,-0.4226493,1.0655736,111.02217,-145.81957)"><g
       id="g7"
       transform="matrix(1.1160299,0,0,1,-34.775924,73.682967)"
       inkscape:label="tank"><path
         id="path12"
         style="fill:#ad0000;stroke-width:14.137"
         d="m 260.54493,62.04112 c -36.20115,-2.25e-4 -65.54836,25.46353 -65.54883,42.49936 v 292.69986 c 4.7e-4,17.03583 29.34769,30.84592 65.54883,30.8457 36.20114,2.2e-4 65.54835,-13.80987 65.54882,-30.8457 V 104.54048 C 326.09328,87.504652 296.74607,62.040898 260.54493,62.04112 Z m -11.42579,304.88281 c -0.77722,0.0598 -1.55208,0.12625 -2.32421,0.19922 0.77213,-0.073 1.54699,-0.13939 2.32421,-0.19922 z m 22.85157,0 c 0.77722,0.0598 1.55209,0.12625 2.32422,0.19922 -0.77213,-0.073 -1.547,-0.13939 -2.32422,-0.19922 z m -35.8418,1.72266 c -0.61355,0.12516 -1.223,0.25473 -1.82812,0.38867 0.60512,-0.13394 1.21457,-0.26351 1.82812,-0.38867 z m 48.83203,0 c 0.61355,0.12516 1.223,0.25473 1.82813,0.38867 -0.60513,-0.13394 -1.21458,-0.26351 -1.82813,-0.38867 z m -59.9707,2.73047 c -0.38253,0.10625 -0.76276,0.21433 -1.14063,0.32422 0.37787,-0.10989 0.7581,-0.21797 1.14063,-0.32422 z m 71.10937,0 c 0.38253,0.10625 0.76276,0.21433 1.14063,0.32422 -0.37787,-0.10989 -0.7581,-0.21797 -1.14063,-0.32422 z m -80.9707,3.6914 c -0.57607,0.26138 -1.14192,0.5277 -1.69727,0.79883 0.55535,-0.27113 1.1212,-0.53745 1.69727,-0.79883 z m 90.83203,0 c 0.57607,0.26138 1.14192,0.5277 1.69727,0.79883 -0.55535,-0.27113 -1.1212,-0.53745 -1.69727,-0.79883 z m -99.68945,4.9043 c -0.23366,0.17728 -0.46348,0.35568 -0.68945,0.53516 0.22597,-0.17948 0.45579,-0.35788 0.68945,-0.53516 z m 108.54687,0 c 0.23366,0.17728 0.46349,0.35568 0.68946,0.53516 -0.22597,-0.17948 -0.4558,-0.35788 -0.68946,-0.53516 z m -114.20703,4.91211 c -0.28615,0.28704 -0.56287,0.57614 -0.83008,0.86719 0.26721,-0.29105 0.54393,-0.58015 0.83008,-0.86719 z m 119.86719,0 c 0.28615,0.28704 0.56287,0.57614 0.83008,0.86719 -0.26721,-0.29105 -0.54393,-0.58015 -0.83008,-0.86719 z m -123.9375,5.89453 c -0.15278,0.35688 -0.29213,0.71501 -0.41797,1.07422 0.12584,-0.35921 0.26519,-0.71734 0.41797,-1.07422 z m 128.00781,0 c 0.15278,0.35688 0.29213,0.71501 0.41797,1.07422 -0.12584,-0.35921 -0.26519,-0.71734 -0.41797,-1.07422 z"
         sodipodi:nodetypes="ccccccccccccccccccccccccccccccccccccccccccccccccc"
         inkscape:label="body" /><g
         id="g20"
         inkscape:label="exterior"
         transform="translate(4.5449257,-54.019427)"><path
           id="path15"
           style="baseline-shift:baseline;display:inline;overflow:visible;vector-effect:none;fill:#ffffff;fill-opacity:1;stroke-width:0.593586;enable-background:accumulate;stop-color:#000000;stop-opacity:1"
           d="M 194.99609,153.70601 V 260.9433 c 4.7e-4,6.00249 29.34769,10.8684 65.54883,10.86832 36.20114,8e-5 65.54836,-4.86583 65.54883,-10.86832 V 153.70601 c -4.7e-4,6.00249 -29.34769,10.86839 -65.54883,10.86831 -36.20114,8e-5 -65.54836,-4.86582 -65.54883,-10.86831 z"
           inkscape:label="white lable"
           transform="translate(-4.5449257,54.019427)" /><path
           d="m 194.9961,312.04344 v 22.77734 c 4.7e-4,6.00249 29.34769,10.86727 65.54883,10.86719 36.20114,8e-5 65.54836,-4.8647 65.54883,-10.86719 v -22.77734 c -4.7e-4,6.00249 -29.34769,10.86727 -65.54883,10.86719 -36.20114,8e-5 -65.54836,-4.8647 -65.54883,-10.86719 z"
           style="baseline-shift:baseline;display:inline;overflow:visible;vector-effect:none;fill:#000000;fill-opacity:1;stroke-width:0.593586;enable-background:accumulate;stop-color:#000000;stop-opacity:1"
           id="path20"
           inkscape:label="black band"
           transform="translate(-4.5449257,54.019427)" /></g><rect
         style="fill:#ad0000;fill-opacity:1;stroke-width:18.2949"
         id="rect20"
         width="31.726467"
         height="46.614655"
         x="240.13676"
         y="102.35223"
         inkscape:label="neck"
         transform="matrix(0.89603334,0,0,1,31.160387,-73.682967)" /></g><path
       id="rect32"
       style="fill:#000000;fill-opacity:1;stroke-width:25.4892"
       inkscape:label="spray tube"
       d="m 214.71484,75.783203 -26.98437,0.181512 -14.70703,3.665075 c -9.91235,3.4181 -19.55635,9.107317 -26.98828,17.529656 -7.29487,8.801744 -11.87345,18.879604 -14.45508,28.970414 -4.29965,16.62265 -4.45657,33.49389 -2.83985,49.59859 1.09258,11.45588 2.49843,22.94652 4.42969,34.42127 1.48769,8.81506 3.29062,17.49973 5.18946,26.08639 1.94293,8.79693 3.90833,17.49508 5.62109,26.14322 2.32179,11.70935 4.26509,23.51142 5.93359,35.37283 3.1591,22.53914 5.03198,44.9788 0.40625,65.91269 l -5.42969,14.33394 -48.473117,77.89903 49.617657,23.62144 20.18722,-95.67197 3.69168,-15.08911 c 5.25836,-24.8086 3.60896,-49.78246 0.26172,-73.51601 -1.70666,-12.14252 -3.70518,-24.27784 -6.10156,-36.37207 -1.77765,-8.96135 -3.76908,-17.78854 -5.70117,-26.53008 -1.86333,-8.44101 -3.61101,-16.82654 -5.01758,-25.18799 -1.84465,-10.93405 -3.19343,-21.99702 -4.25977,-33.13785 -1.34623,-14.9076 -1.36088,-29.66691 2.32227,-43.26585 2.229,-8.12145 5.53669,-15.77123 10.64453,-21.68426 3.84893,-4.96148 10.27823,-8.5575 17.3418,-11.248248 l 11.04882,-3.028866 24.27149,0.179678 z"
       sodipodi:nodetypes="ccccccccccccccccccccccccccc" /><g
       id="g30"
       inkscape:label="handle"
       transform="translate(-98.825211,2.4376912)"><rect
         style="fill:#7d7d7d;fill-opacity:1;stroke-width:16.1686"
         id="rect29"
         width="149.42937"
         height="20.437853"
         x="332.62915"
         y="54.308826" /><rect
         style="fill:#7d7d7d;fill-opacity:1;stroke-width:15.8223"
         id="rect30"
         width="143.09654"
         height="20.437853"
         x="331.57025"
         y="-123.11922"
         transform="rotate(29.642456)" /><rect
         style="fill:#7d7d7d;fill-opacity:1;stroke-width:9.126"
         id="rect31"
         width="47.604713"
         height="20.437853"
         x="305.61432"
         y="73.344627" /><path
         d="M 393.82979,49.159107 A 15.044311,15.044311 0 0 0 378.78552,64.20337 15.044311,15.044311 0 0 0 393.82979,79.247628 15.044311,15.044311 0 0 0 408.87405,64.20337 15.044311,15.044311 0 0 0 393.82979,49.159107 Z m 0,1.668982 A 13.374999,13.374999 0 0 1 407.20401,64.20337 13.374999,13.374999 0 0 1 393.82979,77.577587 13.374999,13.374999 0 0 1 380.4545,64.20337 13.374999,13.374999 0 0 1 393.82979,50.828089 Z"
         style="fill:#595959;fill-opacity:1;stroke-width:11.6015"
         id="path7"
         inkscape:label="safety pin"
         transform="matrix(1.5058464,0,0,1.5058464,-196.40363,-23.743232)" /></g><g
       id="g26"
       inkscape:label="pressure meter"
       transform="matrix(1.5058464,0,0,1.5058464,-295.22884,-21.305541)"><circle
         style="fill:#7d7d7d;fill-opacity:1;stroke-width:14.137"
         id="path25"
         cx="366.05914"
         cy="82.118454"
         r="18.332254" /><circle
         style="fill:#ad0000;fill-opacity:1;stroke-width:12.5684"
         id="circle25"
         cx="366.05914"
         cy="82.118454"
         r="16.298113" /><path
         d="m 366.05915,70.204456 -1.46305,7.304862 a 4.858808,4.858808 0 0 1 1.46305,-0.249029 4.858808,4.858808 0 0 1 1.45915,0.225683 z"
         style="fill:#ffe800;stroke-width:4.82015"
         id="path28" /><path
         id="path29"
         style="fill:#7d7d7d;stroke-width:3.74689"
         d="m 366.05915,77.260289 a 4.858808,4.858808 0 0 0 -1.46305,0.249029 4.858808,4.858808 0 0 0 -3.39562,4.609638 4.858808,4.858808 0 0 0 3.39562,4.609638 4.858808,4.858808 0 0 0 1.46305,0.249029 4.858808,4.858808 0 0 0 1.46305,-0.249029 4.858808,4.858808 0 0 0 3.39561,-4.609638 4.858808,4.858808 0 0 0 -3.39951,-4.632984 4.858808,4.858808 0 0 0 -1.45915,-0.225683 z" /></g></g><style
     type="text/css"
     id="style1-535">
	.st0{fill:#00003C;}
	.st1{fill:#64648C;}
	.st2{fill:#1ED2AF;}
</style><style
     type="text/css"
     id="style1-3-2">
	.st0{fill:#00003C;}
	.st1{fill:#64648C;}
	.st2{fill:#1ED2AF;}
</style><style
     type="text/css"
     id="style1-0-9">
	.st0{fill:#00003C;}
	.st1{fill:#64648C;}
	.st2{fill:#1ED2AF;}
</style><style
     type="text/css"
     id="style1-5-1">
	.st0{fill:#00003C;}
	.st1{fill:#64648C;}
	.st2{fill:#1ED2AF;}
</style></svg>
