<?xml version="1.0" encoding="UTF-8" standalone="no"?>
<!-- Created with Inkscape (http://www.inkscape.org/) -->

<svg
   width="512"
   height="512"
   viewBox="0 0 512 512"
   version="1.1"
   id="svg1"
   inkscape:version="1.4 (e7c3feb100, 2024-10-09)"
   sodipodi:docname="reel-lumi_mascot.svg"
   xml:space="preserve"
   xmlns:inkscape="http://www.inkscape.org/namespaces/inkscape"
   xmlns:sodipodi="http://sodipodi.sourceforge.net/DTD/sodipodi-0.dtd"
   xmlns="http://www.w3.org/2000/svg"
   xmlns:svg="http://www.w3.org/2000/svg"><sodipodi:namedview
     id="namedview1"
     pagecolor="#505050"
     bordercolor="#ffffff"
     borderopacity="1"
     inkscape:showpageshadow="0"
     inkscape:pageopacity="0"
     inkscape:pagecheckerboard="1"
     inkscape:deskcolor="#505050"
     inkscape:document-units="px"
     inkscape:zoom="1.8554688"
     inkscape:cx="255.73052"
     inkscape:cy="279.17473"
     inkscape:window-width="1920"
     inkscape:window-height="1174"
     inkscape:window-x="0"
     inkscape:window-y="1"
     inkscape:window-maximized="1"
     inkscape:current-layer="svg1" /><defs
     id="defs1" /><g
     inkscape:label="Layer 1"
     inkscape:groupmode="layer"
     id="layer1"><g
       id="g23"
       transform="matrix(8.8597877,0,0,8.8597877,-569.20567,30.601771)">
		<g
   id="g21">
			<path
   class="st2"
   d="m 89.9,23.1 -0.2,0.4 -0.6,1.5 c -3.2,7.3 -4,13.9 -1.9,14.9 2.2,0.9 6.5,-4.2 9.7,-11.4 l 0.6,-1.5 0.2,-0.4 z"
   id="path13" />
			<g
   id="g20">
				<path
   class="st2"
   d="m 85.2,44.5 c -0.4,-0.2 -0.9,0 -1.1,0.4 l -1.6,3.6 c -0.2,0.4 0,0.9 0.4,1.1 0.4,0.2 0.9,0 1.1,-0.4 l 1.6,-3.6 c 0.2,-0.4 0,-0.9 -0.4,-1.1 z"
   id="path14" />
				<path
   class="st2"
   d="m 90.6,45 c -0.2,-0.4 -0.7,-0.6 -1.1,-0.4 -0.4,0.2 -0.6,0.7 -0.4,1.1 l 1.7,3.7 c 0.1,0.2 0.2,0.3 0.4,0.4 0.2,0.1 0.5,0.1 0.7,0 0.4,-0.2 0.6,-0.7 0.4,-1.1 z"
   id="path15" />
				<path
   class="st2"
   d="m 102.7,39.2 -3.1,-2.5 c -0.4,-0.3 -0.9,-0.2 -1.2,0.1 -0.3,0.4 -0.2,0.9 0.1,1.2 l 3.1,2.5 c 0.1,0 0.1,0.1 0.2,0.1 0.3,0.1 0.7,0.1 1,-0.2 0.3,-0.4 0.3,-0.9 -0.1,-1.2 z"
   id="path16" />
				<path
   class="st2"
   d="m 98.6,44.3 -2.7,-2.9 c -0.3,-0.3 -0.8,-0.4 -1.2,0 -0.3,0.3 -0.4,0.8 0,1.2 l 2.7,2.9 c 0.1,0.1 0.2,0.2 0.3,0.2 0.3,0.1 0.6,0.1 0.9,-0.2 0.3,-0.3 0.3,-0.9 0,-1.2 z"
   id="path17" />
				<path
   class="st2"
   d="m 81.1,40.9 c 0.4,-0.1 0.9,0.1 1,0.5 0.1,0.4 -0.1,0.9 -0.5,1 l -3.9,1.3 c -0.2,0.1 -0.4,0.1 -0.6,0 -0.2,-0.1 -0.4,-0.3 -0.5,-0.5 -0.1,-0.4 0.1,-0.9 0.5,-1 z"
   id="path18" />
				<path
   class="st2"
   d="m 77.2,28 3.9,0.6 c 0.5,0.1 0.8,0.5 0.7,0.9 -0.1,0.5 -0.5,0.8 -0.9,0.7 L 77,29.6 c -0.1,0 -0.1,0 -0.2,-0.1 -0.3,-0.1 -0.5,-0.5 -0.5,-0.9 0,-0.4 0.5,-0.7 0.9,-0.6 z"
   id="path19" />
				<path
   class="st2"
   d="m 76.2,34.5 h 3.9 c 0.5,0 0.8,0.4 0.8,0.8 0,0.5 -0.4,0.8 -0.8,0.8 h -3.9 c -0.1,0 -0.2,0 -0.3,-0.1 -0.3,-0.1 -0.5,-0.4 -0.5,-0.8 0,-0.3 0.4,-0.7 0.8,-0.7 z"
   id="path20" />
			</g>
		</g>
		<g
   id="g22">
			<path
   class="st0"
   d="m 120.3,37.5 -6.8,-9 c 2,-0.2 3.7,-1 4.9,-2.4 0.3,-0.4 0.2,-0.9 -0.1,-1.2 l -13,-10.5 c 0,0 0,-0.1 0.1,-0.1 0.8,-1.9 0.7,-3.9 -0.3,-5.6 0,0 0,0 0,0 l 3.8,-2.8 c 0.4,-0.3 0.4,-0.8 0.2,-1.2 -0.3,-0.4 -0.8,-0.4 -1.2,-0.2 l -3.8,2.8 c -0.6,-0.6 -1.2,-1.1 -2,-1.4 -0.8,-0.3 -1.6,-0.5 -2.4,-0.5 L 99.2,0.7 C 99.1,0.3 98.7,0 98.2,0 97.7,0 97.4,0.5 97.5,0.9 L 98,5.6 c -1.8,0.5 -3.5,1.7 -4.3,3.6 0,0 0,0.1 0,0.1 L 77.1,6.9 c -0.5,-0.1 -0.9,0.2 -0.9,0.7 -0.3,1.8 0.3,3.6 1.5,5.2 l -11.2,1.1 c -0.2,0 -0.4,0.1 -0.5,0.3 -0.1,0.2 -0.2,0.4 -0.2,0.6 0.3,3.2 2.1,6 5,8 0.7,0.5 1.5,0.9 2.3,1.2 2.4,1.1 5.2,1.5 8,1.2 l 4.3,-0.4 c -0.1,0.3 -0.2,0.6 -0.3,0.9 0,0 0,0.1 0,0.1 -0.6,1.6 -1,3.2 -1.4,4.7 -0.4,1.7 -0.6,3.3 -0.6,4.8 -0.1,3.9 0.9,6.5 2.9,7.4 1.9,0.8 4.4,0 7.1,-2.5 0,0 0.1,-0.1 0.1,-0.1 0,0 0,0 0.1,-0.1 0.1,0 0.1,-0.1 0.2,-0.1 2.2,-2.2 4.3,-5.3 6.1,-8.9 l 2.6,3.4 c 1.7,2.3 3.9,4 6.3,5.1 0.8,0.3 1.6,0.6 2.4,0.8 3.4,0.8 6.8,0.2 9.3,-1.7 0.3,-0.3 0.4,-0.8 0.1,-1.1 z M 100,12.8 c 0,0 0,-0.1 0.1,-0.1 0,-0.1 0.1,-0.2 0.1,-0.3 l 16.4,13.2 c -1,0.9 -2.5,1.3 -4.1,1.2 0,0 -0.1,0 -0.1,0 -0.4,0 -0.7,-0.1 -1.1,-0.1 -0.4,-0.1 -0.8,-0.2 -1.2,-0.3 -1.3,-0.4 -2.6,-1.1 -3.8,-2.1 l -2.6,-2.1 c -2.5,-2 -4,-4.8 -4,-7.2 0,-0.5 0,-0.9 0.1,-1.3 v 0 c -0.1,-0.3 0,-0.6 0.2,-0.9 -0.1,0.1 0,0.1 0,0 z M 77.8,8.7 98.6,11.8 c 0,0.1 -0.1,0.2 -0.1,0.3 v 0 c 0,0 0,0.1 0,0.1 -0.1,0.3 -0.3,0.5 -0.4,0.7 -0.2,0.4 -0.5,0.7 -0.9,1 -1.8,1.6 -4.8,2.4 -8,1.9 L 85.9,15.3 C 84.4,15.1 83,14.6 81.8,13.9 81.4,13.7 81.1,13.5 80.8,13.2 80.5,13 80.2,12.7 80,12.5 c 0,0 -0.1,0 -0.1,-0.1 C 78.5,11.3 77.8,10 77.8,8.7 Z M 87.1,23 c -0.3,0.1 -0.6,0.1 -1,0.2 -0.1,0 -0.3,0 -0.4,0.1 L 81,23.7 C 77.6,24 74.3,23.3 71.8,21.5 69.5,19.9 68,17.8 67.5,15.4 l 11.6,-1.2 c 0.8,0.7 1.8,1.3 2.9,1.8 1.1,0.5 2.2,0.8 3.5,1 l 3.3,0.5 c 2.8,0.4 5.4,0 7.5,-1.1 -0.4,0.9 -1,1.7 -1.6,2.4 v 0 c -1.1,1.2 -2.5,2.3 -4.2,3.1 -0.3,0.1 -0.6,0.3 -1,0.4 0,0 -0.1,0 -0.1,0 -0.4,0.1 -0.8,0.3 -1.2,0.4 h -0.1 c -0.4,0.2 -0.7,0.3 -1,0.3 z m 5.3,15.5 -2.9,-1.3 c -0.4,-0.2 -0.9,0 -1.1,0.4 -0.2,0.4 0,0.9 0.4,1.1 0,0 2.2,1 2.2,1 -1.8,1.4 -3.3,2 -4.4,1.5 -1.3,-0.6 -2,-2.7 -1.9,-5.8 0,-1.1 0.2,-2.3 0.4,-3.5 l 4.3,1.9 c 0.4,0.2 0.9,0 1.1,-0.4 0.2,-0.4 0,-0.9 -0.4,-1.1 l -4.6,-2 c 0.2,-1 0.5,-2 0.9,-3 v 0 l 7.5,3.3 c 0.4,0.2 0.9,0 1.1,-0.4 0.2,-0.4 0,-0.9 -0.4,-1.1 L 87,25.8 c 0.1,-0.3 0.3,-0.7 0.4,-1 0.8,-0.1 1.5,-0.3 2.2,-0.6 0.3,-0.1 0.5,-0.2 0.8,-0.3 l 6.7,2.9 c 0.1,0.3 0.2,0.5 0.3,0.8 0.3,0.7 0.7,1.4 1.1,2 -1.8,3.5 -3.9,6.6 -6.1,8.9 z m 18.8,0.3 c -3,-0.7 -5.8,-2.6 -7.9,-5.3 l -2.8,-3.7 c -0.1,-0.1 -0.2,-0.2 -0.3,-0.4 C 100,29.1 99.8,28.9 99.7,28.6 99.5,28.3 99.3,28 99.2,27.7 l -0.1,-0.1 c -0.2,-0.4 -0.4,-0.8 -0.5,-1.1 0,0 0,-0.1 0,-0.1 -0.1,-0.3 -0.2,-0.6 -0.3,-1 -0.5,-1.5 -0.7,-3.1 -0.6,-4.6 0,-0.2 0,-0.3 0,-0.5 0.1,-1 0.3,-2 0.7,-2.9 0.6,2.2 2.1,4.5 4.3,6.2 l 2.6,2.1 c 1,0.8 2,1.4 3.1,1.9 1.1,0.5 2.2,0.8 3.3,0.9 l 7,9.3 c -2.2,1.3 -4.8,1.6 -7.5,1 z"
   id="path21" />
		</g>
	</g></g><style
     type="text/css"
     id="style1">
	.st0{fill:#00003C;}
	.st1{fill:#64648C;}
	.st2{fill:#1ED2AF;}
</style></svg>
