<?xml version="1.0" encoding="UTF-8" standalone="no"?>
<!-- Created with Inkscape (http://www.inkscape.org/) -->

<svg
   width="512"
   height="512"
   viewBox="0 0 512 512"
   version="1.1"
   id="svg1"
   inkscape:version="1.4 (e7c3feb100, 2024-10-09)"
   sodipodi:docname="reel-eraser.svg"
   xml:space="preserve"
   xmlns:inkscape="http://www.inkscape.org/namespaces/inkscape"
   xmlns:sodipodi="http://sodipodi.sourceforge.net/DTD/sodipodi-0.dtd"
   xmlns:xlink="http://www.w3.org/1999/xlink"
   xmlns="http://www.w3.org/2000/svg"
   xmlns:svg="http://www.w3.org/2000/svg"><sodipodi:namedview
     id="namedview1"
     pagecolor="#ffffff"
     bordercolor="#ffffff"
     borderopacity="1"
     inkscape:showpageshadow="0"
     inkscape:pageopacity="0"
     inkscape:pagecheckerboard="1"
     inkscape:deskcolor="#505050"
     inkscape:document-units="px"
     inkscape:zoom="1.2463306"
     inkscape:cx="199.38531"
     inkscape:cy="162.87814"
     inkscape:window-width="1920"
     inkscape:window-height="1174"
     inkscape:window-x="0"
     inkscape:window-y="1"
     inkscape:window-maximized="1"
     inkscape:current-layer="layer1" /><defs
     id="defs1"><inkscape:path-effect
       effect="powerstroke"
       message=""
       id="path-effect6"
       is_visible="true"
       lpeversion="1.3"
       scale_width="1"
       interpolator_type="CubicBezierJohan"
       interpolator_beta="0.2"
       start_linecap_type="zerowidth"
       end_linecap_type="zerowidth"
       offset_points="6.9999954,3.3004764e-15"
       linejoin_type="extrp_arc"
       miter_limit="4"
       not_jump="false"
       sort_points="true" /><pattern
       inkscape:collect="always"
       xlink:href="#stripes-grid"
       preserveAspectRatio="xMidYMid"
       id="pattern10"
       patternTransform="matrix(8.0410008,0,0,6.2578493,-4285.3265,150.5622)"
       x="0"
       y="0" /><pattern
       patternUnits="userSpaceOnUse"
       width="3"
       height="10"
       patternTransform="scale(2)"
       preserveAspectRatio="xMidYMid"
       id="stripes-grid"
       style="fill:#00003c"
       x="0"
       y="0"
       inkscape:label="Stripes grid"
       inkscape:collect="always"
       inkscape:isstock="true"><rect
         style="stroke:none"
         x="0"
         y="0"
         width="2"
         height="10"
         id="rect134-4" /></pattern><inkscape:path-effect
       effect="fill_between_many"
       method="bsplinespiro"
       autoreverse="false"
       close="false"
       join="false"
       linkedpaths="#path6,0,1"
       id="path-effect7" /></defs><g
     inkscape:groupmode="layer"
     id="layer2"
     inkscape:label="robot"
     style="display:none"><g
       id="g4"
       transform="matrix(1.1054886,0,0,1.1054886,-27.00508,-27.211702)"><rect
         style="fill:#00003c;fill-opacity:1;stroke:none;stroke-width:24.2105;stroke-dasharray:none"
         id="rect4"
         width="27.497341"
         height="120.13471"
         x="242.25133"
         y="66.483711"
         rx="0"
         ry="0" /><g
         id="g3"
         transform="translate(0,40.480173)"><rect
           style="fill:none;stroke:#00003c;stroke-width:15;stroke-dasharray:none"
           id="rect3"
           width="410.62494"
           height="190.74928"
           x="50.687531"
           y="160.62535"
           rx="60.099792"
           ry="47.10746" /><g
           id="g1"><rect
             style="fill:#7d7d7d;stroke:#ffffff;stroke-width:1.04995;stroke-opacity:0"
             id="rect1"
             width="355.78381"
             height="355.78381"
             x="78.108086"
             y="78.108086"
             ry="59.414448"
             rx="68.55513" /><g
             id="g2"
             transform="translate(9.5279846)"
             style="stroke:#00003c;stroke-width:10;stroke-dasharray:none;stroke-opacity:1"><circle
               style="fill:#1ed2af;fill-opacity:1;stroke:#00003c;stroke-width:10;stroke-dasharray:none;stroke-opacity:1"
               id="circle1"
               cx="166.16458"
               cy="208.81721"
               r="46.682777" /><circle
               style="fill:#1ed2af;fill-opacity:1;stroke:#00003c;stroke-width:10;stroke-dasharray:none;stroke-opacity:1"
               id="circle2"
               cx="326.77945"
               cy="208.81721"
               r="46.682777" /></g></g><rect
           style="fill:url(#pattern10);fill-opacity:1;stroke:#00003c;stroke-width:8.45137;stroke-dasharray:none;stroke-opacity:1"
           id="rect2"
           width="211.78435"
           height="80.550247"
           x="150.10783"
           y="308.70312"
           rx="25.584747"
           ry="24.4984" /></g><circle
         style="fill:#1ed2af;fill-opacity:1;stroke:none;stroke-width:15;stroke-dasharray:none"
         id="path4"
         cx="256"
         cy="66.483711"
         r="25.463335" /></g></g><g
     inkscape:groupmode="layer"
     id="layer1"
     inkscape:label="eraser"
     transform="matrix(0.9074213,-0.22345242,0.22345242,0.9074213,-53.354188,92.848696)"><path
       id="rect6"
       style="fill:#64648c;stroke-width:19.719"
       transform="matrix(0.90506548,-0.42527224,-0.45174607,0.89214656,0,0)"
       d="m 300.36213,417.3269 h 318.64103 c 26.46818,0 47.7765,21.30832 47.7765,47.7765 v 92.68643 c 0,26.46818 -21.30832,47.7765 -47.7765,47.7765 l -77.90619,119.84513 -214.653,-102.21874 c -14.74849,-7.0233 -43.10325,-20.72509 -43.10325,-20.72509 -18.01479,-6.8303 -30.75509,-24.2115 -30.75509,-44.6778 V 465.1034 c 0,-26.46818 21.30832,-47.7765 47.7765,-47.7765 z"
       sodipodi:nodetypes="ssssscscsss" /><path
       d="m 360.80382,114.19772 12.41414,-5.8137 c 0,0 3.54426,-1.50437 7.80959,-2.84496 4.26533,-1.34059 7.25158,-1.10059 7.25158,-1.10059 l 182.08295,2e-5 -308.75871,141.73957 H 80.103232 Z"
       id="path7"
       style="fill:#00003c;fill-opacity:1"
       inkscape:original-d="M 0,0"
       inkscape:path-effect="#path-effect7" /><path
       style="fill:#ffffff;fill-opacity:1;fill-rule:nonzero;stroke:none;stroke-width:14.137;stroke-opacity:1"
       d="m 360.80382,114.19772 c 3.14006,-1.47053 7.41478,-3.47243 12.41414,-5.8137 0,0 3.09488,-1.36313 7.80959,-2.84496 4.11716,-1.29402 7.25158,-1.10059 7.25158,-1.10059 60.40554,1e-5 121.67741,1e-5 182.08295,2e-5 -105.55115,48.45459 -209.54237,96.19306 -308.75867,141.73955 -64.83396,2e-5 -126.19937,2e-5 -181.500178,2e-5 C 193.14507,193.02783 289.8017,147.58163 360.80253,114.19833 Z m 0,0 c -2.6e-4,1.2e-4 -0.001,4.9e-4 -0.001,6.1e-4 -71.00083,33.3833 -167.65746,78.8295 -280.699298,131.97973 55.300808,0 116.666218,0 181.500158,0 99.21632,-45.54651 203.20754,-93.28498 308.7587,-141.73957 -60.40555,-1e-5 -121.67742,-1e-5 -182.08296,-2e-5 0,0 -3.13442,-0.19343 -7.25158,1.10059 -4.71471,1.48183 -7.80959,2.84496 -7.80959,2.84496 -4.99936,2.34127 -9.27408,4.34317 -12.41414,5.8137 z"
       id="path6"
       inkscape:path-effect="#path-effect6"
       inkscape:original-d="m 360.80382,114.19772 12.41414,-5.8137 c 0,0 3.54426,-1.50437 7.80959,-2.84496 4.26533,-1.34059 7.25158,-1.10059 7.25158,-1.10059 l 182.08295,2e-5 -308.75871,141.73957 H 80.103232 Z"
       inkscape:linked-fill="path7"
       sodipodi:nodetypes="cczccccc" /><rect
       style="fill:#1ed2af;fill-opacity:1;stroke-width:19.719"
       id="rect5"
       width="414.19403"
       height="188.23943"
       x="516.5791"
       y="543.16846"
       ry="47.776501"
       transform="matrix(0.90506548,-0.42527224,-0.45174607,0.89214656,0,0)" /></g><style
     type="text/css"
     id="style1">
	.st0{fill:#00003C;}
	.st1{fill:#64648C;}
	.st2{fill:#1ED2AF;}
</style></svg>
