<?xml version="1.0" encoding="UTF-8" standalone="no"?>
<!-- Created with Inkscape (http://www.inkscape.org/) -->

<svg
   width="512"
   height="512"
   viewBox="0 0 512 512"
   version="1.1"
   id="svg1"
   inkscape:version="1.4 (e7c3feb100, 2024-10-09)"
   sodipodi:docname="reel-fly_swat.svg"
   xml:space="preserve"
   xmlns:inkscape="http://www.inkscape.org/namespaces/inkscape"
   xmlns:sodipodi="http://sodipodi.sourceforge.net/DTD/sodipodi-0.dtd"
   xmlns="http://www.w3.org/2000/svg"
   xmlns:svg="http://www.w3.org/2000/svg"><sodipodi:namedview
     id="namedview1"
     pagecolor="#ffffff"
     bordercolor="#ffffff"
     borderopacity="1"
     inkscape:showpageshadow="0"
     inkscape:pageopacity="0"
     inkscape:pagecheckerboard="1"
     inkscape:deskcolor="#505050"
     inkscape:document-units="px"
     inkscape:zoom="1.0698804"
     inkscape:cx="424.81383"
     inkscape:cy="161.70031"
     inkscape:window-width="1920"
     inkscape:window-height="1174"
     inkscape:window-x="0"
     inkscape:window-y="1"
     inkscape:window-maximized="1"
     inkscape:current-layer="g41" /><defs
     id="defs1" /><g
     inkscape:label="squish"
     inkscape:groupmode="layer"
     id="layer1"><g
       id="g41"
       transform="rotate(-36.819438,322.51716,422.80413)"><g
         id="g40" /><g
         id="g42"
         transform="matrix(1.2875718,-0.12395052,0.12395052,1.2875718,-114.16384,-6.6250862)"><g
           id="g14"
           transform="rotate(36.819438,378.89419,383.11427)"><path
             class="st2"
             d="m 264.89561,155.19078 c -32.2781,-42.77208 55.42954,-70.292294 -11.76588,-67.661184 -39.86901,1.561121 9.88147,109.733804 -67.15126,63.267414 -25.27811,-15.24784 54.86999,-47.47369 19.41148,-53.839495 -53.93121,-9.682175 -0.73689,22.674835 -33.04638,39.875865 -13.28925,7.07496 -20.73323,-66.017661 -43.59877,-53.6753 -42.22334,22.79136 51.25003,53.94758 26.72824,77.10292 -20.69591,19.54264 -67.17227,-32.46086 -70.783425,17.04906 -1.446652,19.83431 66.971525,-15.11907 85.799175,7.09309 17.881,21.09529 -57.8224,49.51762 -34.29665,59.21847 61.38491,25.31206 -0.63836,-46.34273 73.20832,-29.49831 54.82348,12.50521 64.61732,131.2024 86.99462,116.79602 28.28856,-18.21201 15.79347,-52.8017 -27.96467,-83.75339 -30.83221,-21.80874 -27.79423,-51.10312 -17.37562,-65.62309 15.197,-21.17931 48.32616,35.73037 50.06129,19.49719 6.34771,-59.38582 -11.9499,-13.68796 -36.22047,-45.84926 z"
             id="path12"
             style="fill:#00003c;fill-opacity:1;stroke-width:14.6998"
             sodipodi:nodetypes="ssssssssssssssss"
             inkscape:transform-center-x="-58.764717"
             inkscape:transform-center-y="-38.60784" /><path
             class="st2"
             d="m 187.902,134.54838 c -31.90079,14.07232 -41.87375,-50.825732 -46.64127,-4.5279 -2.8287,27.46985 74.74841,13.61582 36.0098,57.51401 -12.71199,14.4051 -26.58451,-46.21209 -34.31438,-23.21926 -11.75689,34.97134 15.17531,4.7079 23.59856,29.92489 3.46458,10.37201 -46.40847,1.89033 -40.33356,19.76784 11.21787,33.0125 41.26096,-24.93352 54.44559,-3.92139 11.12758,17.73384 -28.3618,39.77352 4.57836,51.41805 13.19624,4.66495 -3.6514,-48.46136 13.11603,-57.17723 15.92435,-8.27764 27.67169,48.60396 36.4833,34.36473 22.99181,-37.15395 -31.22386,-8.16003 -12.71359,-55.38018 13.74195,-35.05605 94.50902,-19.71803 86.99874,-37.64549 -9.49423,-22.66326 -33.96852,-20.56023 -59.03782,3.53083 -17.66396,16.97468 -37.06654,9.47032 -45.81654,-0.32551 -12.76303,-14.28855 28.72694,-26.31896 17.98025,-30.51266 -39.31471,-15.3418 -10.36655,5.60801 -34.35347,16.18927 z"
             id="path13"
             style="stroke-width:10.1466"
             sodipodi:nodetypes="ssssssssssssssss" /></g><path
           d="m 325.93896,56.744629 c -10.0175,0 -18.08285,9.59974 -18.08285,21.5259 v 89.127431 c 0,11.92615 8.06535,21.5282 18.08285,21.5282 h 79.13278 c 10.01751,0 18.08092,-9.60205 18.08092,-21.5282 V 78.270529 c 0,-11.92616 -8.06341,-21.5259 -18.08092,-21.5259 z m -1.06779,12.15279 h 22.01744 c 2.18102,0 3.93652,2.08998 3.93652,4.68656 0,2.59658 -1.7555,4.68655 -3.93652,4.68655 h -22.01744 c -2.18103,0 -3.93652,-2.08997 -3.93652,-4.68655 0,-2.59658 1.75549,-4.68656 3.93652,-4.68656 z m 59.24901,0 h 22.01936 c 2.18103,0 3.93653,2.08998 3.93653,4.68656 0,2.59658 -1.7555,4.68655 -3.93653,4.68655 h -22.01936 c -2.18105,0 -3.93653,-2.08997 -3.93653,-4.68655 0,-2.59658 1.75548,-4.68656 3.93653,-4.68656 z m -59.24901,19.69965 h 22.01744 c 2.18102,0 3.93652,2.08997 3.93652,4.68655 0,2.5966 -1.7555,4.68886 -3.93652,4.68886 h -22.01744 c -2.18103,0 -3.93652,-2.09226 -3.93652,-4.68886 0,-2.59658 1.75549,-4.68655 3.93652,-4.68655 z m 59.24901,0 h 22.01936 c 2.18103,0 3.93653,2.08997 3.93653,4.68655 0,2.5966 -1.7555,4.68886 -3.93653,4.68886 h -22.01936 c -2.18105,0 -3.93653,-2.09226 -3.93653,-4.68886 0,-2.59658 1.75548,-4.68655 3.93653,-4.68655 z m -59.24901,19.699641 h 22.01744 c 2.18102,0 3.93652,2.09227 3.93652,4.68887 0,2.59658 -1.7555,4.68655 -3.93652,4.68655 h -22.01744 c -2.18103,0 -3.93652,-2.08997 -3.93652,-4.68655 0,-2.5966 1.75549,-4.68887 3.93652,-4.68887 z m 59.24901,0 h 22.01936 c 2.18103,0 3.93653,2.09227 3.93653,4.68887 0,2.59658 -1.7555,4.68655 -3.93653,4.68655 h -22.01936 c -2.18105,0 -3.93653,-2.08997 -3.93653,-4.68655 0,-2.5966 1.75548,-4.68887 3.93653,-4.68887 z m -59.24901,19.70196 h 22.01744 c 2.18102,0 3.93652,2.08996 3.93652,4.68655 0,2.59658 -1.7555,4.68656 -3.93652,4.68656 h -22.01744 c -2.18103,0 -3.93652,-2.08998 -3.93652,-4.68656 0,-2.59659 1.75549,-4.68655 3.93652,-4.68655 z m 59.24901,0 h 22.01936 c 2.18103,0 3.93653,2.08996 3.93653,4.68655 0,2.59658 -1.7555,4.68656 -3.93653,4.68656 h -22.01936 c -2.18105,0 -3.93653,-2.08998 -3.93653,-4.68656 0,-2.59659 1.75548,-4.68655 3.93653,-4.68655 z m -59.24901,19.69964 h 22.01744 c 2.18102,0 3.93652,2.08996 3.93652,4.68656 0,2.59658 -1.7555,4.68655 -3.93652,4.68655 h -22.01744 c -2.18103,0 -3.93652,-2.08997 -3.93652,-4.68655 0,-2.5966 1.75549,-4.68656 3.93652,-4.68656 z m 59.24901,0 h 22.01936 c 2.18103,0 3.93653,2.08996 3.93653,4.68656 0,2.59658 -1.7555,4.68655 -3.93653,4.68655 h -22.01936 c -2.18105,0 -3.93653,-2.08997 -3.93653,-4.68655 0,-2.5966 1.75548,-4.68656 3.93653,-4.68656 z m -59.24901,19.69965 h 22.01744 c 2.18102,0 3.93652,2.08997 3.93652,4.68655 0,2.59658 -1.7555,4.68655 -3.93652,4.68655 h -22.01744 c -2.18103,0 -3.93652,-2.08997 -3.93652,-4.68655 0,-2.59658 1.75549,-4.68655 3.93652,-4.68655 z m 59.24901,0 h 22.01936 c 2.18103,0 3.93653,2.08997 3.93653,4.68655 0,2.59658 -1.7555,4.68655 -3.93653,4.68655 h -22.01936 c -2.18105,0 -3.93653,-2.08997 -3.93653,-4.68655 0,-2.59658 1.75548,-4.68655 3.93653,-4.68655 z"
           style="fill:#7d7d7d;fill-opacity:1;stroke-width:1.08066"
           id="path29" /><path
           id="rect30"
           style="fill:#824a22;stroke-width:1.0096"
           d="m 365.5044,173.46866 c 4.01711,0 7.2511,5.71266 7.2511,12.80865 0,0 -3.48295,74.0041 0,167.46487 3.48295,93.46077 22.46984,139.33274 -7.2511,139.33274 -29.72094,0 -10.13243,-45.67143 -7.2511,-139.33274 2.88133,-93.66131 0,-167.46487 0,-167.46487 0,-7.09599 3.23399,-12.80865 7.2511,-12.80865 z"
           sodipodi:nodetypes="sszzzss" /></g></g></g><g
     inkscape:label="swatter"
     inkscape:groupmode="layer"
     id="g12"
     style="display:none"><g
       id="g11"
       transform="matrix(8.8597877,0,0,8.8597877,-569.20567,30.601771)">
		<g
   id="g9">
			<path
   class="st2"
   d="m 89.9,23.1 -0.2,0.4 -0.6,1.5 c -3.2,7.3 -4,13.9 -1.9,14.9 2.2,0.9 6.5,-4.2 9.7,-11.4 l 0.6,-1.5 0.2,-0.4 z"
   id="path1" />
			<g
   id="g8">
				<path
   class="st2"
   d="m 85.2,44.5 c -0.4,-0.2 -0.9,0 -1.1,0.4 l -1.6,3.6 c -0.2,0.4 0,0.9 0.4,1.1 0.4,0.2 0.9,0 1.1,-0.4 l 1.6,-3.6 c 0.2,-0.4 0,-0.9 -0.4,-1.1 z"
   id="path2" />
				<path
   class="st2"
   d="m 90.6,45 c -0.2,-0.4 -0.7,-0.6 -1.1,-0.4 -0.4,0.2 -0.6,0.7 -0.4,1.1 l 1.7,3.7 c 0.1,0.2 0.2,0.3 0.4,0.4 0.2,0.1 0.5,0.1 0.7,0 0.4,-0.2 0.6,-0.7 0.4,-1.1 z"
   id="path3" />
				<path
   class="st2"
   d="m 102.7,39.2 -3.1,-2.5 c -0.4,-0.3 -0.9,-0.2 -1.2,0.1 -0.3,0.4 -0.2,0.9 0.1,1.2 l 3.1,2.5 c 0.1,0 0.1,0.1 0.2,0.1 0.3,0.1 0.7,0.1 1,-0.2 0.3,-0.4 0.3,-0.9 -0.1,-1.2 z"
   id="path4" />
				<path
   class="st2"
   d="m 98.6,44.3 -2.7,-2.9 c -0.3,-0.3 -0.8,-0.4 -1.2,0 -0.3,0.3 -0.4,0.8 0,1.2 l 2.7,2.9 c 0.1,0.1 0.2,0.2 0.3,0.2 0.3,0.1 0.6,0.1 0.9,-0.2 0.3,-0.3 0.3,-0.9 0,-1.2 z"
   id="path5" />
				<path
   class="st2"
   d="m 81.1,40.9 c 0.4,-0.1 0.9,0.1 1,0.5 0.1,0.4 -0.1,0.9 -0.5,1 l -3.9,1.3 c -0.2,0.1 -0.4,0.1 -0.6,0 -0.2,-0.1 -0.4,-0.3 -0.5,-0.5 -0.1,-0.4 0.1,-0.9 0.5,-1 z"
   id="path6" />
				<path
   class="st2"
   d="m 77.2,28 3.9,0.6 c 0.5,0.1 0.8,0.5 0.7,0.9 -0.1,0.5 -0.5,0.8 -0.9,0.7 L 77,29.6 c -0.1,0 -0.1,0 -0.2,-0.1 -0.3,-0.1 -0.5,-0.5 -0.5,-0.9 0,-0.4 0.5,-0.7 0.9,-0.6 z"
   id="path7" />
				<path
   class="st2"
   d="m 76.2,34.5 h 3.9 c 0.5,0 0.8,0.4 0.8,0.8 0,0.5 -0.4,0.8 -0.8,0.8 h -3.9 c -0.1,0 -0.2,0 -0.3,-0.1 -0.3,-0.1 -0.5,-0.4 -0.5,-0.8 0,-0.3 0.4,-0.7 0.8,-0.7 z"
   id="path8" />
			</g>
		</g>
		<g
   id="g10">
			<path
   class="st0"
   d="m 120.3,37.5 -6.8,-9 c 2,-0.2 3.7,-1 4.9,-2.4 0.3,-0.4 0.2,-0.9 -0.1,-1.2 l -13,-10.5 c 0,0 0,-0.1 0.1,-0.1 0.8,-1.9 0.7,-3.9 -0.3,-5.6 0,0 0,0 0,0 l 3.8,-2.8 c 0.4,-0.3 0.4,-0.8 0.2,-1.2 -0.3,-0.4 -0.8,-0.4 -1.2,-0.2 l -3.8,2.8 c -0.6,-0.6 -1.2,-1.1 -2,-1.4 -0.8,-0.3 -1.6,-0.5 -2.4,-0.5 L 99.2,0.7 C 99.1,0.3 98.7,0 98.2,0 97.7,0 97.4,0.5 97.5,0.9 L 98,5.6 c -1.8,0.5 -3.5,1.7 -4.3,3.6 0,0 0,0.1 0,0.1 L 77.1,6.9 c -0.5,-0.1 -0.9,0.2 -0.9,0.7 -0.3,1.8 0.3,3.6 1.5,5.2 l -11.2,1.1 c -0.2,0 -0.4,0.1 -0.5,0.3 -0.1,0.2 -0.2,0.4 -0.2,0.6 0.3,3.2 2.1,6 5,8 0.7,0.5 1.5,0.9 2.3,1.2 2.4,1.1 5.2,1.5 8,1.2 l 4.3,-0.4 c -0.1,0.3 -0.2,0.6 -0.3,0.9 0,0 0,0.1 0,0.1 -0.6,1.6 -1,3.2 -1.4,4.7 -0.4,1.7 -0.6,3.3 -0.6,4.8 -0.1,3.9 0.9,6.5 2.9,7.4 1.9,0.8 4.4,0 7.1,-2.5 0,0 0.1,-0.1 0.1,-0.1 0,0 0,0 0.1,-0.1 0.1,0 0.1,-0.1 0.2,-0.1 2.2,-2.2 4.3,-5.3 6.1,-8.9 l 2.6,3.4 c 1.7,2.3 3.9,4 6.3,5.1 0.8,0.3 1.6,0.6 2.4,0.8 3.4,0.8 6.8,0.2 9.3,-1.7 0.3,-0.3 0.4,-0.8 0.1,-1.1 z M 100,12.8 c 0,0 0,-0.1 0.1,-0.1 0,-0.1 0.1,-0.2 0.1,-0.3 l 16.4,13.2 c -1,0.9 -2.5,1.3 -4.1,1.2 0,0 -0.1,0 -0.1,0 -0.4,0 -0.7,-0.1 -1.1,-0.1 -0.4,-0.1 -0.8,-0.2 -1.2,-0.3 -1.3,-0.4 -2.6,-1.1 -3.8,-2.1 l -2.6,-2.1 c -2.5,-2 -4,-4.8 -4,-7.2 0,-0.5 0,-0.9 0.1,-1.3 v 0 c -0.1,-0.3 0,-0.6 0.2,-0.9 -0.1,0.1 0,0.1 0,0 z M 77.8,8.7 98.6,11.8 c 0,0.1 -0.1,0.2 -0.1,0.3 v 0 c 0,0 0,0.1 0,0.1 -0.1,0.3 -0.3,0.5 -0.4,0.7 -0.2,0.4 -0.5,0.7 -0.9,1 -1.8,1.6 -4.8,2.4 -8,1.9 L 85.9,15.3 C 84.4,15.1 83,14.6 81.8,13.9 81.4,13.7 81.1,13.5 80.8,13.2 80.5,13 80.2,12.7 80,12.5 c 0,0 -0.1,0 -0.1,-0.1 C 78.5,11.3 77.8,10 77.8,8.7 Z M 87.1,23 c -0.3,0.1 -0.6,0.1 -1,0.2 -0.1,0 -0.3,0 -0.4,0.1 L 81,23.7 C 77.6,24 74.3,23.3 71.8,21.5 69.5,19.9 68,17.8 67.5,15.4 l 11.6,-1.2 c 0.8,0.7 1.8,1.3 2.9,1.8 1.1,0.5 2.2,0.8 3.5,1 l 3.3,0.5 c 2.8,0.4 5.4,0 7.5,-1.1 -0.4,0.9 -1,1.7 -1.6,2.4 v 0 c -1.1,1.2 -2.5,2.3 -4.2,3.1 -0.3,0.1 -0.6,0.3 -1,0.4 0,0 -0.1,0 -0.1,0 -0.4,0.1 -0.8,0.3 -1.2,0.4 h -0.1 c -0.4,0.2 -0.7,0.3 -1,0.3 z m 5.3,15.5 -2.9,-1.3 c -0.4,-0.2 -0.9,0 -1.1,0.4 -0.2,0.4 0,0.9 0.4,1.1 0,0 2.2,1 2.2,1 -1.8,1.4 -3.3,2 -4.4,1.5 -1.3,-0.6 -2,-2.7 -1.9,-5.8 0,-1.1 0.2,-2.3 0.4,-3.5 l 4.3,1.9 c 0.4,0.2 0.9,0 1.1,-0.4 0.2,-0.4 0,-0.9 -0.4,-1.1 l -4.6,-2 c 0.2,-1 0.5,-2 0.9,-3 v 0 l 7.5,3.3 c 0.4,0.2 0.9,0 1.1,-0.4 0.2,-0.4 0,-0.9 -0.4,-1.1 L 87,25.8 c 0.1,-0.3 0.3,-0.7 0.4,-1 0.8,-0.1 1.5,-0.3 2.2,-0.6 0.3,-0.1 0.5,-0.2 0.8,-0.3 l 6.7,2.9 c 0.1,0.3 0.2,0.5 0.3,0.8 0.3,0.7 0.7,1.4 1.1,2 -1.8,3.5 -3.9,6.6 -6.1,8.9 z m 18.8,0.3 c -3,-0.7 -5.8,-2.6 -7.9,-5.3 l -2.8,-3.7 c -0.1,-0.1 -0.2,-0.2 -0.3,-0.4 C 100,29.1 99.8,28.9 99.7,28.6 99.5,28.3 99.3,28 99.2,27.7 l -0.1,-0.1 c -0.2,-0.4 -0.4,-0.8 -0.5,-1.1 0,0 0,-0.1 0,-0.1 -0.1,-0.3 -0.2,-0.6 -0.3,-1 -0.5,-1.5 -0.7,-3.1 -0.6,-4.6 0,-0.2 0,-0.3 0,-0.5 0.1,-1 0.3,-2 0.7,-2.9 0.6,2.2 2.1,4.5 4.3,6.2 l 2.6,2.1 c 1,0.8 2,1.4 3.1,1.9 1.1,0.5 2.2,0.8 3.3,0.9 l 7,9.3 c -2.2,1.3 -4.8,1.6 -7.5,1 z"
   id="path9" />
		</g>
	</g></g><style
     type="text/css"
     id="style1">
	.st0{fill:#00003C;}
	.st1{fill:#64648C;}
	.st2{fill:#1ED2AF;}
</style></svg>
