<?xml version="1.0" encoding="UTF-8" standalone="no"?>
<!-- Created with Inkscape (http://www.inkscape.org/) -->

<svg
   width="512"
   height="512"
   viewBox="0 0 512 512"
   version="1.1"
   id="svg1"
   inkscape:version="1.4 (e7c3feb100, 2024-10-09)"
   sodipodi:docname="reel-wrench.svg"
   xml:space="preserve"
   xmlns:inkscape="http://www.inkscape.org/namespaces/inkscape"
   xmlns:sodipodi="http://sodipodi.sourceforge.net/DTD/sodipodi-0.dtd"
   xmlns="http://www.w3.org/2000/svg"
   xmlns:svg="http://www.w3.org/2000/svg"><sodipodi:namedview
     id="namedview1"
     pagecolor="#ffffff"
     bordercolor="#ffffff"
     borderopacity="1"
     inkscape:showpageshadow="0"
     inkscape:pageopacity="0"
     inkscape:pagecheckerboard="1"
     inkscape:deskcolor="#505050"
     inkscape:document-units="px"
     inkscape:zoom="1.229857"
     inkscape:cx="75.211998"
     inkscape:cy="182.135"
     inkscape:window-width="1920"
     inkscape:window-height="1174"
     inkscape:window-x="0"
     inkscape:window-y="1"
     inkscape:window-maximized="1"
     inkscape:current-layer="layer2" /><defs
     id="defs1" /><g
     inkscape:groupmode="layer"
     id="layer2"
     inkscape:label="wrench"
     transform="matrix(-1.0300265,1.0424149,-1.0424149,-1.0300265,694.49819,316.81454)"><path
       d="M 39.708984,269.17187 H 59.539062 V 240.85352 Z"
       style="fill:#7d7d7d;stroke:#ffffff;stroke-width:1.29698;stroke-opacity:0"
       id="path21" /><path
       d="M 59.539062,240.85352 V 212.53711 H 39.708984 Z"
       style="fill:#7d7d7d;stroke:#ffffff;stroke-width:1.29698;stroke-opacity:0"
       id="path20" /><path
       d="M 114.14844,220.67383 H 80.71875 c -11.179551,0 -20.179688,9.00013 -20.179688,20.17969 0,11.17955 9.000137,20.17968 20.179688,20.17968 h 33.43359 l 20.17774,-20.17773 z"
       style="fill:#7d7d7d;stroke:#ffffff;stroke-width:1.29698;stroke-opacity:0"
       id="path25" /><path
       d="m 113.94374,220.59496 15.57452,20.26052 -15.57151,20.25659 h 269.08218 c 8.62745,0 15.57302,-9.03531 15.57302,-20.25855 0,-11.22325 -6.94557,-20.25856 -15.57302,-20.25856 z m 265.35321,10.51946 a 8.9088667,9.7409457 0 0 1 8.90791,9.7391 8.9088667,9.7409457 0 0 1 -8.90791,9.74104 8.9088667,9.7409457 0 0 1 -8.90942,-9.74104 8.9088667,9.7409457 0 0 1 8.90942,-9.7391 z"
       style="fill:#7d7d7d;stroke:#ffffff;stroke-width:0.880189;stroke-opacity:0"
       id="path24" /><path
       d="M 17.322266,180.9668 A 74.209206,74.209206 0 0 0 -7.8066406,212.53711 H 39.708984 59.539062 v 28.31641 28.31835 H 39.708984 -7.8066406 A 74.209206,74.209206 0 0 0 17.322266,300.74219 H 74.443359 L 114.15234,261.0332 H 80.71875 c -11.179551,0 -20.179688,-9.00013 -20.179688,-20.17968 0,-11.17956 9.000137,-20.17969 20.179688,-20.17969 h 33.42969 L 74.443359,180.9668 Z"
       style="fill:#7d7d7d;stroke:#ffffff;stroke-width:1.29698;stroke-opacity:0"
       id="path23" /></g><style
     type="text/css"
     id="style1">
	.st0{fill:#00003C;}
	.st1{fill:#64648C;}
	.st2{fill:#1ED2AF;}
</style></svg>
