<?xml version="1.0" encoding="UTF-8" standalone="no"?>
<!-- Created with Inkscape (http://www.inkscape.org/) -->

<svg
   width="512"
   height="512"
   viewBox="0 0 512 512"
   version="1.1"
   id="svg1"
   inkscape:version="1.4 (e7c3feb100, 2024-10-09)"
   sodipodi:docname="reel-robot.svg"
   xml:space="preserve"
   xmlns:inkscape="http://www.inkscape.org/namespaces/inkscape"
   xmlns:sodipodi="http://sodipodi.sourceforge.net/DTD/sodipodi-0.dtd"
   xmlns:xlink="http://www.w3.org/1999/xlink"
   xmlns="http://www.w3.org/2000/svg"
   xmlns:svg="http://www.w3.org/2000/svg"><sodipodi:namedview
     id="namedview1"
     pagecolor="#ffffff"
     bordercolor="#ffffff"
     borderopacity="1"
     inkscape:showpageshadow="0"
     inkscape:pageopacity="0"
     inkscape:pagecheckerboard="1"
     inkscape:deskcolor="#505050"
     inkscape:document-units="px"
     inkscape:zoom="1.2235345"
     inkscape:cx="257.0422"
     inkscape:cy="291.77763"
     inkscape:window-width="1920"
     inkscape:window-height="1174"
     inkscape:window-x="0"
     inkscape:window-y="1"
     inkscape:window-maximized="1"
     inkscape:current-layer="layer2" /><defs
     id="defs1"><pattern
       inkscape:collect="always"
       xlink:href="#stripes-grid"
       preserveAspectRatio="xMidYMid"
       id="pattern10"
       patternTransform="matrix(8.0410008,0,0,6.2578493,-4285.3265,150.5622)"
       x="0"
       y="0" /><pattern
       patternUnits="userSpaceOnUse"
       width="3"
       height="10"
       patternTransform="scale(2)"
       preserveAspectRatio="xMidYMid"
       id="stripes-grid"
       style="fill:#00003c"
       x="0"
       y="0"
       inkscape:label="Stripes grid"
       inkscape:collect="always"
       inkscape:isstock="true"><rect
         style="stroke:none"
         x="0"
         y="0"
         width="2"
         height="10"
         id="rect134-4" /></pattern></defs><g
     inkscape:label="squish"
     inkscape:groupmode="layer"
     id="layer1"
     style="display:none"><g
       id="g41"
       transform="rotate(-36.819438,322.51716,422.80413)"><g
         id="g40" /><g
         id="g42"
         transform="matrix(2.1854176,-0.21038334,0.21038334,2.1854176,-415.05098,55.894347)"><g
           id="g14"
           transform="rotate(36.819438,378.89419,383.11427)"><path
             class="st2"
             d="m 264.89561,155.19078 c -32.2781,-42.77208 55.42954,-70.292294 -11.76588,-67.661184 -39.86901,1.561121 9.88147,109.733804 -67.15126,63.267414 -25.27811,-15.24784 54.86999,-47.47369 19.41148,-53.839495 -53.93121,-9.682175 -0.73689,22.674835 -33.04638,39.875865 -13.28925,7.07496 -20.73323,-66.017661 -43.59877,-53.6753 -42.22334,22.79136 51.25003,53.94758 26.72824,77.10292 -20.69591,19.54264 -67.17227,-32.46086 -70.783425,17.04906 -1.446652,19.83431 66.971525,-15.11907 85.799175,7.09309 17.881,21.09529 -57.8224,49.51762 -34.29665,59.21847 61.38491,25.31206 -0.63836,-46.34273 73.20832,-29.49831 54.82348,12.50521 64.61732,131.2024 86.99462,116.79602 28.28856,-18.21201 15.79347,-52.8017 -27.96467,-83.75339 -30.83221,-21.80874 -27.79423,-51.10312 -17.37562,-65.62309 15.197,-21.17931 48.32616,35.73037 50.06129,19.49719 6.34771,-59.38582 -11.9499,-13.68796 -36.22047,-45.84926 z"
             id="path12"
             style="fill:#00003c;fill-opacity:1;stroke-width:14.6998"
             sodipodi:nodetypes="ssssssssssssssss"
             inkscape:transform-center-x="-58.764717"
             inkscape:transform-center-y="-38.60784" /><path
             class="st2"
             d="m 187.902,134.54838 c -31.90079,14.07232 -41.87375,-50.825732 -46.64127,-4.5279 -2.8287,27.46985 74.74841,13.61582 36.0098,57.51401 -12.71199,14.4051 -26.58451,-46.21209 -34.31438,-23.21926 -11.75689,34.97134 15.17531,4.7079 23.59856,29.92489 3.46458,10.37201 -46.40847,1.89033 -40.33356,19.76784 11.21787,33.0125 41.26096,-24.93352 54.44559,-3.92139 11.12758,17.73384 -28.3618,39.77352 4.57836,51.41805 13.19624,4.66495 -3.6514,-48.46136 13.11603,-57.17723 15.92435,-8.27764 27.67169,48.60396 36.4833,34.36473 22.99181,-37.15395 -31.22386,-8.16003 -12.71359,-55.38018 13.74195,-35.05605 94.50902,-19.71803 86.99874,-37.64549 -9.49423,-22.66326 -33.96852,-20.56023 -59.03782,3.53083 -17.66396,16.97468 -37.06654,9.47032 -45.81654,-0.32551 -12.76303,-14.28855 28.72694,-26.31896 17.98025,-30.51266 -39.31471,-15.3418 -10.36655,5.60801 -34.35347,16.18927 z"
             id="path13"
             style="stroke-width:10.1466"
             sodipodi:nodetypes="ssssssssssssssss" /></g><path
           d="m 325.93896,56.744629 c -10.0175,0 -18.08285,9.59974 -18.08285,21.5259 v 89.127431 c 0,11.92615 8.06535,21.5282 18.08285,21.5282 h 79.13278 c 10.01751,0 18.08092,-9.60205 18.08092,-21.5282 V 78.270529 c 0,-11.92616 -8.06341,-21.5259 -18.08092,-21.5259 z m -1.06779,12.15279 h 22.01744 c 2.18102,0 3.93652,2.08998 3.93652,4.68656 0,2.59658 -1.7555,4.68655 -3.93652,4.68655 h -22.01744 c -2.18103,0 -3.93652,-2.08997 -3.93652,-4.68655 0,-2.59658 1.75549,-4.68656 3.93652,-4.68656 z m 59.24901,0 h 22.01936 c 2.18103,0 3.93653,2.08998 3.93653,4.68656 0,2.59658 -1.7555,4.68655 -3.93653,4.68655 h -22.01936 c -2.18105,0 -3.93653,-2.08997 -3.93653,-4.68655 0,-2.59658 1.75548,-4.68656 3.93653,-4.68656 z m -59.24901,19.69965 h 22.01744 c 2.18102,0 3.93652,2.08997 3.93652,4.68655 0,2.5966 -1.7555,4.68886 -3.93652,4.68886 h -22.01744 c -2.18103,0 -3.93652,-2.09226 -3.93652,-4.68886 0,-2.59658 1.75549,-4.68655 3.93652,-4.68655 z m 59.24901,0 h 22.01936 c 2.18103,0 3.93653,2.08997 3.93653,4.68655 0,2.5966 -1.7555,4.68886 -3.93653,4.68886 h -22.01936 c -2.18105,0 -3.93653,-2.09226 -3.93653,-4.68886 0,-2.59658 1.75548,-4.68655 3.93653,-4.68655 z m -59.24901,19.699641 h 22.01744 c 2.18102,0 3.93652,2.09227 3.93652,4.68887 0,2.59658 -1.7555,4.68655 -3.93652,4.68655 h -22.01744 c -2.18103,0 -3.93652,-2.08997 -3.93652,-4.68655 0,-2.5966 1.75549,-4.68887 3.93652,-4.68887 z m 59.24901,0 h 22.01936 c 2.18103,0 3.93653,2.09227 3.93653,4.68887 0,2.59658 -1.7555,4.68655 -3.93653,4.68655 h -22.01936 c -2.18105,0 -3.93653,-2.08997 -3.93653,-4.68655 0,-2.5966 1.75548,-4.68887 3.93653,-4.68887 z m -59.24901,19.70196 h 22.01744 c 2.18102,0 3.93652,2.08996 3.93652,4.68655 0,2.59658 -1.7555,4.68656 -3.93652,4.68656 h -22.01744 c -2.18103,0 -3.93652,-2.08998 -3.93652,-4.68656 0,-2.59659 1.75549,-4.68655 3.93652,-4.68655 z m 59.24901,0 h 22.01936 c 2.18103,0 3.93653,2.08996 3.93653,4.68655 0,2.59658 -1.7555,4.68656 -3.93653,4.68656 h -22.01936 c -2.18105,0 -3.93653,-2.08998 -3.93653,-4.68656 0,-2.59659 1.75548,-4.68655 3.93653,-4.68655 z m -59.24901,19.69964 h 22.01744 c 2.18102,0 3.93652,2.08996 3.93652,4.68656 0,2.59658 -1.7555,4.68655 -3.93652,4.68655 h -22.01744 c -2.18103,0 -3.93652,-2.08997 -3.93652,-4.68655 0,-2.5966 1.75549,-4.68656 3.93652,-4.68656 z m 59.24901,0 h 22.01936 c 2.18103,0 3.93653,2.08996 3.93653,4.68656 0,2.59658 -1.7555,4.68655 -3.93653,4.68655 h -22.01936 c -2.18105,0 -3.93653,-2.08997 -3.93653,-4.68655 0,-2.5966 1.75548,-4.68656 3.93653,-4.68656 z m -59.24901,19.69965 h 22.01744 c 2.18102,0 3.93652,2.08997 3.93652,4.68655 0,2.59658 -1.7555,4.68655 -3.93652,4.68655 h -22.01744 c -2.18103,0 -3.93652,-2.08997 -3.93652,-4.68655 0,-2.59658 1.75549,-4.68655 3.93652,-4.68655 z m 59.24901,0 h 22.01936 c 2.18103,0 3.93653,2.08997 3.93653,4.68655 0,2.59658 -1.7555,4.68655 -3.93653,4.68655 h -22.01936 c -2.18105,0 -3.93653,-2.08997 -3.93653,-4.68655 0,-2.59658 1.75548,-4.68655 3.93653,-4.68655 z"
           style="fill:#7d7d7d;fill-opacity:1;stroke-width:1.08066"
           id="path29" /><path
           id="rect30"
           style="fill:#824a22;stroke-width:1.0096"
           d="m 365.5044,173.46866 c 4.01711,0 7.2511,5.71266 7.2511,12.80865 0,0 -3.48295,74.0041 0,167.46487 3.48295,93.46077 22.46984,139.33274 -7.2511,139.33274 -29.72094,0 -10.13243,-45.67143 -7.2511,-139.33274 2.88133,-93.66131 0,-167.46487 0,-167.46487 0,-7.09599 3.23399,-12.80865 7.2511,-12.80865 z"
           sodipodi:nodetypes="sszzzss" /></g></g></g><g
     inkscape:groupmode="layer"
     id="layer2"
     inkscape:label="robot"><g
       id="g4"
       transform="matrix(1.1054886,0,0,1.1054886,-27.00508,-27.211702)"><rect
         style="fill:#00003c;fill-opacity:1;stroke:none;stroke-width:24.2105;stroke-dasharray:none"
         id="rect4"
         width="27.497341"
         height="120.13471"
         x="242.25133"
         y="66.483711"
         rx="0"
         ry="0" /><g
         id="g3"
         transform="translate(0,40.480173)"><rect
           style="fill:none;stroke:#00003c;stroke-width:15;stroke-dasharray:none"
           id="rect3"
           width="410.62494"
           height="190.74928"
           x="50.687531"
           y="160.62535"
           rx="60.099792"
           ry="47.10746" /><g
           id="g1"><rect
             style="fill:#7d7d7d;stroke:#ffffff;stroke-width:1.04995;stroke-opacity:0"
             id="rect1"
             width="355.78381"
             height="355.78381"
             x="78.108086"
             y="78.108086"
             ry="59.414448"
             rx="68.55513" /><g
             id="g2"
             transform="translate(9.5279846)"
             style="stroke:#00003c;stroke-width:10;stroke-dasharray:none;stroke-opacity:1"><circle
               style="fill:#1ed2af;fill-opacity:1;stroke:#00003c;stroke-width:10;stroke-dasharray:none;stroke-opacity:1"
               id="circle1"
               cx="166.16458"
               cy="208.81721"
               r="46.682777" /><circle
               style="fill:#1ed2af;fill-opacity:1;stroke:#00003c;stroke-width:10;stroke-dasharray:none;stroke-opacity:1"
               id="circle2"
               cx="326.77945"
               cy="208.81721"
               r="46.682777" /></g></g><rect
           style="fill:url(#pattern10);fill-opacity:1;stroke:#00003c;stroke-width:8.45137;stroke-dasharray:none;stroke-opacity:1"
           id="rect2"
           width="211.78435"
           height="80.550247"
           x="150.10783"
           y="308.70312"
           rx="25.584747"
           ry="24.4984" /></g><circle
         style="fill:#1ed2af;fill-opacity:1;stroke:none;stroke-width:15;stroke-dasharray:none"
         id="path4"
         cx="256"
         cy="66.483711"
         r="25.463335" /></g></g><style
     type="text/css"
     id="style1">
	.st0{fill:#00003C;}
	.st1{fill:#64648C;}
	.st2{fill:#1ED2AF;}
</style></svg>
