<?xml version="1.0" encoding="UTF-8" standalone="no"?>
<!-- Created with Inkscape (http://www.inkscape.org/) -->

<svg
   width="512"
   height="512"
   viewBox="0 0 512 512"
   version="1.1"
   id="svg1"
   inkscape:version="1.4 (e7c3feb100, 2024-10-09)"
   sodipodi:docname="reel-coffee_mug.svg"
   xml:space="preserve"
   xmlns:inkscape="http://www.inkscape.org/namespaces/inkscape"
   xmlns:sodipodi="http://sodipodi.sourceforge.net/DTD/sodipodi-0.dtd"
   xmlns="http://www.w3.org/2000/svg"
   xmlns:svg="http://www.w3.org/2000/svg"><sodipodi:namedview
     id="namedview1"
     pagecolor="#ffffff"
     bordercolor="#ffffff"
     borderopacity="1"
     inkscape:showpageshadow="0"
     inkscape:pageopacity="0"
     inkscape:pagecheckerboard="1"
     inkscape:deskcolor="#505050"
     inkscape:document-units="px"
     inkscape:zoom="0.85775096"
     inkscape:cx="153.3079"
     inkscape:cy="292.62573"
     inkscape:window-width="1920"
     inkscape:window-height="1174"
     inkscape:window-x="0"
     inkscape:window-y="1"
     inkscape:window-maximized="1"
     inkscape:current-layer="layer1"
     showguides="false"><sodipodi:guide
       position="80.128543,297.51225"
       orientation="1,0"
       id="guide3"
       inkscape:locked="false" /></sodipodi:namedview><defs
     id="defs1"><inkscape:path-effect
       effect="powerstroke"
       message=""
       id="path-effect16"
       is_visible="true"
       lpeversion="1.3"
       scale_width="1"
       interpolator_type="CubicBezierJohan"
       interpolator_beta="0.2"
       start_linecap_type="zerowidth"
       end_linecap_type="zerowidth"
       offset_points="4,-16.085874"
       linejoin_type="extrp_arc"
       miter_limit="4"
       not_jump="false"
       sort_points="true" /><inkscape:path-effect
       effect="bspline"
       id="path-effect14"
       is_visible="true"
       lpeversion="1.3"
       weight="33.333333"
       steps="2"
       helper_size="0"
       apply_no_weight="true"
       apply_with_weight="true"
       only_selected="false"
       uniform="false" /><inkscape:path-effect
       effect="powerstroke"
       message=""
       id="path-effect12"
       is_visible="true"
       lpeversion="1.3"
       scale_width="1"
       interpolator_type="CubicBezierJohan"
       interpolator_beta="0.2"
       start_linecap_type="zerowidth"
       end_linecap_type="zerowidth"
       offset_points="4,-23.249567"
       linejoin_type="extrp_arc"
       miter_limit="4"
       not_jump="false"
       sort_points="true" /><inkscape:path-effect
       effect="bspline"
       id="path-effect10"
       is_visible="true"
       lpeversion="1.3"
       weight="33.333333"
       steps="2"
       helper_size="0"
       apply_no_weight="true"
       apply_with_weight="true"
       only_selected="false"
       uniform="false" /><inkscape:path-effect
       effect="powerstroke"
       message=""
       id="path-effect7"
       is_visible="true"
       lpeversion="1.3"
       scale_width="1"
       interpolator_type="CubicBezierJohan"
       interpolator_beta="0.2"
       start_linecap_type="zerowidth"
       end_linecap_type="zerowidth"
       offset_points="4,-16.085874"
       linejoin_type="extrp_arc"
       miter_limit="4"
       not_jump="false"
       sort_points="true" /><inkscape:path-effect
       effect="bspline"
       id="path-effect6"
       is_visible="true"
       lpeversion="1.3"
       weight="33.333333"
       steps="2"
       helper_size="0"
       apply_no_weight="true"
       apply_with_weight="true"
       only_selected="false"
       uniform="false" /><inkscape:path-effect
       effect="envelope"
       id="path-effect3"
       is_visible="true"
       lpeversion="1"
       yy="true"
       xx="false"
       bendpath1="m 0,48.7 c 0,0 55.724425,49.89774 180.05,49.89774 C 304.37558,98.59774 360.1,48.7 360.1,48.7"
       bendpath2="m 360.1,48.7 v 99.5"
       bendpath3="m 0,148.2 c 0,0 35.436435,43.06817 180.05,43.06817 144.61357,0 180.05,-43.06817 180.05,-43.06817"
       bendpath4="m 0,48.7 v 99.5"
       bendpath1-nodetypes="czc"
       bendpath3-nodetypes="czc" /><inkscape:path-effect
       effect="skeletal"
       id="path-effect2"
       is_visible="true"
       lpeversion="1"
       pattern="M 0,0 H 1"
       copytype="single_stretched"
       prop_scale="1"
       scale_y_rel="false"
       spacing="0"
       normal_offset="0"
       tang_offset="0"
       prop_units="false"
       vertical_pattern="false"
       hide_knot="false"
       fuse_tolerance="0" /><inkscape:path-effect
       effect="envelope"
       id="path-effect1"
       is_visible="true"
       lpeversion="1"
       yy="false"
       xx="false"
       bendpath1="M 0,48.7 H 360.1"
       bendpath2="m 360.1,48.7 v 99.5"
       bendpath3="M 0,148.2 H 360.1"
       bendpath4="m 0,48.7 v 99.5" /><inkscape:path-effect
       effect="powerstroke"
       message=""
       id="path-effect23"
       is_visible="true"
       lpeversion="1.3"
       scale_width="1"
       interpolator_type="CubicBezierJohan"
       interpolator_beta="0.2"
       start_linecap_type="zerowidth"
       end_linecap_type="zerowidth"
       offset_points="3,0"
       linejoin_type="extrp_arc"
       miter_limit="4"
       not_jump="false"
       sort_points="true" /><inkscape:path-effect
       effect="fill_between_many"
       method="bsplinespiro"
       autoreverse="false"
       close="false"
       join="false"
       linkedpaths="#path23,0,1"
       id="path-effect24" /><inkscape:path-effect
       effect="fill_between_many"
       method="bsplinespiro"
       autoreverse="false"
       close="false"
       join="false"
       linkedpaths="#path6,0,1"
       id="path-effect8" /></defs><style
     type="text/css"
     id="style1">
	.st0{fill:#00003C;}
	.st1{fill:#64648C;}
	.st2{fill:#1ED2AF;}
</style><g
     inkscape:groupmode="layer"
     id="layer1"
     inkscape:label="coffee_mug"
     transform="matrix(1.3987015,0,0,1.3987015,-123.94137,-71.935083)"><g
       id="g11"
       inkscape:label="handle"
       transform="matrix(1.1306532,0,0,1.1592059,-58.283812,-38.155803)"><path
         d="m 365.77539,210.91602 a 60.157439,59.163144 0 0 0 -60.1582,59.16406 60.157439,59.163144 0 0 0 60.1582,59.16015 60.157439,59.163144 0 0 0 60.1582,-59.16015 60.157439,59.163144 0 0 0 -60.1582,-59.16406 z m -1.06445,1.04492 a 49.468309,49.965439 0 0 1 49.4707,49.96679 49.468309,49.965439 0 0 1 -49.4707,49.96289 49.468309,49.965439 0 0 1 -49.4668,-49.96289 49.468309,49.965439 0 0 1 49.4668,-49.96679 z"
         style="fill:#64648c;fill-opacity:1;stroke-width:12.9408"
         id="path11" /><path
         d="m 364.71094,190.68555 a 70.532237,71.241045 0 0 0 -70.53125,71.24218 70.532237,71.241045 0 0 0 70.53125,71.23829 70.532237,71.241045 0 0 0 70.5332,-71.23829 70.532237,71.241045 0 0 0 -70.5332,-71.24218 z m 1.06445,20.23047 a 60.157439,59.163144 0 0 1 60.1582,59.16406 60.157439,59.163144 0 0 1 -60.1582,59.16015 60.157439,59.163144 0 0 1 -60.1582,-59.16015 60.157439,59.163144 0 0 1 60.1582,-59.16406 z"
         style="fill:#ffffff;stroke-width:15.5286"
         id="path10" /></g><g
       id="g12"
       inkscape:label="mug"><path
         id="path27"
         style="display:inline;fill:#64648c;fill-opacity:1;stroke-width:20"
         d="M 256,122.01953 A 136.54622,42.932976 0 0 0 119.45312,164.95312 136.54622,42.932976 0 0 0 120.11914,167.875 136.54622,42.932976 0 0 0 256,207.88672 136.54622,42.932976 0 0 0 391.88086,167.875 136.54622,42.932976 0 0 0 392.54688,164.95312 136.54622,42.932976 0 0 0 256,122.01953 Z"
         sodipodi:insensitive="true"
         inkscape:label="inner cup" /><ellipse
         style="display:inline;fill:#300a0a;fill-opacity:1;stroke-width:18.5683"
         id="ellipse24"
         cx="256"
         cy="191.59964"
         rx="126.77135"
         ry="39.85955"
         sodipodi:insensitive="true"
         inkscape:label="coffee" /><path
         id="path1"
         style="fill:#ffffff;fill-opacity:1;stroke-width:14.1371"
         d="m 119.76953,167.875 c 7.4513,34.34018 36.7203,169.69095 39.93359,185.06836 h 0.17383 c 3.43237,15.90538 45.42053,28.26423 96.12305,28.29297 50.70252,-0.0287 92.69068,-12.38759 96.12305,-28.29297 h 0.17383 l 39.9336,-185.06832 h -0.34961 C 387.00436,190.35799 327.67191,207.82913 256,207.88672 184.32809,207.82913 124.99564,190.35799 120.11914,167.875 Z"
         sodipodi:nodetypes="ccccccccccc"
         inkscape:label="outer cup" /></g><g
       id="g24"
       transform="translate(151.56354,182.44503)"
       inkscape:label="atlas logo"
       style="display:inline">
	<g
   id="g5"
   style="display:inline"
   transform="matrix(0.69810541,0,0,0.69810541,-21.62046,8.9274113)"
   sodipodi:insensitive="true">
				
				<path
   class="st0"
   d="m 131.61323,171.63944 c 0.0308,2.1574 0.99079,2.98584 3.30744,3.1442 4.70574,0.32166 9.42319,0.57703 14.14741,0.77523 0.0634,5.04202 0.14013,10.08062 0.23027,15.11581 -6.17539,-0.24074 -12.3491,-0.57272 -18.5099,-1.01856 -13.21783,-0.95653 -19.51781,-7.32291 -19.69033,-19.30021 -0.19236,-13.35429 -0.26923,-26.76252 -0.23061,-40.22469 -3.94916,-0.57663 -7.87969,-1.21654 -11.78857,-1.92393 0.01396,-5.0975 0.04246,-10.20406 0.08549,-15.31966 4.01534,0.76691 8.05226,1.4617 12.10749,2.08831 0.0677,-7.27661 0.16901,-14.56881 0.30393,-21.876606 6.59425,1.11483 13.22553,2.043616 19.87993,2.799933 -0.13161,7.181543 -0.2302,14.352353 -0.29577,21.512433 5.89596,0.59714 11.81874,1.06699 17.75873,1.42126 -0.0361,4.97371 -0.0593,9.94413 -0.0696,14.91126 -5.84277,-0.31531 -11.66657,-0.73551 -17.46223,-1.27326 -0.0353,13.09197 0.0402,26.14813 0.22628,39.16848 z"
   id="path2" />
				<path
   class="st0"
   d="m 205.94286,175.22309 c -0.13704,5.20459 -0.30663,10.41722 -0.50874,15.63786 -8.47401,0.26058 -16.94505,0.36172 -25.38412,0.36186 -1e-5,0 -3e-5,0 -4e-5,0 -6.16743,4e-5 -12.35194,-0.0539 -18.5422,-0.18454 -0.0637,-5.15117 -0.11769,-10.30447 -0.16204,-15.45991 4.02649,0.0904 8.05487,0.14513 12.08209,0.16969 -0.0727,-21.22836 -0.0804,-42.46941 -0.0229,-63.72315 -4.04015,-0.0456 -8.07958,-0.13911 -12.11528,-0.28406 0.0308,-4.51862 0.069,-9.03888 0.11454,-13.560765 6.21697,0.251796 12.43597,0.372271 18.64587,0.372308 1e-5,0 3e-5,0 4e-5,0 4.6968,7.8e-5 9.39881,-0.06875 14.10121,-0.211182 0.54056,25.633419 0.61185,51.377919 0.21389,77.233499 3.86077,-0.0854 7.72087,-0.20105 11.57772,-0.35161 z"
   id="path3" />
				<path
   class="st0"
   d="m 294.33138,163.06847 c -0.36797,5.55699 -0.82926,11.14882 -1.38387,16.77549 -10.04682,2.57009 -20.24317,4.58714 -30.53452,6.16097 0.27574,-3.06326 0.52602,-6.11851 0.75082,-9.16574 -6.21726,6.50985 -11.38073,10.87581 -25.77222,12.1632 -15.50875,1.38733 -21.25289,-4.07865 -20.80265,-19.10059 0.45723,-15.25508 8.44607,-20.73965 21.8349,-23.90354 6.75371,-1.6303 16.2459,-3.7711 26.21967,-6.11043 0.0184,-3.3023 0.006,-6.59475 -0.0385,-9.87737 -0.0296,-2.20309 -0.99343,-2.77129 -3.30284,-2.34584 -5.78269,1.06533 -11.61002,1.99032 -17.47282,2.78766 -2.45405,0.33375 -3.2929,1.28099 -3.27206,3.36195 0.0142,1.41673 0.0236,2.8348 0.0282,4.25421 -6.87988,0.85437 -13.80611,1.53999 -20.76403,2.07838 -0.003,-1.65713 -0.0111,-3.31303 -0.0238,-4.96769 -0.091,-11.88249 5.93513,-17.62143 19.46313,-19.40597 8.75232,-1.15456 17.43553,-2.59795 26.01897,-4.36742 13.02781,-2.68568 19.53951,0.8242 19.75889,13.22703 0.23713,13.40613 -0.0931,27.01145 -0.99082,40.81595 3.45136,-0.79987 6.88432,-1.65894 10.29675,-2.58109 -0.004,0.067 -0.009,0.13389 -0.0133,0.20084 z m -29.99785,-11.09555 c -2.36949,0.65714 -18.32494,5.51959 -21.57426,6.82226 -1.40899,0.55187 -5.35048,1.94277 -5.56513,7.47291 -0.20026,5.15944 3.42244,6.2512 7.86332,5.82937 4.15094,-0.48402 15.97037,-5.30586 18.79017,-7.8746 0,0 0.40084,-9.24692 0.4859,-12.24994 z"
   id="path4" />
				
			</g><g
   id="g7"
   style="display:inline"
   sodipodi:insensitive="true"
   inkscape:label="s"
   transform="translate(-151.56354,-182.44503)"><path
     id="path49"
     style="fill:#00003c;fill-opacity:1;stroke-width:14.1371"
     d="m 362.15625,307.25391 2.89844,-13.4375 c -2.554,1.30093 -5.19711,2.54175 -7.90821,3.74804 -0.01,0.004 -0.0194,0.008 -0.0293,0.0117 -1.45379,0.64541 -2.01202,0.31105 -1.92774,-1.33594 0.0699,-1.36526 0.13256,-2.72604 0.1875,-4.08398 -0.93728,0.42459 -1.87681,0.8424 -2.82031,1.25391 -3.41848,1.31356 -6.87877,2.5158 -10.375,3.61718 -0.0786,1.63631 -0.16926,3.27818 -0.27148,4.92383 -0.49638,7.99108 2.36447,11.42726 9.34765,9.62695 0.75011,-0.19383 1.54706,-0.44991 2.38867,-0.76953 0.89835,-0.34115 1.79415,-0.68955 2.6875,-1.04687 1.96079,-0.78428 3.90097,-1.62623 5.82227,-2.50781 z" /><path
     id="path5"
     style="fill:#00003c;fill-opacity:1;stroke-width:14.1371"
     d="m 375.24414,246.5957 c -0.13274,-0.0241 -0.26828,-0.0434 -0.41211,-0.0508 -1.4811,-0.0712 -3.42182,0.60115 -5.85547,1.99805 -3.81406,2.18926 -7.80714,4.42245 -11.94531,6.73633 -0.63886,0.35609 -1.27949,0.71206 -1.91992,1.0664 -0.99304,0.54943 -1.9156,1.1209 -2.77149,1.72071 -6.58722,3.67013 -9.27039,8.71874 -9.15625,18.92773 0.10593,9.47331 2.58055,11.83777 9.59375,10.62109 0.55357,-0.1275 1.13525,-0.28076 1.7461,-0.45703 1.02039,-0.29841 2.03829,-0.60232 3.05273,-0.91211 3.39063,-1.03587 6.69429,-2.0619 9.78906,-3.13281 l 2.74024,-12.70508 c -3.43039,1.26369 -7.19702,2.53295 -11.08008,3.8418 -0.54969,0.18417 -0.99412,0.30425 -1.34961,0.32617 -1.14334,0.0729 -1.36072,-0.86968 -1.41601,-3.88672 -0.0528,-2.88496 0.27361,-3.95694 1.25781,-4.69336 0.1767,-0.13294 0.37447,-0.25474 0.59375,-0.37304 3.08745,-1.66565 6.06061,-3.28292 8.89453,-4.875 1.30827,-0.73499 1.82126,-0.38836 1.85156,1.10156 0.0274,1.34641 0.0517,2.69619 0.0742,4.04687 0.83801,-0.47724 1.64972,-0.95467 2.45703,-1.43164 z" /></g><g
   id="g6"
   inkscape:label="A"
   transform="translate(-151.56354,-182.44503)"><path
     id="path50"
     style="display:inline;fill:#00003c;fill-opacity:1;stroke-width:14.1371"
     d="m 149.93945,306.82617 c 1.66973,1.00417 3.34006,2.00762 5.00977,3.01172 0.44056,0.17606 0.88243,0.35134 1.32422,0.52344 0.0995,-3.82034 0.18493,-7.65409 0.25586,-11.5 -0.43528,-0.17701 -0.87042,-0.35567 -1.30469,-0.53711 -1.79558,-1.02287 -3.59425,-2.05864 -5.39453,-3.10547 0.89524,-2.47306 1.82534,-4.97455 2.75976,-7.4668 0.92886,0.51833 1.85781,1.0325 2.78516,1.54102 1.65025,0.70956 3.30796,1.38496 4.9707,2.02734 4.82482,1.85513 9.73586,3.48201 14.72071,4.90625 0.94554,3.24303 1.89606,6.45773 2.85937,9.66016 -2.45025,-0.638 -4.8846,-1.32327 -7.30273,-2.0586 -0.0151,3.80556 -0.0331,7.59968 -0.0527,11.38282 10.00188,2.92451 20.24519,5.00286 30.61328,6.46094 -0.0743,-3.70473 -0.13856,-7.4164 -0.18945,-11.13477 -2.60068,-0.38697 -5.1901,-0.81509 -7.76758,-1.28516 -7.25624,-20.49298 -13.09052,-39.20814 -19.9082,-61.51953 -4.40767,-1.50105 -8.76557,-3.15621 -13.0625,-4.97461 -1.68535,-0.71321 -3.36029,-1.44965 -5.02344,-2.21484 -4.05236,-1.8642 -8.03065,-3.89111 -11.89453,-6.11328 -0.0812,3.83934 -0.14536,7.68252 -0.19336,11.52929 2.53102,1.46873 5.08838,2.86142 7.66602,4.18555 -2.83104,7.143 -5.79598,13.9589 -8.62305,20.76172 2.59398,11.97201 5.18777,23.94371 7.75195,35.91992 z"
     sodipodi:insensitive="true" /><path
     id="path51"
     style="display:inline;fill:#ffffff;fill-opacity:1;stroke-width:14.1371"
     d="m 163.74609,256.52148 c 2.60593,9.30347 5.03573,17.9934 7.61914,26.96485 -3.69343,-1.18231 -7.34234,-2.48175 -10.93945,-3.90625 -1.37646,-0.54814 -2.74894,-1.11945 -4.11719,-1.71485 1.40118,-3.92512 2.75294,-7.79571 4.12891,-11.77148 2.12767,-6.1543 1.18092,-3.41797 3.30859,-9.57227 z"
     sodipodi:insensitive="true" /></g>
	
</g><g
       id="g16"
       inkscape:label="steam"><path
         style="fill:#818181;fill-opacity:0.668256;fill-rule:nonzero;stroke:none;stroke-width:2.52524;stroke-opacity:1"
         d="m 407.3711,195.84989 c 3.94383,-6.83146 10.22128,-18.32485 14.35587,-29.49362 1.73211,-4.67896 3.22651,-9.62908 4.1696,-14.69212 0.87233,-4.68318 1.27299,-9.45845 0.97032,-14.2587 -0.28708,-4.55285 -1.20049,-9.17785 -2.52456,-13.97458 -1.28326,-4.64884 -2.90177,-9.28955 -4.65019,-14.17161 -1.6655,-4.65052 -3.50008,-9.655815 -5.00563,-14.569641 -1.50244,-4.903701 -2.79609,-10.07971 -3.38519,-15.386626 -1.19426,-10.758512 0.51151,-21.03935 2.45378,-29.666108 1.00205,-4.450717 2.07121,-8.49278 2.89906,-11.962383 0.87695,-3.675419 1.43779,-6.514819 1.54801,-8.59389 0.11124,-2.098068 -0.15532,-3.461768 -0.49627,-4.349961 -0.35682,-0.929546 -0.83364,-1.423357 -1.2158,-1.795257 -0.56471,-0.549551 -0.83372,-0.768184 -1.51495,-1.537832 -0.69066,-0.780299 -1.57389,-1.89175 -2.36652,-3.09655 0,0 13.43841,-8.8410652 13.43841,-8.8410652 0,0 13.43841,-8.84106513 13.43841,-8.84106513 0.71589,1.08814723 1.90381,3.09337133 3.02461,5.58333903 0.94017,2.0886539 1.99742,4.8768483 2.65949,8.2048703 0.5982,3.006977 0.85721,6.357017 0.52528,10.073154 -0.3047,3.411262 -1.08943,6.947292 -2.40518,10.707068 -1.19833,3.424245 -2.87809,7.006571 -4.51414,10.408945 -1.63737,3.405125 -3.33619,6.840034 -4.96605,10.521409 -3.14101,7.094635 -5.84553,14.724537 -6.43072,22.663843 -0.29458,3.996439 -0.0351,8.309267 0.56663,12.986068 0.6067,4.71511 1.53099,9.584422 2.46116,14.605892 0.95262,5.14266 1.87707,10.27147 2.4584,15.4398 0.60315,5.3623 0.81389,10.58389 0.35268,15.7058 -0.48297,5.36341 -1.69758,10.44964 -3.27373,15.19668 -1.70403,5.13218 -3.88624,10.02829 -6.15285,14.539 -4.74654,9.44596 -13.22108,23.05413 -16.41993,28.59514 z"
         id="path6"
         inkscape:path-effect="#path-effect6;#path-effect7"
         inkscape:original-d="M 407.3711,195.84989 C 418.53029,176.52005 429.68925,157.1906 440.84867,137.86037 430.39524,117.7339 419.94223,97.608228 409.48901,77.482166 418.73782,60.47627 427.98627,43.471055 437.23491,26.4655 433.50555,20.796866 429.77634,15.128466 426.04704,9.4599468"
         inkscape:linked-fill="path8"
         transform="matrix(1.1543385,0,0,0.81318262,-229.46816,18.016202)"
         sodipodi:nodetypes="ccccc" /><path
         style="fill:#818181;fill-opacity:0.668256;fill-rule:nonzero;stroke:none;stroke-width:2.52524;stroke-opacity:1"
         d="m 408.14646,175.48787 c 3.81501,-5.10846 9.67115,-13.75262 13.17537,-22.70207 1.45945,-3.72728 2.59988,-7.69125 3.12995,-11.83297 0.48942,-3.82415 0.45575,-7.7669 -0.29322,-11.86535 -0.71219,-3.89716 -2.06987,-8.06754 -3.90552,-12.6364 -1.78824,-4.45086 -3.91236,-9.00276 -6.25693,-14.04551 -2.2268,-4.78945 -4.67374,-10.067317 -6.79617,-15.424135 -2.11039,-5.326423 -4.04878,-11.090006 -5.25209,-17.113499 -2.43985,-12.213275 -1.76601,-24.169345 -0.75152,-34.459773 0.52391,-5.314356 1.13944,-10.228521 1.55517,-14.578315 0.43956,-4.599024 0.63953,-8.333612 0.47951,-11.4583331 -0.32951,-6.4342795 -1.93921,-11.7549721 -3.52419,-16.1814768 -2.16966,-6.0593551 -4.71623,-11.7499851 -6.31893,-16.7767641 0,0 22.15095,-7.06243 22.15095,-7.06243 0,0 22.15095,-7.06243 22.15095,-7.06243 1.39748,4.383145 3.65618,13.081242 4.52582,22.953484 0.70676,8.0231262 0.60807,17.7319361 -1.95392,28.757278 -1.14392,4.922781 -2.75299,9.778097 -4.40329,14.399892 -1.609,4.506152 -3.31274,8.950253 -4.8754,13.384553 -3.0373,8.618833 -5.5335,17.130644 -5.89949,25.785783 -0.18407,4.353066 0.22357,9.058611 1.01193,14.116855 0.79469,5.098826 1.93437,10.30629 3.09569,15.588752 1.18701,5.399309 2.35877,10.714219 3.17112,15.925219 0.84261,5.40504 1.27696,10.57312 0.96713,15.46749 -0.32566,5.14435 -1.47873,9.72494 -3.02551,13.79596 -1.66774,4.38938 -3.84939,8.32765 -6.08784,11.80871 -5.69312,8.85347 -11.91393,15.6509 -16.06957,21.21548 z"
         id="path9"
         inkscape:path-effect="#path-effect10;#path-effect12"
         inkscape:original-d="M 408.14646,175.48787 C 418.85567,161.14778 429.56467,146.80798 440.2741,132.4676 427.92327,110.94722 415.57317,89.42813 403.22234,67.907763 411.45819,48.009209 419.69356,28.111831 427.92942,8.2132601 423.79914,-4.7411412 419.66904,-17.695007 415.53884,-30.649156"
         inkscape:linked-fill="path8"
         transform="matrix(1.2730604,0,0,0.84133318,-218.85216,51.114862)"
         sodipodi:nodetypes="ccccc" /><path
         style="fill:#818181;fill-opacity:0.668256;fill-rule:nonzero;stroke:none;stroke-width:2.52524;stroke-opacity:1"
         d="m 419.64945,179.5101 c 2.45243,-5.14652 6.17589,-13.69414 8.24258,-22.55111 1.66061,-7.11665 2.51719,-15.29165 1.01346,-24.58996 -0.69021,-4.26794 -1.87383,-8.82255 -3.38168,-13.71464 -1.46672,-4.75868 -3.14781,-9.55112 -4.92228,-14.68749 -1.69374,-4.902643 -3.45938,-10.082879 -4.91155,-15.172213 -1.43868,-5.042075 -2.65363,-10.274903 -3.21716,-15.454363 -0.57024,-5.241212 -0.47739,-10.222375 -0.008,-14.903388 0.47274,-4.717254 1.32444,-9.09333 2.22888,-13.025937 0.92625,-4.027436 1.90624,-7.607834 2.63033,-10.613536 0.76873,-3.191 1.20504,-5.551321 1.20058,-7.159134 -0.004,-1.604692 -0.32691,-2.566465 -0.67962,-3.183299 -0.35533,-0.621407 -0.83116,-1.007983 -1.2053,-1.341453 -0.49748,-0.443411 -0.94386,-0.876661 -1.59227,-1.617684 -0.73947,-0.84508 -1.64534,-1.989248 -2.43852,-3.194881 0,0 13.43841,-8.8410652 13.43841,-8.8410652 0,0 13.43841,-8.84106513 13.43841,-8.84106513 0.72727,1.10544103 1.86806,3.04454663 2.96242,5.44101443 0.90744,1.9871384 1.95433,4.6597979 2.65078,7.8170669 0.63059,2.858649 0.97321,6.100028 0.72206,9.691087 -0.23158,3.311277 -0.95197,6.707564 -2.2258,10.245988 -1.15237,3.201068 -2.77661,6.401934 -4.30533,9.326736 -1.54666,2.95913 -3.11266,5.850073 -4.63518,9.033185 -1.46642,3.065822 -2.84057,6.302129 -3.92447,9.747156 -1.07044,3.402212 -1.87038,7.047683 -2.17774,10.961622 -0.31157,3.967593 -0.1012,8.401743 0.44589,13.223049 0.55054,4.851734 1.42095,9.92345 2.34047,15.060694 0.94671,5.2892 1.91052,10.46403 2.65217,15.60033 0.76659,5.30899 1.26171,10.36055 1.24875,15.12759 -0.0281,10.3349 -2.49687,18.8606 -5.1987,25.73582 -2.9378,7.47568 -8.47715,17.86292 -10.39132,21.87988 z"
         id="path12"
         inkscape:path-effect="#path-effect14;#path-effect16"
         inkscape:original-d="m 419.64945,179.5101 c 6.90144,-14.48293 13.80275,-28.96558 20.70433,-43.44881 C 430.69276,113.7189 421.03233,91.377852 411.37132,69.035476 419.99268,54.845207 428.61371,40.655497 437.23491,26.4655 433.50555,20.796866 429.77634,15.128466 426.04704,9.4599468"
         inkscape:linked-fill="path8"
         transform="matrix(2.1397306,0,0,1.1126023,-709.96748,3.0629153)"
         sodipodi:nodetypes="ccccc" /></g></g><style
     type="text/css"
     id="style1-3">
	.st0{fill:#00003C;}
	.st1{fill:#64648C;}
	.st2{fill:#1ED2AF;}
</style><style
     type="text/css"
     id="style1-0">
	.st0{fill:#00003C;}
	.st1{fill:#64648C;}
	.st2{fill:#1ED2AF;}
</style><style
     type="text/css"
     id="style1-5">
	.st0{fill:#00003C;}
	.st1{fill:#64648C;}
	.st2{fill:#1ED2AF;}
</style><style
     type="text/css"
     id="style1-36">
	.st0{fill:#00003C;}
	.st1{fill:#64648C;}
	.st2{fill:#1ED2AF;}
</style></svg>
