<?xml version="1.0" encoding="UTF-8" standalone="no"?>
<!-- Created with Inkscape (http://www.inkscape.org/) -->

<svg
   width="512"
   height="512"
   viewBox="0 0 512 512"
   version="1.1"
   id="svg1"
   inkscape:version="1.4 (e7c3feb100, 2024-10-09)"
   sodipodi:docname="reel-magnifier.svg"
   xml:space="preserve"
   xmlns:inkscape="http://www.inkscape.org/namespaces/inkscape"
   xmlns:sodipodi="http://sodipodi.sourceforge.net/DTD/sodipodi-0.dtd"
   xmlns="http://www.w3.org/2000/svg"
   xmlns:svg="http://www.w3.org/2000/svg"><sodipodi:namedview
     id="namedview1"
     pagecolor="#ffffff"
     bordercolor="#ffffff"
     borderopacity="1"
     inkscape:showpageshadow="0"
     inkscape:pageopacity="0"
     inkscape:pagecheckerboard="1"
     inkscape:deskcolor="#505050"
     inkscape:document-units="px"
     inkscape:zoom="1.548926"
     inkscape:cx="246.9453"
     inkscape:cy="235.00154"
     inkscape:window-width="1920"
     inkscape:window-height="1174"
     inkscape:window-x="0"
     inkscape:window-y="1"
     inkscape:window-maximized="1"
     inkscape:current-layer="svg1" /><defs
     id="defs1" /><style
     type="text/css"
     id="style1">
	.st0{fill:#00003C;}
	.st1{fill:#64648C;}
	.st2{fill:#1ED2AF;}
</style><g
     id="g102"
     transform="matrix(0.88033695,-0.86376298,0.86376298,0.88033695,-158.64288,283.49356)"><path
       id="path101"
       style="fill:#00003c"
       d="m 345.04264,61.399805 c -3.02485,-3.09782 -6.17729,-6.064348 -9.51039,-8.833385 L 312.51648,69.5252 c -4.44836,-4.448365 -8.89765,-8.155693 -14.8288,-10.379876 -5.93115,-2.224182 -11.86219,-3.70837 -17.79334,-3.70837 l -3.15767,-29.6854 c -4.25258,-0.71171 -8.54094,-1.3182 -12.92966,-1.588718 l 3.48406,32.758018 c -13.3451,3.706971 -25.95058,12.604249 -31.88173,26.690738 v 0.741769 L 157.02461,73.019486 c -2.82595,3.710981 -5.43543,7.580877 -7.83662,11.603829 l 122.55033,18.264235 c 0,0.74139 -0.74058,1.48284 -0.74058,2.22424 v 0.74177 c -0.7414,2.22418 -2.22436,3.70624 -2.96575,5.18903 -1.48279,2.96558 -3.70675,5.19029 -6.67234,7.41447 -13.34509,11.86231 -35.58689,17.79303 -59.3115,14.08606 l -24.46593,-3.70706 c -11.12091,-1.48279 -21.50013,-5.18962 -30.39686,-10.37938 -2.96558,-1.48279 -5.19028,-2.96462 -7.41447,-5.1888 -0.89042,-0.59362 -1.75485,-1.34208 -2.5977,-2.07821 -1.46198,4.6969 -2.56223,9.54362 -3.46578,14.46307 4.53564,3.10571 9.55924,5.91783 14.96077,8.37307 8.15533,3.70697 16.31146,5.93085 25.94959,7.41364 l 24.46367,3.70691 c 20.75904,2.96558 40.03696,1.7e-4 55.60624,-8.15512 -2.96558,6.67254 -7.41493,12.60383 -11.86329,17.79359 -8.15534,8.89673 -18.53517,17.05195 -31.13887,22.98311 -2.22419,0.74139 -4.44865,2.22472 -7.41423,2.96611 l -0.7395,1.4e-4 c -2.96558,0.7414 -5.93098,2.22364 -8.89655,2.96504 h -0.74177 c -2.96558,1.48279 -5.19005,2.22435 -7.41423,2.22435 -2.22419,0.74139 -4.44864,0.74118 -7.41422,1.48257 -0.74139,0 -2.22341,5e-4 -2.9648,0.7419 l -34.84591,2.96455 c -0.70122,0.0619 -1.39424,0.0573 -2.09419,0.10774 1.3548,3.70012 2.848,7.33102 4.53423,10.85581 l 30.18078,-2.80612 -2.22505,6.67136 1.4e-4,0.7395 c -3.20277,8.54071 -5.56571,16.98034 -7.7846,25.24434 6.0856,6.70313 12.86022,12.7574 20.27047,18.00087 8.19555,5.79915 17.13947,10.57877 26.64142,14.2792 0.32045,-0.37906 0.68215,-0.72221 0.90906,-1.17602 1.48279,-2.96558 -5.3e-4,-6.67321 -2.96611,-8.156 l -23.1978,-10.08649 -10.90576,-4.74111 c 1.48279,-7.41394 3.70643,-14.82908 6.672,-22.24303 l 11.25495,4.95312 44.34863,19.51461 c 2.96557,1.48279 6.67321,-5.4e-4 8.156,-2.96611 1.48279,-2.96558 0.002,-6.67306 -2.96384,-8.15585 l -45.27053,-19.65864 -11.07603,-4.80803 c 0.7414,-2.22418 2.22423,-5.18789 2.96562,-7.41207 5.34646,-0.66831 10.07296,-2.02663 14.7576,-3.89979 0.51232,-0.20485 1.0405,-0.32978 1.55211,-0.54904 2.22418,-0.74139 3.70772,-1.48401 5.9319,-2.22541 l 49.67172,21.50076 c 0.57416,1.72249 1.14887,3.07203 1.72303,4.59392 0.16723,0.44327 0.33409,0.83508 0.50132,1.33677 2.22418,5.18976 5.19196,10.3801 8.15754,14.82847 -6.93943,13.49332 -14.4892,26.15712 -22.42296,37.62969 2.46226,0.14828 4.92273,0.30168 7.42331,0.30168 2.67229,0 5.3066,-0.15469 7.93503,-0.32371 5.31265,-8.51063 10.41356,-17.6186 15.2187,-27.22889 l 16.15954,21.13252 c 3.49704,-1.16037 6.91993,-2.46546 10.27059,-3.9193 l -19.75672,-26.11001 c -0.74139,-0.74139 -1.48403,-1.48203 -2.22543,-2.96482 -1.48279,-2.22419 -2.96529,-3.70758 -3.70669,-5.93176 -1.48279,-2.22419 -2.96543,-4.44707 -3.70682,-6.67125 l -0.74177,-0.74178 c -1.48279,-2.96557 -2.96541,-5.93061 -3.70681,-8.15479 v -0.74177 c -0.74139,-2.22418 -1.48172,-4.44971 -2.22313,-7.41528 -3.70697,-11.12092 -5.19071,-22.98218 -4.44931,-34.10309 l -1.2e-4,-3.70657 c 0.74139,-7.41394 2.22393,-14.82751 5.18951,-21.50006 4.44836,16.31067 15.56962,33.36123 31.88029,45.96493 l 19.27604,15.57093 c 7.41394,5.93115 14.82972,10.37817 22.98505,14.08514 3.47483,1.57947 6.94842,2.83123 10.42325,3.87231 2.79221,-3.64787 5.44538,-7.40534 7.82636,-11.35685 l -5.64659,-1.4125 c -9.63812,-2.96558 -19.27736,-8.15342 -28.17409,-15.56736 l -19.27604,-15.57093 c -18.53485,-14.82789 -29.65508,-35.58688 -29.65508,-53.38034 0,-3.70697 -1e-5,-6.6706 0.74139,-9.63618 -0.7414,-2.22418 -4.2e-4,-4.45067 1.48237,-6.67485 0,0 -6.7e-4,-0.7407 0.74056,-0.7407 0,-0.7414 0.74285,-1.4827 0.74285,-2.22409 l 92.34147,74.32418 c 1.18756,-4.2984 2.07585,-8.71557 2.80145,-13.18908 l -57.3328,-46.30762 c 0,0 3.8e-4,-0.74177 0.74178,-0.74176 5.93115,-14.08649 5.1897,-28.912523 -2.22424,-41.516223 z" /><path
       d="m 235.38672,271.04687 c 8.22884,-12.707 16.38152,-27.77101 23.74805,-44.3457 l 3.20507,-8.01172 c -0.57416,-1.52189 -1.14849,-2.87126 -1.72265,-4.59375 l -49.67188,-21.5 c -2.22418,0.7414 -3.70746,1.48322 -5.93164,2.22461 -0.51161,0.21926 -1.04041,0.34398 -1.55273,0.54883 l -2.1543,5.38281 c -1.58161,3.60806 -3.06983,7.18712 -4.49219,10.73828 l 45.26953,19.65821 c 2.96558,1.48279 4.44764,5.19067 2.96485,8.15625 -1.48279,2.96557 -5.19068,4.44763 -8.15625,2.96484 l -44.34961,-19.51367 c -2.74206,7.60797 -5.07288,14.97406 -7.01953,22.03125 l 23.19726,10.08594 c 2.96558,1.48279 4.44764,5.19067 2.96485,8.15625 -0.22691,0.45381 -0.58776,0.79672 -0.90821,1.17578 7.8579,3.06017 16.06401,5.42249 24.60938,6.84179 z"
       style="fill:#1ed2af"
       id="path97" /><path
       id="path91"
       style="fill:#7d7d7d;fill-opacity:1"
       d="M 362.88037,51.265058 C 336.43937,22.179705 298.31777,3.8941617 255.99989,3.8941618 c -50.71291,-10e-8 -95.36625,26.2827772 -121.14565,65.9203792 -2.45123,3.76893 -4.73392,7.654136 -6.83218,11.653902 -2.27614,4.338854 -4.33142,8.808348 -6.16505,13.391671 -1.99199,4.97918 -3.71703,10.087796 -5.15195,15.320696 0.0292,0.0391 0.0531,0.0815 0.0824,0.12058 l -0.11936,0.0105 c -1.05159,3.8493 -1.94105,7.76384 -2.67427,11.73316 -1.57622,8.53301 -2.44099,17.31214 -2.44099,26.2949 0,14.8327 2.35043,29.10204 6.52173,42.57907 1.24158,4.01141 2.64001,7.94738 4.21406,11.8017 3.38057,8.27786 7.51655,16.15237 12.30721,23.58247 2.80766,4.35455 5.85203,8.52883 9.09813,12.54641 4.60796,5.70311 9.60692,11.05811 15.01568,15.99973 3.53543,3.23007 7.23972,6.2619 11.08302,9.13243 3.27484,2.44596 6.64796,4.75401 10.12812,6.92074 13.00112,8.09443 27.31123,14.27007 42.62383,17.91505 3.89961,0.92825 7.87258,1.65659 11.88654,2.2608 v 0 c 0.52107,0.0784 1.02308,0.21535 1.54594,0.28819 4.62133,0.64378 9.3269,0.99927 14.07289,1.20384 1.97978,0.0853 3.95034,0.21681 5.95096,0.21681 4.39541,0 8.72213,-0.27879 13.01549,-0.67555 2.34543,-0.21675 4.69337,-0.42312 7.00711,-0.74543 2.17978,-0.30366 4.29297,-0.79963 6.44077,-1.19971 9.10035,-1.69516 17.89155,-4.22676 26.31032,-7.54565 3.64454,-1.43676 7.20864,-3.01584 10.70208,-4.7336 21.4329,-10.53876 39.91735,-26.13979 53.76666,-45.36362 4.26477,-5.91981 8.06557,-12.18624 11.40899,-18.72791 3.07645,-6.0193 5.68335,-12.29762 7.90232,-18.76622 1.39841,-4.07657 2.61282,-8.22781 3.64666,-12.45887 2.6857,-10.99139 4.24562,-22.42135 4.24562,-34.23048 0,-37.3393 -14.23627,-71.411586 -37.56656,-97.075132 z m -13.83258,14.432216 c 19.52096,21.961044 31.39879,50.872926 31.39879,82.642276 0,6.86571 -0.63748,13.57151 -1.70146,20.13123 -0.7256,4.47351 -1.61389,8.89068 -2.80145,13.18908 -3.03595,10.98866 -7.55149,21.34771 -13.29684,30.88277 -2.38098,3.95151 -5.03415,7.70898 -7.82636,11.35685 -12.78812,16.707 -29.67817,30.06119 -49.23734,38.54787 -3.35066,1.45384 -6.77355,2.75893 -10.27059,3.9193 -6.23464,2.06874 -12.65721,3.73454 -19.2894,4.8029 -3.96533,0.63877 -8.00836,1.03108 -12.08884,1.29347 -2.62843,0.16902 -5.26274,0.32371 -7.93503,0.32371 -2.50058,0 -4.96105,-0.1534 -7.42331,-0.30168 -4.25408,-0.25617 -8.46981,-0.64995 -12.59927,-1.31516 -0.19976,-0.0322 -0.39062,-0.0894 -0.59006,-0.12258 -8.54537,-1.4193 -16.75122,-3.78184 -24.60912,-6.84201 -9.50195,-3.70043 -18.44587,-8.48005 -26.64142,-14.2792 -7.41025,-5.24347 -14.18487,-11.29774 -20.27047,-18.00087 -8.06973,-8.88859 -14.92913,-18.89129 -20.17127,-29.84908 -1.68623,-3.52479 -3.17943,-7.15569 -4.53423,-10.85581 -4.89407,-13.36619 -7.60803,-27.795 -7.60803,-42.88092 0,-7.76163 0.80276,-15.32255 2.15532,-22.68668 0.90355,-4.91945 2.0038,-9.76617 3.46578,-14.46307 2.92998,-9.41315 7.06015,-18.265329 12.0148,-26.566355 2.40119,-4.022952 5.01067,-7.892848 7.83662,-11.603829 22.71222,-29.82523 58.50024,-49.124975 98.97465,-49.124975 2.62484,0 5.22378,0.109051 7.80775,0.268325 4.38872,0.270518 8.67708,0.877008 12.92966,1.588718 22.12579,3.702968 42.28599,13.099187 58.79558,26.814866 3.3331,2.769037 6.48554,5.735565 9.51039,8.833385 1.36808,1.401079 2.70375,2.8334 4.00515,4.297469 z"
       sodipodi:nodetypes="csssscccssssssssssccsssssssssssssscsssssssssssscssssssssssssssscs" /><path
       d="m 116.66797,110.3125 0.11914,-0.0117 c -0.0293,-0.039 -0.0528,-0.08 -0.082,-0.11914 -0.012,0.0438 -0.0251,0.0871 -0.0371,0.13086 z"
       style="fill:#00003c"
       id="path90" /><path
       id="path78"
       style="fill:#824a22;stroke-width:17.5481"
       d="m 276.02351,291.36625 c -2.31374,0.32231 -4.66168,0.52868 -7.00711,0.74543 -4.29336,0.39676 -8.62008,0.67555 -13.01549,0.67555 -2.00062,0 -3.97118,-0.13147 -5.95096,-0.21681 -4.74599,-0.20457 -9.45156,-0.56006 -14.07289,-1.20384 l -6.5e-4,17.68717 4.4e-4,163.30802 c 0,12.90442 8.92996,23.29254 20.02323,23.29254 11.09327,0 20.02321,-10.38846 20.02321,-23.29288 l 2.2e-4,-171.17644 z" /></g><style
     type="text/css"
     id="style1-3">
	.st0{fill:#00003C;}
	.st1{fill:#64648C;}
	.st2{fill:#1ED2AF;}
</style><style
     type="text/css"
     id="style1-0">
	.st0{fill:#00003C;}
	.st1{fill:#64648C;}
	.st2{fill:#1ED2AF;}
</style><style
     type="text/css"
     id="style1-5">
	.st0{fill:#00003C;}
	.st1{fill:#64648C;}
	.st2{fill:#1ED2AF;}
</style></svg>
