<?xml version="1.0" encoding="UTF-8" standalone="no"?>
<!-- Created with Inkscape (http://www.inkscape.org/) -->

<svg
   width="512"
   height="512"
   viewBox="0 0 512 512"
   version="1.1"
   id="svg1"
   inkscape:version="1.4 (e7c3feb100, 2024-10-09)"
   sodipodi:docname="reel-motherboard.svg"
   xml:space="preserve"
   xmlns:inkscape="http://www.inkscape.org/namespaces/inkscape"
   xmlns:sodipodi="http://sodipodi.sourceforge.net/DTD/sodipodi-0.dtd"
   xmlns:xlink="http://www.w3.org/1999/xlink"
   xmlns="http://www.w3.org/2000/svg"
   xmlns:svg="http://www.w3.org/2000/svg"><sodipodi:namedview
     id="namedview1"
     pagecolor="#f2f2f2"
     bordercolor="#ffffff"
     borderopacity="1"
     inkscape:showpageshadow="0"
     inkscape:pageopacity="0"
     inkscape:pagecheckerboard="1"
     inkscape:deskcolor="#505050"
     inkscape:document-units="px"
     inkscape:zoom="0.77350309"
     inkscape:cx="51.066376"
     inkscape:cy="100.83993"
     inkscape:window-width="1920"
     inkscape:window-height="1174"
     inkscape:window-x="0"
     inkscape:window-y="1"
     inkscape:window-maximized="1"
     inkscape:current-layer="layer1" /><defs
     id="defs1"><inkscape:path-effect
       effect="perspective-envelope"
       up_left_point="8.2016106,8.2016106"
       up_right_point="503.79838,8.2016106"
       down_left_point="8.2016106,503.79838"
       down_right_point="622.27434,603.86249"
       id="path-effect1"
       is_visible="true"
       lpeversion="1"
       deform_type="perspective"
       horizontal_mirror="false"
       vertical_mirror="false"
       overflow_perspective="false" /><linearGradient
       id="linearGradient30"
       inkscape:collect="always"><stop
         style="stop-color:#1ed2af;stop-opacity:1;"
         offset="0.46250531"
         id="stop31" /><stop
         style="stop-color:#64648c;stop-opacity:0;"
         offset="1"
         id="stop32" /></linearGradient><inkscape:path-effect
       effect="bspline"
       id="path-effect23"
       is_visible="true"
       lpeversion="1.3"
       weight="33.333333"
       steps="2"
       helper_size="0"
       apply_no_weight="true"
       apply_with_weight="true"
       only_selected="false"
       uniform="false" /><inkscape:path-effect
       effect="bspline"
       id="path-effect22"
       is_visible="true"
       lpeversion="1.3"
       weight="33.333333"
       steps="2"
       helper_size="0"
       apply_no_weight="true"
       apply_with_weight="true"
       only_selected="false"
       uniform="false" /><inkscape:path-effect
       effect="bspline"
       id="path-effect13"
       is_visible="true"
       lpeversion="1.3"
       weight="33.333333"
       steps="2"
       helper_size="0"
       apply_no_weight="true"
       apply_with_weight="true"
       only_selected="false"
       uniform="false" /><inkscape:path-effect
       effect="bspline"
       id="path-effect12"
       is_visible="true"
       lpeversion="1.3"
       weight="33.333333"
       steps="2"
       helper_size="0"
       apply_no_weight="true"
       apply_with_weight="true"
       only_selected="false"
       uniform="false" /><inkscape:path-effect
       effect="bspline"
       id="path-effect11"
       is_visible="true"
       lpeversion="1.3"
       weight="33.333333"
       steps="2"
       helper_size="0"
       apply_no_weight="true"
       apply_with_weight="true"
       only_selected="false"
       uniform="false" /><inkscape:path-effect
       effect="bspline"
       id="path-effect10"
       is_visible="true"
       lpeversion="1.3"
       weight="33.333333"
       steps="2"
       helper_size="0"
       apply_no_weight="true"
       apply_with_weight="true"
       only_selected="false"
       uniform="false" /><inkscape:path-effect
       effect="bspline"
       id="path-effect9"
       is_visible="true"
       lpeversion="1.3"
       weight="33.333333"
       steps="2"
       helper_size="0"
       apply_no_weight="true"
       apply_with_weight="true"
       only_selected="false"
       uniform="false" /><linearGradient
       id="swatch30"
       inkscape:swatch="solid"><stop
         style="stop-color:#00003c;stop-opacity:1;"
         offset="0"
         id="stop30" /></linearGradient><inkscape:perspective
       sodipodi:type="inkscape:persp3d"
       inkscape:vp_x="-654.50809 : 538.2238 : 1"
       inkscape:vp_y="0 : 8086.478 : 0"
       inkscape:vp_z="1829.2318 : 773.56588 : 1"
       inkscape:persp3d-origin="672.94244 : -147.46408 : 1"
       id="perspective1" /><inkscape:path-effect
       effect="powerstroke"
       message=""
       id="path-effect6"
       is_visible="true"
       lpeversion="1.3"
       scale_width="1"
       interpolator_type="CubicBezierJohan"
       interpolator_beta="0.2"
       start_linecap_type="zerowidth"
       end_linecap_type="zerowidth"
       offset_points="6.9999954,3.3004764e-15"
       linejoin_type="extrp_arc"
       miter_limit="4"
       not_jump="false"
       sort_points="true" /><inkscape:path-effect
       effect="fill_between_many"
       method="bsplinespiro"
       autoreverse="false"
       close="false"
       join="false"
       linkedpaths="#path6,0,1"
       id="path-effect7" /><radialGradient
       inkscape:collect="always"
       xlink:href="#linearGradient30"
       id="radialGradient32"
       cx="256"
       cy="256"
       fx="256"
       fy="256"
       r="374.52869"
       gradientUnits="userSpaceOnUse" /></defs><style
     type="text/css"
     id="style1">
	.st0{fill:#00003C;}
	.st1{fill:#64648C;}
	.st2{fill:#1ED2AF;}
</style><style
     type="text/css"
     id="style1-53">
	.st0{fill:#00003C;}
	.st1{fill:#64648C;}
	.st2{fill:#1ED2AF;}
</style><style
     type="text/css"
     id="style1-3">
	.st0{fill:#00003C;}
	.st1{fill:#64648C;}
	.st2{fill:#1ED2AF;}
</style><style
     type="text/css"
     id="style1-0">
	.st0{fill:#00003C;}
	.st1{fill:#64648C;}
	.st2{fill:#1ED2AF;}
</style><style
     type="text/css"
     id="style1-5">
	.st0{fill:#00003C;}
	.st1{fill:#64648C;}
	.st2{fill:#1ED2AF;}
</style><style
     type="text/css"
     id="style1-7">
	.st0{fill:#00003C;}
	.st1{fill:#64648C;}
	.st2{fill:#1ED2AF;}
</style><circle
     style="display:inline;fill:url(#radialGradient32);fill-opacity:1;stroke:none;stroke-width:6.58862"
     id="path30"
     cx="256"
     cy="256"
     r="374.52869"
     transform="translate(-1.069233e-6)"
     inkscape:label="glow" /><g
     inkscape:groupmode="layer"
     id="layer1"
     inkscape:label="motherboard"
     style="display:inline;fill:#00003c;fill-opacity:1"
     transform="matrix(0.72385862,-0.17278333,-0.24981303,0.82473137,134.64432,89.101306)"
     inkscape:path-effect="#path-effect1"><path
       style="display:inline;fill:#64648c;fill-opacity:1;stroke:none;stroke-width:11.8581"
       id="rect29"
       width="495.59677"
       height="495.59677"
       x="8.2016106"
       y="8.2016106"
       sodipodi:type="rect"
       d="m 8.2016106,8.2016106 495.5967694,0 L 622.27434,603.86249 8.2016106,503.79838 Z" /><path
       d="m 96.279441,142.03134 0.180175,5.37091 20.585794,0.91562 -0.22366,-5.40804 z"
       style="stroke:none;stroke-width:6.44118"
       id="path28"
       inkscape:original-d="m 102.81055,156.39844 v 5.63281 h 21.30468 v -5.63281 z" /><path
       d="m 48.199624,100.03998 0.03719,36.19969 44.093783,1.83217 -1.179398,-36.75172 z"
       style="stroke:none;stroke-width:6.44118"
       id="path27"
       inkscape:original-d="M 52.501953,113.0625 51.9375,152.39844 H 98.810547 V 113.0625 Z" /><path
       d="m 85.204615,25.111089 1.548801,50.457138 -38.579471,-0.833022 0.02305,21.679037 46.596901,1.333963 1.358047,40.482425 24.39265,1.01355 0.39609,9.24694 53.96838,2.40042 -4.66492,-73.717556 -54.91332,-1.182332 -2.12328,-50.728716 z"
       style="stroke:none;stroke-width:6.44118"
       id="path26"
       inkscape:original-d="M 94.966797,27.84375 V 84.912109 H 52.90625 L 52.560547,109.0625 h 50.250003 v 43.33594 h 25.30468 v 9.63281 h 54.41993 V 84.699219 H 125.4668 V 27.84375 Z" /><path
       d="m 72.333368,221.57777 0.873281,36.83508 33.035121,2.6609 0.71456,32.6039 37.73909,3.43094 -2.52913,-51.52274 -46.497013,-3.47606 -0.608781,-18.97046 z"
       style="stroke:none;stroke-width:6.44118"
       id="path25"
       inkscape:original-d="m 75.591797,239.34961 v 36.26172 h 33.177733 l -0.44336,30.97265 h 36.61914 V 258 H 98.810547 v -18.65039 z" /><path
       d="m 14.092441,389.67936 48.062951,6.01685 -1.182778,-63.11802 42.807186,4.48771 -0.8077,-39.49788 -44.587946,-4.11405 -0.07588,-4.19902 44.577976,4.05268 -0.58063,-28.3956 -74.751782,-6.12014 -0.338674,-47.99164 3.768712,0.24949 0.37195,43.99213 37.91492,3.05395 -0.908421,-40.78212 26.568707,1.79132 -0.926954,-28.88521 -52.069194,-3.0307 -0.04884,-3.867 51.9917,2.96086 -1.191906,-37.14147 -0.233423,-7.27382 -13.088014,-0.5597 1.04799,38.65474 -27.644968,-1.52504 -0.06453,-3.8545 23.766971,1.28145 -0.891254,-34.71855 -31.049562,-1.32782 0.02381,-65.161243 -31.107677,-0.671688 z"
       style="stroke:none;stroke-width:6.44118"
       id="path24"
       inkscape:original-d="m 14.132813,404.16602 h 47.548828 v -57.06836 h 42.060549 l 0.52344,-36.51368 H 59.802734 v -4 h 44.521486 l 0.38672,-26.97265 H 28.533203 v -48.07031 h 4 v 44.07031 h 39.058594 v -40.26172 h 27.21875 V 206.35742 H 44.427734 v -4 h 54.382813 v -38.32617 -7.63281 H 85.056641 v 40.26172 H 56.058594 v -4 H 81.056641 V 156.39844 H 47.878906 L 48.904297,84.912109 H 14.132813 Z" /><path
       d="m 280.03991,327.38468 5.95325,61.55844 -33.38008,-3.82903 0.97018,11.3869 61.55048,7.27161 3.05235,28.71314 35.90333,4.54539 -10.91932,-82.5602 -49.41805,-5.06819 -2.10667,-20.90003 z"
       style="stroke:none;stroke-width:6.44118"
       id="path23"
       inkscape:original-d="m 267.86523,322.51367 v 52.58399 h -28.88086 v 9.58984 h 52.58204 v 23.35156 h 29.46875 l -0.96875,-67.48633 h -42.06055 v -18.03906 z" /><path
       d="m 321.59132,460.56927 2.43209,22.84776 26.76201,3.7882 -2.65904,-23.05788 z"
       style="stroke:none;stroke-width:6.44118"
       id="path22"
       inkscape:original-d="m 291.91602,430.39258 v 17.9082 h 21.60742 v -17.9082 z" /><path
       d="m 413.22172,561.75832 -2.09822,-14.34051 -54.37603,-8.51275 -5.36243,-46.50022 -27.24358,-3.89753 2.98025,28.03489 -4.96662,-0.75135 -5.85504,-55.93507 -32.55002,-4.38916 -0.46782,-4.98972 32.48963,4.33275 -1.88059,-17.96586 -45.97359,-5.88762 4.89944,54.98011 -4.77401,-0.68987 -5.23149,-59.77111 50.55967,6.40088 -2.49086,-23.79599 -56.8902,-6.80288 4.79312,56.25612 -59.59642,-8.13455 4.41032,67.72802 -4.63666,-0.72904 -4.29964,-67.61674 -42.72973,-5.83235 -55.107434,-7.52183 1.726624,56.86955 -4.32901,-0.66917 -1.776909,-61.45734 57.056859,7.70286 -4.45163,-92.03778 -79.968904,-8.49537 1.278561,63.4085 -52.257791,-6.6183 0.212319,103.55623 z"
       style="stroke:none;stroke-width:6.44118"
       id="path13"
       inkscape:original-d="m 355.73242,497.86719 -0.14844,-10.40625 h -42.06054 v -35.16016 h -21.95703 v 21.5293 h -4 v -43.4375 h -27.0625 v -4 h 27.0625 v -14.35352 h -38.70899 v 44.07031 h -4 v -48.07031 h 42.70899 V 388.6875 h -48.58204 v 46.13477 h -51.64453 v 54.38281 h -4 V 434.82227 H 145.01562 94.044922 v 47.55078 h -4 V 430.82227 H 143.01562 V 351.09766 H 65.681641 v 57.06836 H 14.132813 v 89.70117 z" /><path
       d="m 598.15359,524.37278 -10.10318,-1.43611 13.31589,69.04126 10.37387,1.66624 z"
       style="stroke:none;stroke-width:6.44118"
       id="path12"
       inkscape:original-d="m 497.86719,449.87109 h -7.04297 v 47.9961 h 7.04297 z" /><path
       d="M 595.50079,591.03581 570.22891,458.73614 451.86212,443.9367 l 8.2825,54.6511 51.67859,7.25456 0.92239,5.47498 -51.78534,-7.34761 7.95584,52.49571 -52.52783,-8.22341 2.12663,14.36648 z"
       style="stroke:none;stroke-width:6.44118"
       id="path11"
       inkscape:original-d="m 486.82422,497.86719 v -94.13086 h -87.96875 v 41.45117 h 38.32422 v 4 h -38.32422 v 38.27344 h -39.26953 l 0.14843,10.40625 z" /><path
       d="m 560.12388,330.47767 -55.79715,-5.00434 10.82078,61.26552 -5.28345,-0.56364 -20.27219,-115.96393 -107.32377,-7.98233 6.46794,47.47627 46.83545,4.12666 0.72407,4.73942 -46.92351,-4.19766 6.19475,45.47096 -47.6181,-4.88359 11.75195,87.74936 -40.56333,-5.19475 1.91588,17.99834 31.43375,4.19193 8.72927,74.62446 101.44302,15.72362 -15.99478,-106.76713 -67.39468,-8.42638 -8.10032,-63.70721 4.87727,0.51999 7.57015,58.75884 64.86643,8.01588 50.4224,6.23095 -11.65562,-69.55273 5.20233,0.54223 11.80003,69.67123 70.5125,8.71359 12.20265,63.26921 10.08125,1.41778 z"
       style="stroke:none;stroke-width:6.44118"
       id="path10"
       inkscape:original-d="M 497.86719,302.96289 H 455.30664 V 352.375 h -4 v -95.54688 h -87.96875 v 41.45118 h 38.32422 v 4 h -38.32422 v 38.27343 h -39.26953 l 1.02539,71.48633 h -33.17773 v 14.35352 h 25.60742 v 57.06836 h 77.33203 v -79.72461 h -52.96875 v -51.55078 h 4 v 47.55078 h 50.96875 38.32617 v -54.38281 h 4 v 54.38281 h 51.64258 v 46.13476 h 7.04297 z" /><path
       d="m 559.15686,325.54729 -19.38799,-98.85001 -19.79645,-1.21061 -9.73401,-51.52571 -58.94743,-2.75754 15.48045,92.74902 27.03837,1.97577 9.66114,54.6998 z"
       style="stroke:none;stroke-width:6.44118"
       id="path8"
       inkscape:original-d="m 497.86719,298.96289 v -83.26758 h -15.60938 v -46.13476 h -48.58398 v 83.26757 h 21.63281 v 46.13477 z" /><path
       d="m 498.81841,17.910705 -28.62358,-0.07868 8.39608,45.45835 -59.31923,-0.930536 8.84374,54.771645 -4.61981,-0.14539 -0.43344,-2.71412 -46.01735,-1.41225 5.69663,40.09985 46.55717,1.97298 4.95185,31.02646 -4.74392,-0.2432 -4.22231,-26.75089 -41.94944,-1.82868 4.99486,35.15995 -81.06368,-5.42807 4.67166,41.71376 -42.46768,-2.79783 3.99253,41.40168 -4.44834,-0.3484 -3.92039,-41.34158 -44.67602,-2.94332 7.47738,95.3473 63.28732,6.01029 -3.99035,-39.58776 -58.79405,-4.8893 -0.34773,-4.36324 63.20714,5.17229 4.51703,44.10411 41.04788,3.89825 0.54499,4.66303 -41.12178,-3.96152 1.66572,16.26403 92.09629,9.31745 -12.46435,-92.64983 -61.35699,-4.56349 -6.25467,-55.66165 4.45529,0.25781 5.85308,51.33477 59.05584,4.31537 45.79579,3.34643 -9.19207,-60.51201 4.73081,0.26361 9.31178,60.60284 31.87517,2.32921 -16.00095,-96.90181 63.59556,2.89712 -9.99037,-52.88274 4.82083,0.14807 19.91352,104.39119 14.71595,0.88131 z"
       style="stroke:none;stroke-width:6.44118"
       id="path7"
       inkscape:original-d="m 497.86719,18.191406 h -24.80078 v 46.134766 h -51.64258 v 54.382808 h -4 v -2.64453 h -40.48242 v 39.0586 h 40.26171 v 28.99804 h -4 v -24.99804 h -36.26171 v 33.17773 l -71.48633,-1.02539 v 39.26953 h -38.27344 v 38.32422 h -4 v -38.32422 h -41.45117 v 87.96875 h 56.27539 v -35.0293 h -53.01953 v -4 h 57.01953 v 39.0293 h 35.27148 v 4 h -35.27148 v 14.03906 h 77.33203 v -79.72461 h -52.96875 v -51.55078 h 4 v 47.55078 h 50.96875 38.32617 v -54.38281 h 4 v 54.38281 h 26.00977 v -87.26757 h 52.58398 v -49.41211 h 4 v 95.54687 h 11.60938 z" /><path
       d="m 367.4343,13.744167 0.10002,0.69529 41.80106,0.07667 0.61025,3.800261 -41.8713,-0.123005 5.69306,39.575998 99.42448,1.446533 -8.28641,-45.312887 z"
       style="stroke:none;stroke-width:6.44118"
       id="path6"
       inkscape:original-d="M 381.09766,14.132813 V 14.875 h 38.32421 v 4 h -38.32421 v 41.451172 h 87.96875 V 14.132813 Z" /><path
       d="m 13.437972,70.469374 69.499743,1.420462 -1.469821,-50.256497 52.563746,0.226678 0.17663,3.516796 -17.29087,-0.09376 2.04318,47.149711 54.96427,1.120009 2.56065,39.510027 58.73557,2.72372 -2.63611,-30.182585 4.08559,0.09683 2.69259,30.279001 5.8528,0.27068 -6.58868,-72.2698 49.20284,0.538062 0.41492,3.751144 -45.23604,-0.545709 3.40445,36.700058 41.92709,0.974449 3.08772,28.314756 -4.26369,-0.13532 -2.62235,-24.413438 -37.77454,-0.921822 2.97926,32.11657 -10.03682,-0.47796 1.53595,17.27222 60.72004,2.39126 4.83185,43.14409 76.2893,5.01295 -11.0888,-79.01212 50.40984,1.48762 -7.64768,-47.88839 -42.63295,-0.668779 -55.08929,-0.864182 5.61923,46.292461 -4.33249,-0.12762 -5.99138,-50.045366 57.04661,0.829975 -6.24916,-43.968406 -81.10312,-0.132188 2.37687,21.675449 -57.89277,-0.472533 -0.31597,-3.64479 53.68023,0.378164 -1.93819,-17.942956 -264.617734,-0.431293 z"
       style="stroke:none;stroke-width:6.44118"
       id="path5"
       inkscape:original-d="M 14.132813,80.912109 H 90.966797 V 23.84375 h 57.019533 v 4 H 129.4668 v 52.855469 h 57.06836 v 42.060551 l 57.85156,0.83007 V 92.193359 h 4 v 31.455081 l 5.63476,0.0801 V 47.550781 h 48.07032 v 4 h -44.07032 v 39.058594 h 40.26172 v 28.998045 h -4 V 94.609375 h -36.26172 v 33.177735 l -9.63476,-0.13867 v 17.56445 h 57.06836 v 42.06055 l 67.48633,0.96875 v -76.17774 h 44.48242 V 64.326172 h -38.32617 -50.96875 v 47.550778 h -4 V 60.326172 h 52.96875 V 14.132813 h -77.33204 v 23.537109 h -57.01953 v -4 h 53.01953 V 14.132813 H 14.132813 Z" /><path
       d="m 176.73327,116.88578 2.47051,38.11933 -38.30129,-1.75034 1.90271,37.80666 -4.00923,-0.23083 -1.84374,-37.75636 -15.84626,-0.72416 1.44339,33.69726 -3.95279,-0.22277 -1.39177,-33.65277 -20.616789,-0.94218 2.921265,87.08086 97.951094,7.19493 0.29378,4.23611 -51.49127,-3.84942 2.82918,55.93132 -42.04358,-3.87928 0.86611,39.55523 41.16086,4.31513 2.16283,43.37718 41.89118,4.95934 0.30112,4.67922 -41.96242,-5.02816 2.42644,48.66387 99.77998,13.47061 -5.63178,-67.34672 -62.96179,-7.22235 -0.28525,-4.61359 62.8527,7.12036 -3.47452,-41.54946 4.49115,0.45239 3.54558,41.6139 28.66533,3.2474 -5.39164,-56.69267 -51.65103,-4.97588 -4.37097,-56.86848 -57.60259,-4.54957 -0.23661,-4.22553 57.50803,4.46638 -3.12129,-40.60953 -4.01055,-52.17932 -48.61009,-2.39371 -0.23118,-3.94636 52.68299,2.52941 4.24875,54.17773 86.88368,5.61291 -8.89113,-80.57209 -60.66358,-2.46224 -1.85724,-21.26475 z"
       style="stroke:none;stroke-width:6.44118"
       id="path4"
       inkscape:original-d="m 186.53516,126.76172 v 39.26953 h -38.27344 v 38.32422 h -4 v -38.32422 h -16.14649 v 34.4375 h -4 v -34.4375 H 102.81055 V 254 h 95.54687 v 4 h -49.41211 v 52.58398 h -40.67773 l -0.52344,36.51368 h 39.27148 v 38.27343 h 38.32422 v 4 h -38.32422 v 41.45118 h 87.96875 v -55.72461 h -56.26171 v -4 h 56.26171 v -35.82227 h 4 v 35.82227 h 24.88086 v -48.58399 h -46.13476 v -51.64258 h -54.38281 v -4 h 54.38281 v -38.32617 -50.96875 h -47.55078 v -4 h 51.55078 v 52.96875 h 79.72461 V 149.21289 H 244.38672 V 127.5918 Z" /><path
       d="m 277.93822,13.598299 1.93819,17.942956 -53.68023,-0.378164 0.31597,3.64479 57.89277,0.472533 -2.37687,-21.675449 z"
       style="display:inline;fill:#1ed2af;stroke:none"
       id="path29"
       inkscape:original-d="m 295.76562,14.132813 v 19.537109 h -53.01953 v 4 h 57.01953 V 14.132813 Z" /><path
       d="m 367.4343,13.744167 -4.30313,-0.007 6.24916,43.968406 -57.04661,-0.829975 5.99138,50.045366 4.33249,0.12762 -5.61923,-46.292461 55.08929,0.864182 42.63295,0.668779 7.64768,47.88839 -50.40984,-1.48762 11.0888,79.01212 -76.2893,-5.01295 -4.83185,-43.14409 -60.72004,-2.39126 -1.53595,-17.27222 10.03682,0.47796 -2.97926,-32.11657 37.77454,0.921822 2.62235,24.413438 4.26369,0.13532 -3.08772,-28.314756 -41.92709,-0.974449 -3.40445,-36.700058 45.23604,0.545709 -0.41492,-3.751144 -49.20284,-0.538062 6.58868,72.26978 -5.8528,-0.27068 -2.69259,-30.278981 -4.08559,-0.09683 2.63611,30.182585 -58.73557,-2.72372 -2.56065,-39.510027 -54.96427,-1.120009 -2.04318,-47.149711 17.29087,0.09376 -0.17663,-3.516796 -52.563746,-0.226678 1.469821,50.256497 -69.499743,-1.420462 0.0072,3.515955 31.107677,0.671688 -0.02381,65.161243 31.049562,1.32782 0.891254,34.71855 -23.766971,-1.28145 0.06453,3.8545 27.644968,1.52504 -1.04799,-38.65474 13.088014,0.5597 0.233423,7.27382 1.191906,37.14147 -51.9917,-2.96086 0.04884,3.867 52.069194,3.0307 0.926954,28.88521 -26.568707,-1.79132 0.908421,40.78212 -37.91492,-3.05395 -0.37195,-43.99213 -3.768712,-0.24949 0.338674,47.99164 74.751782,6.12014 0.58063,28.3956 -44.577976,-4.05268 0.07588,4.19902 44.587946,4.11405 0.8077,39.49788 -42.807186,-4.48771 1.182778,63.11802 -48.062951,-6.01685 0.0091,4.45053 52.257791,6.6183 -1.278561,-63.4085 79.968904,8.49537 4.45163,92.03778 -57.056859,-7.70286 1.776909,61.45734 4.32901,0.66917 -1.726624,-56.86955 55.107434,7.52183 42.72973,5.83235 4.29964,67.61674 4.63666,0.72904 -4.41032,-67.72802 59.59642,8.13455 -4.79312,-56.25612 56.8902,6.80288 2.49086,23.79599 -50.55967,-6.40088 5.23149,59.77111 4.77401,0.68987 -4.89944,-54.98011 45.97359,5.88762 1.88059,17.96586 -32.48963,-4.33275 0.46782,4.98972 32.55002,4.38916 5.85504,55.93507 4.96662,0.75135 -2.98025,-28.03489 27.24358,3.89753 5.36243,46.50022 54.37603,8.51275 2.09822,14.34051 5.29318,0.85019 -2.12663,-14.36648 52.52783,8.22341 -7.95584,-52.49571 51.78534,7.34761 -0.92239,-5.47498 -51.67859,-7.25456 -8.2825,-54.6511 118.36679,14.79944 25.27188,132.29967 5.86551,0.94212 -13.31589,-69.04126 10.10318,1.43611 -1.10474,-5.63256 -10.08125,-1.41778 -12.20265,-63.26921 -70.5125,-8.71359 -11.80003,-69.67123 -5.20233,-0.54223 11.65562,69.55273 -50.4224,-6.23095 -64.86643,-8.01588 -7.57015,-58.75884 -4.87727,-0.51999 8.10032,63.70721 67.39468,8.42638 15.99478,106.76713 -101.44302,-15.72362 -8.72927,-74.62446 -31.43375,-4.19193 -1.91588,-17.99834 40.56333,5.19475 -11.75195,-87.74936 47.6181,4.88359 -6.19475,-45.47096 46.92351,4.19766 -0.72407,-4.73942 -46.83545,-4.12666 -6.46794,-47.47627 107.32377,7.98233 20.27219,115.96393 5.28345,0.56364 -10.82078,-61.26552 55.79715,5.00434 -0.96702,-4.93038 -55.68592,-4.91928 -9.66114,-54.6998 -27.03837,-1.97577 -15.48045,-92.74902 58.94743,2.75754 9.73401,51.52571 19.79645,1.21061 -0.89707,-4.57372 -14.71595,-0.88131 -19.91352,-104.39119 -4.82083,-0.14807 9.99037,52.88274 -63.59556,-2.89712 16.00095,96.90181 -31.87517,-2.32921 -9.31178,-60.60284 -4.73081,-0.26361 9.19207,60.51201 -45.79579,-3.34643 -59.05584,-4.31537 -5.85308,-51.33477 -4.45529,-0.25781 6.25467,55.66165 61.35699,4.56349 12.46435,92.64983 -92.09629,-9.31745 -1.66572,-16.26403 41.12178,3.96152 -0.54499,-4.66303 -41.04788,-3.89825 -4.51703,-44.10411 -63.20714,-5.17229 0.34773,4.36324 58.79405,4.8893 3.99035,39.58776 -63.28732,-6.01029 -7.47738,-95.3473 44.67602,2.94332 3.92039,41.34158 4.44834,0.3484 -3.99253,-41.40168 42.46768,2.79783 -4.67166,-41.71376 81.06368,5.42807 -4.99486,-35.15995 41.94944,1.82868 4.22231,26.75089 4.74392,0.2432 -4.95185,-31.02646 -46.55717,-1.97298 -5.69663,-40.09985 46.01735,1.41225 0.43344,2.71412 4.61981,0.14539 -8.84374,-54.771645 59.31923,0.930536 -8.39608,-45.45835 28.62358,0.07868 -0.76427,-3.896674 -28.57317,-0.04703 -0.0104,-0.05653 -4.56507,-0.0074 8.28641,45.312884 -99.42448,-1.446533 -5.69306,-39.575998 41.8713,0.123005 -0.61025,-3.800261 -41.80106,-0.07667 z m -282.229685,11.366922 28.002925,0.151847 2.12328,50.728716 54.91332,1.182332 4.66492,73.717556 -53.96838,-2.40042 -0.39609,-9.24694 -24.39265,-1.01355 -1.358047,-40.482425 -46.596901,-1.333963 -0.02305,-21.679037 38.579471,0.833022 z m -37.004991,74.928891 42.951577,1.28014 1.179398,36.75172 -44.093783,-1.83217 z m 128.533646,16.8458 58.82828,2.79901 1.85724,21.26475 60.66358,2.46224 8.89113,80.57209 -86.88368,-5.61291 -4.24875,-54.17773 -52.68299,-2.52941 0.23118,3.94636 48.61009,2.39371 4.01055,52.17932 3.12129,40.60953 -57.50803,-4.46638 0.23661,4.22553 57.60259,4.54957 4.37097,56.86848 51.65103,4.97588 5.39164,56.69267 -28.66533,-3.2474 -3.54558,-41.6139 -4.49115,-0.45239 3.47452,41.54946 -62.8527,-7.12036 0.28525,4.61359 62.96179,7.22235 5.63178,67.34672 -99.77998,-13.47061 -2.42644,-48.66387 41.96242,5.02816 -0.30112,-4.67922 -41.89118,-4.95934 -2.16283,-43.37718 -41.16086,-4.31513 -0.86611,-39.55523 42.04358,3.87928 -2.82918,-55.93132 51.49127,3.84942 -0.29378,-4.23611 -97.951094,-7.19493 -2.921265,-87.08086 20.616789,0.94218 1.39177,33.65277 3.95279,0.22277 -1.44339,-33.69726 15.84626,0.72416 1.84374,37.75636 4.00923,0.23083 -1.90271,-37.80666 38.30129,1.75034 z m -80.453829,25.14556 20.542309,0.87849 0.22366,5.40804 -20.585794,-0.91562 z m -23.946073,79.54643 22.727128,1.56156 0.608781,18.97046 46.497013,3.47606 2.52913,51.52274 -37.73909,-3.43094 -0.71456,-32.6039 -33.035121,-2.6609 z m 207.706542,105.80691 11.60547,1.11803 2.10667,20.90003 49.41805,5.06819 10.91932,82.5602 -35.90333,-4.54539 -3.05235,-28.71314 -61.55048,-7.27161 -0.97018,-11.3869 33.38008,3.82903 z m 41.55141,133.18459 26.53506,3.57808 2.65904,23.05788 -26.76201,-3.7882 z"
       style="display:inline;fill:#1ed2af;stroke:none"
       id="path3"
       inkscape:original-d="m 381.09766,14.132813 h -4 v 46.193359 h -52.96875 v 51.550778 h 4 V 64.326172 h 50.96875 38.32617 v 47.738278 h -44.48242 v 76.17774 l -67.48633,-0.96875 v -42.06055 h -57.06836 v -17.56445 l 9.63476,0.13867 V 94.609375 h 36.26172 v 24.998045 h 4 V 90.609375 H 258.02148 V 51.550781 h 44.07032 v -4 h -48.07032 v 76.177739 l -5.63476,-0.0801 V 92.193359 h -4 v 31.396481 l -57.85156,-0.83007 V 80.699219 H 129.4668 V 27.84375 h 18.51953 v -4 H 90.966797 V 80.912109 H 14.132813 v 4 h 34.771484 l -1.025391,71.486331 h 33.177735 v 36.26172 H 56.058594 v 4 h 28.998047 v -40.26172 h 13.753906 v 7.63281 38.32617 H 44.427734 v 4 h 54.382813 v 28.99219 h -27.21875 v 40.26172 H 32.533203 v -44.07031 h -4 v 48.07031 h 76.177737 l -0.38672,26.97265 H 59.802734 v 4 h 44.462896 l -0.52344,36.51368 H 61.681641 v 57.06836 H 14.132813 v 4 h 51.548828 v -57.06836 h 77.333979 v 79.72461 H 90.044922 v 51.55078 h 4 v -47.55078 h 50.970698 38.32422 v 54.38281 h 4 v -54.38281 h 51.64453 V 388.6875 h 48.58204 v 19.35156 h -42.70899 v 48.07031 h 4 v -44.07031 h 38.70899 v 14.35352 h -27.0625 v 4 h 27.0625 v 43.4375 h 4 v -21.5293 h 21.95703 v 35.16016 h 42.06054 l 0.14844,10.40625 h 4.00195 l -0.14843,-10.40625 h 39.26953 V 449.1875 h 38.32422 v -4 h -38.32422 v -41.45117 h 87.96875 v 94.13086 h 4 v -47.9961 h 7.04297 v -4 h -7.04297 v -46.13476 h -51.64258 v -54.38281 h -4 v 54.38281 h -38.32617 -50.96875 v -47.55078 h -4 v 51.55078 h 52.96875 v 79.72461 h -77.33203 v -57.06836 h -25.60742 v -14.35352 h 33.17773 l -1.02539,-71.48633 h 39.26953 V 302.2793 h 38.32422 v -4 h -38.32422 v -41.45118 h 87.96875 V 352.375 h 4 v -49.41211 h 42.56055 v -4 h -42.56055 v -46.13477 h -21.63281 v -83.26757 h 48.58398 v 46.13476 h 15.60938 v -4 h -11.60938 v -95.54687 h -4 v 49.41211 h -52.58398 v 87.26757 h -26.00977 v -54.38281 h -4 v 54.38281 h -38.32617 -50.96875 v -47.55078 h -4 v 51.55078 h 52.96875 v 79.72461 h -77.33203 v -14.03906 h 35.27148 v -4 h -35.27148 v -39.0293 h -57.01953 v 4 h 53.01953 v 35.0293 h -56.27539 v -87.96875 h 41.45117 v 38.32422 h 4 v -38.32422 h 38.27344 v -39.26953 l 71.48633,1.02539 v -33.17773 h 36.26171 v 24.99804 h 4 v -28.99804 h -40.26171 v -39.0586 h 40.48242 v 2.64453 h 4 V 64.326172 h 51.64258 V 18.191406 h 24.80078 v -4 h -24.80078 v -0.05859 h -4 V 60.326172 H 381.09766 V 18.875 h 38.32421 v -4 H 381.09766 Z M 94.966797,27.84375 H 125.4668 v 56.855469 h 57.06836 v 77.332031 h -54.41993 v -9.63281 H 102.81055 V 109.0625 H 52.560547 L 52.90625,84.912109 H 94.966797 Z M 52.501953,113.0625 h 46.308594 v 39.33594 H 51.9375 Z m 134.033207,13.69922 57.85156,0.83008 v 21.62109 h 57.06836 v 77.33203 h -79.72461 v -52.96875 h -51.55078 v 4 h 47.55078 v 50.96875 38.32617 h -54.38281 v 4 h 54.38281 v 51.64258 h 46.13476 v 48.58399 h -24.88086 v -35.82227 h -4 v 35.82227 h -56.26171 v 4 h 56.26171 v 55.72461 h -87.96875 v -41.45118 h 38.32422 v -4 h -38.32422 v -38.27343 h -39.27148 l 0.52344,-36.51368 h 40.67773 V 258 h 49.41211 v -4 h -95.54687 v -87.96875 h 21.30468 v 34.4375 h 4 v -34.4375 h 16.14649 v 38.32422 h 4 v -38.32422 h 38.27344 z m -83.72461,29.63672 h 21.30468 v 5.63281 h -21.30468 z m -27.218753,82.95117 h 23.21875 V 258 h 46.134763 v 48.58398 h -36.61914 l 0.44336,-30.97265 H 75.591797 Z m 192.273433,83.16406 h 10.14063 v 18.03906 h 42.06055 l 0.96875,67.48633 H 291.56641 V 384.6875 h -52.58204 v -9.58984 h 28.88086 z m 24.05079,107.87891 h 21.60742 v 17.9082 h -21.60742 z" /><path
       style="display:inline;fill:#1ed2af;fill-opacity:1;stroke:#64648c;stroke-width:4;stroke-opacity:1"
       id="rect2"
       width="115.28536"
       height="115.28536"
       x="198.35733"
       y="198.35733"
       inkscape:label="cpu"
       sodipodi:type="rect"
       d="m 193.46609,187.91127 123.73137,6.89129 14.6965,127.38607 -129.9566,-12.12596 z" /><g
       id="g23"
       transform="matrix(1.6117567,-0.72570209,0.72570209,1.6117567,86.758062,281.96165)"
       inkscape:label="lumi"
       style="display:inline;fill:#00003c;fill-opacity:1">
		<g
   id="g21"
   style="fill:#00003c;fill-opacity:1">
			
			<g
   id="g20"
   style="fill:#00003c;fill-opacity:1">
				<path
   class="st2"
   d="m 89.095174,46.088783 c -0.430598,-0.263028 -0.937194,-0.05754 -1.117623,0.404742 l -1.420064,4.186324 c -0.181482,0.465147 0.06161,1.076512 0.493341,1.342256 0.431979,0.265894 0.940885,0.05916 1.122055,-0.406745 l 1.416962,-4.193169 c 0.180117,-0.463028 -0.06383,-1.070231 -0.494671,-1.333408 z"
   id="path14"
   style="fill:#00003c;fill-opacity:1"
   inkscape:original-d="m 85.2,44.5 c -0.4,-0.2 -0.9,0 -1.1,0.4 l -1.6,3.6 c -0.2,0.4 0,0.9 0.4,1.1 0.4,0.2 0.9,0 1.1,-0.4 l 1.6,-3.6 c 0.2,-0.4 0,-0.9 -0.4,-1.1 z" />
				<path
   class="st2"
   d="m 94.765192,47.029609 c -0.239148,-0.488913 -0.77628,-0.758848 -1.178917,-0.546635 -0.402698,0.212244 -0.57445,0.794471 -0.335862,1.283804 l 2.058823,4.535474 c 0.120237,0.246666 0.232855,0.373339 0.45048,0.506647 0.217686,0.133347 0.532721,0.153182 0.735015,0.04626 0.40454,-0.213824 0.575559,-0.800937 0.33447,-1.293946 z"
   id="path15"
   style="fill:#00003c;fill-opacity:1"
   inkscape:original-d="m 90.6,45 c -0.2,-0.4 -0.7,-0.6 -1.1,-0.4 -0.4,0.2 -0.6,0.7 -0.4,1.1 l 1.7,3.7 c 0.1,0.2 0.2,0.3 0.4,0.4 0.2,0.1 0.5,0.1 0.7,0 0.4,-0.2 0.6,-0.7 0.4,-1.1 z" />
				<path
   class="st2"
   d="m 106.94434,40.914792 -3.44757,-3.141333 c -0.44148,-0.377412 -0.95385,-0.29061 -1.24161,0.04368 -0.27969,0.45209 -0.13463,1.046972 0.20265,1.41906 l 3.44747,3.148517 c 0.10465,0.0063 0.11321,0.124822 0.21788,0.13113 0.32263,0.13748 0.74146,0.162734 1.02963,-0.173997 0.27937,-0.455065 0.23596,-1.047063 -0.20845,-1.427054 z"
   id="path16"
   style="fill:#00003c;fill-opacity:1"
   inkscape:original-d="m 102.7,39.2 -3.1,-2.5 c -0.4,-0.3 -0.9,-0.2 -1.2,0.1 -0.3,0.4 -0.2,0.9 0.1,1.2 l 3.1,2.5 c 0.1,0 0.1,0.1 0.2,0.1 0.3,0.1 0.7,0.1 1,-0.2 0.3,-0.4 0.3,-0.9 -0.1,-1.2 z" />
				<path
   class="st2"
   d="m 103.08333,46.710124 -3.06225,-3.618653 c -0.337243,-0.374296 -0.867048,-0.524211 -1.252793,-0.07579 -0.289438,0.336465 -0.354435,0.922888 0.09498,1.422892 l 3.060806,3.625861 c 0.11314,0.125902 0.2263,0.251832 0.33124,0.258311 0.32312,0.13893 0.63804,0.158382 0.92798,-0.180639 0.28983,-0.338891 0.23968,-1.054947 -0.1,-1.431981 z"
   id="path17"
   style="fill:#00003c;fill-opacity:1"
   inkscape:original-d="m 98.6,44.3 -2.7,-2.9 c -0.3,-0.3 -0.8,-0.4 -1.2,0 -0.3,0.3 -0.4,0.8 0,1.2 l 2.7,2.9 c 0.1,0.1 0.2,0.2 0.3,0.2 0.3,0.1 0.6,0.1 0.9,-0.2 0.3,-0.3 0.3,-0.9 0,-1.2 z" />
				<path
   class="st2"
   d="m 84.590264,41.570397 c 0.407792,-0.09285 0.939322,0.174187 1.069836,0.652271 0.130614,0.478447 -0.04329,1.056526 -0.451686,1.149487 l -3.960754,1.290689 c -0.201047,0.105646 -0.408403,0.09296 -0.622011,-0.03804 -0.21355,-0.130964 -0.433272,-0.380128 -0.549317,-0.622858 -0.128414,-0.478858 0.04756,-1.056483 0.455342,-1.149325 z"
   id="path18"
   style="fill:#00003c;fill-opacity:1"
   inkscape:original-d="m 81.1,40.9 c 0.4,-0.1 0.9,0.1 1,0.5 0.1,0.4 -0.1,0.9 -0.5,1 l -3.9,1.3 c -0.2,0.1 -0.4,0.1 -0.6,0 -0.2,-0.1 -0.4,-0.3 -0.5,-0.5 -0.1,-0.4 0.1,-0.9 0.5,-1 z" />
				<path
   class="st2"
   d="m 79.756508,26.312819 4.028756,0.917743 c 0.51889,0.144481 0.852604,0.623621 0.776243,1.079737 -0.06987,0.572032 -0.460776,0.895473 -0.877719,0.756288 l -4.034064,-0.921753 c -0.102339,-0.0058 -0.102339,-0.0058 -0.210764,-0.127064 -0.313007,-0.132868 -0.541758,-0.605674 -0.565907,-1.066479 -0.02413,-0.460481 0.468598,-0.77669 0.883455,-0.638472 z"
   id="path19"
   style="fill:#00003c;fill-opacity:1"
   inkscape:original-d="m 77.2,28 3.9,0.6 c 0.5,0.1 0.8,0.5 0.7,0.9 -0.1,0.5 -0.5,0.8 -0.9,0.7 L 77,29.6 c -0.1,0 -0.1,0 -0.2,-0.1 -0.3,-0.1 -0.5,-0.5 -0.5,-0.9 0,-0.4 0.5,-0.7 0.9,-0.6 z" />
				<path
   class="st2"
   d="m 79.128226,33.775128 4.011207,0.234746 c 0.514828,0.03013 0.849889,0.514463 0.876009,0.981046 0.03268,0.583693 -0.360233,0.909826 -0.772678,0.885501 L 79.225785,35.639506 C 79.12289,35.633438 79.02,35.627369 78.911037,35.504634 78.596391,35.369805 78.372619,35.007921 78.34852,34.541855 c -0.01806,-0.349333 0.368745,-0.790778 0.779706,-0.766727 z"
   id="path20"
   style="fill:#00003c;fill-opacity:1"
   inkscape:original-d="m 76.2,34.5 h 3.9 c 0.5,0 0.8,0.4 0.8,0.8 0,0.5 -0.4,0.8 -0.8,0.8 h -3.9 c -0.1,0 -0.2,0 -0.3,-0.1 -0.3,-0.1 -0.5,-0.4 -0.5,-0.8 0,-0.3 0.4,-0.7 0.8,-0.7 z" />
			</g>
		</g>
		<g
   id="g22">
			<path
   class="st0"
   d="m 125.25857,40.003431 -8.01322,-10.98647 c 2.06447,-0.114521 3.75842,-0.945273 4.87072,-2.501845 0.27278,-0.446701 0.11903,-1.03237 -0.22288,-1.397448 L 107.50965,12.35943 c 0,0 -0.009,-0.113282 0.0939,-0.107868 0.65649,-2.105854 0.38358,-4.3657538 -0.77997,-6.3282743 v 0 l 3.63047,-2.9375352 c 0.38106,-0.3145851 0.3374,-0.8728416 0.0991,-1.3293225 -0.33981,-0.4612178 -0.84805,-0.4867058 -1.23737,-0.2842461 l -3.62686,2.9308407 c -0.65947,-0.701798 -1.3099,-1.2910573 -2.1463,-1.6668694 -0.83564,-0.3754683 -1.66257,-0.6392237 -2.47315,-0.6801152 l -0.8727,-5.2372276 c -0.13185,-0.4465467 -0.558216,-0.7972871 -1.062014,-0.8219691 -0.503673,-0.024676 -0.767841,0.5120004 -0.636647,0.9584876 l 0.86537,5.2365055 c -1.783624,0.4646579 -3.414087,1.7148421 -4.083611,3.7961065 l 0.0074,0.1119053 -16.896965,-3.5306598 c -0.507337,-0.1363999 -0.891003,0.1759249 -0.861966,0.7308239 -0.196701,1.9860672 0.51177,4.0251405 1.815862,5.8787644 L 68.133787,9.7178168 c -0.200797,-0.010595 -0.396593,0.090738 -0.487037,0.3093422 -0.09047,0.218669 -0.180966,0.437403 -0.171044,0.661527 0.461432,3.612842 2.420931,6.875946 5.463891,9.308649 0.737714,0.608647 1.572279,1.109623 2.402063,1.497009 2.505803,1.393127 5.384484,2.010832 8.224144,1.826877 l 4.369895,-0.213178 -0.245768,1.015923 0.0068,0.114884 c -0.506171,1.806117 -0.80832,3.628467 -1.117995,5.339777 -0.296998,1.947716 -0.395451,3.79645 -0.294536,5.545584 0.160092,4.563341 1.374739,7.690143 3.516399,8.880926 2.035775,1.06888 4.582396,0.278941 7.205534,-2.509604 l 0.09642,-0.111864 0.09641,-0.11185 c 0.104162,0.0063 0.0964,-0.111836 0.200558,-0.105579 2.117609,-2.456866 4.052355,-5.968027 5.626315,-10.064102 l 2.98516,4.129481 c 1.97044,2.807108 4.42061,4.949778 7.03573,6.402368 0.86737,0.406134 1.73557,0.812652 2.59514,1.100747 3.65566,1.167327 7.18134,0.66909 9.62463,-1.432377 0.28541,-0.337358 0.33917,-0.924409 -0.008,-1.298926 z M 101.96141,10.265337 c 0,0 -0.008,-0.112793 0.094,-0.107446 -0.008,-0.112776 0.0859,-0.2201924 0.0779,-0.3329329 l 18.05984,16.0050229 c -0.95319,0.985627 -2.47544,1.362112 -4.14844,1.152283 l -0.10392,-0.0059 c -0.41564,-0.02342 -0.73661,-0.156977 -1.15206,-0.180375 l -1.27327,-0.417863 c -1.38451,-0.538962 -2.79375,-1.423946 -4.12319,-2.647521 l -2.86405,-2.564646 c -2.73884,-2.431969 -4.50464,-5.707381 -4.69708,-8.430511 -0.04,-0.565884 -0.072,-1.018236 -0.002,-1.464894 v 0 c -0.126,-0.3442 -0.0479,-0.677485 0.13208,-1.005261 -0.094,0.107459 0.008,0.112812 0,0 z M 79.199701,4.5050055 100.45548,9.0638682 c 0.008,0.1125707 -0.0861,0.2198405 -0.0783,0.3324471 v 0 l 0.008,0.1126262 c -0.0783,0.3326598 -0.26639,0.5473965 -0.35262,0.7675355 -0.172545,0.440475 -0.454927,0.762949 -0.839361,1.080163 -1.712453,1.711633 -4.711277,2.454262 -8.005342,1.714725 L 87.800272,12.328252 C 86.265129,12.021837 84.813507,11.38324 83.553764,10.531442 83.136467,10.285308 82.820491,10.044631 82.498396,9.6918079 82.182761,9.451418 81.861066,9.0989984 81.646722,8.8641827 c 0,0 -0.100949,-0.00529 -0.107136,-0.1173686 C 80.060327,7.4417455 79.277293,5.9533919 79.199701,4.5050055 Z M 89.550698,21.142707 c -0.299817,0.09744 -0.606545,0.08047 -1.008577,0.172254 -0.102221,-0.0057 -0.306648,-0.01697 -0.402022,0.09178 l -4.772712,0.191509 C 79.92034,21.748745 76.521019,20.763429 73.881635,18.575012 71.46658,16.633507 69.841839,14.179226 69.214724,11.452414 l 11.627774,-0.727903 c 0.852092,0.830161 1.901785,1.559725 3.048051,2.18297 1.147889,0.624128 2.284162,1.022959 3.61818,1.319958 l 3.391781,0.74653 c 2.882803,0.607369 5.506941,0.296031 7.567637,-0.837128 -0.339333,0.999368 -0.891261,1.875371 -1.451394,2.638513 v 0 c -1.034515,1.305906 -2.385117,2.482815 -4.066237,3.301292 -0.299741,0.09742 -0.592287,0.309157 -0.994387,0.400952 l -0.102313,-0.0056 c -0.402078,0.09179 -0.797058,0.297937 -1.199152,0.389729 l -0.102283,-0.0056 c -0.395062,0.206177 -0.69489,0.303623 -1.001683,0.286662 z m 6.596175,18.304096 -3.108694,-1.707492 c -0.429378,-0.259285 -0.933046,-0.05532 -1.111302,0.401926 -0.178365,0.457527 0.06539,1.057683 0.495094,1.317747 l 2.360123,1.314984 c -1.768118,1.540273 -3.284768,2.155209 -4.464415,1.495061 -1.392563,-0.789665 -2.264481,-3.305132 -2.374991,-6.930957 -0.07568,-1.283991 0.04806,-2.669883 0.171557,-4.052981 l 4.571137,2.46921 c 0.428217,0.257535 0.930561,0.05427 1.107791,-0.400344 0.177123,-0.454342 -0.06656,-1.048828 -0.49446,-1.305593 l -4.883076,-2.59521 c 0.136588,-1.14546 0.375633,-2.28319 0.716906,-3.413296 v 0 l 7.963369,4.258052 c 0.428717,0.25614 0.929989,0.0534 1.105585,-0.399406 0.175489,-0.452528 -0.06995,-1.044312 -0.498347,-1.299687 l -8.059693,-4.250823 c 0.08154,-0.339047 0.25851,-0.787042 0.339948,-1.125719 0.812578,-0.06906 1.515701,-0.258622 2.211623,-0.562916 0.300279,-0.09762 0.498047,-0.200935 0.798305,-0.298548 l 7.108887,3.723151 c 0.12694,0.352426 0.246,0.589433 0.37308,0.942203 0.36565,0.827835 0.83518,1.662706 1.29729,2.382643 -1.58298,3.968435 -3.517407,7.469902 -5.625717,10.037995 z M 115.81544,40.974 c -3.21163,-1.016221 -6.31151,-3.431536 -8.73651,-6.730096 l -3.21962,-4.48439 c -0.11185,-0.122145 -0.22368,-0.244262 -0.34373,-0.482504 -0.23174,-0.360131 -0.45512,-0.60402 -0.58317,-0.957886 -0.23136,-0.35953 -0.46257,-0.718833 -0.59033,-1.072063 l -0.11144,-0.121594 c -0.239,-0.474441 -0.4778,-0.948499 -0.6052,-1.30089 l -0.008,-0.115485 c -0.12731,-0.352123 -0.25454,-0.704042 -0.38972,-1.171028 -0.63463,-1.755211 -0.96715,-3.602996 -0.98305,-5.314296 l -0.0395,-0.571318 c 0.0236,-1.135575 0.14957,-2.263695 0.48785,-3.26532 0.78972,2.538736 2.51621,5.2535 4.92263,7.330818 l 2.86457,2.571056 c 1.10491,0.983399 2.19416,1.736811 3.37993,2.381212 1.18747,0.645329 2.35822,1.058953 3.5116,1.240276 l 8.23219,11.348422 c -2.18608,1.404178 -4.89327,1.59649 -7.78846,0.715086 z"
   id="path21"
   inkscape:original-d="m 120.3,37.5 -6.8,-9 c 2,-0.2 3.7,-1 4.9,-2.4 0.3,-0.4 0.2,-0.9 -0.1,-1.2 l -13,-10.5 c 0,0 0,-0.1 0.1,-0.1 0.8,-1.9 0.7,-3.9 -0.3,-5.6 0,0 0,0 0,0 l 3.8,-2.8 c 0.4,-0.3 0.4,-0.8 0.2,-1.2 -0.3,-0.4 -0.8,-0.4 -1.2,-0.2 l -3.8,2.8 c -0.6,-0.6 -1.2,-1.1 -2,-1.4 -0.8,-0.3 -1.6,-0.5 -2.4,-0.5 L 99.2,0.7 C 99.1,0.3 98.7,0 98.2,0 97.7,0 97.4,0.5 97.5,0.9 L 98,5.6 c -1.8,0.5 -3.5,1.7 -4.3,3.6 0,0 0,0.1 0,0.1 L 77.1,6.9 c -0.5,-0.1 -0.9,0.2 -0.9,0.7 -0.3,1.8 0.3,3.6 1.5,5.2 l -11.2,1.1 c -0.2,0 -0.4,0.1 -0.5,0.3 -0.1,0.2 -0.2,0.4 -0.2,0.6 0.3,3.2 2.1,6 5,8 0.7,0.5 1.5,0.9 2.3,1.2 2.4,1.1 5.2,1.5 8,1.2 l 4.3,-0.4 c -0.1,0.3 -0.2,0.6 -0.3,0.9 0,0 0,0.1 0,0.1 -0.6,1.6 -1,3.2 -1.4,4.7 -0.4,1.7 -0.6,3.3 -0.6,4.8 -0.1,3.9 0.9,6.5 2.9,7.4 1.9,0.8 4.4,0 7.1,-2.5 0,0 0.1,-0.1 0.1,-0.1 0,0 0,0 0.1,-0.1 0.1,0 0.1,-0.1 0.2,-0.1 2.2,-2.2 4.3,-5.3 6.1,-8.9 l 2.6,3.4 c 1.7,2.3 3.9,4 6.3,5.1 0.8,0.3 1.6,0.6 2.4,0.8 3.4,0.8 6.8,0.2 9.3,-1.7 0.3,-0.3 0.4,-0.8 0.1,-1.1 z M 100,12.8 c 0,0 0,-0.1 0.1,-0.1 0,-0.1 0.1,-0.2 0.1,-0.3 l 16.4,13.2 c -1,0.9 -2.5,1.3 -4.1,1.2 0,0 -0.1,0 -0.1,0 -0.4,0 -0.7,-0.1 -1.1,-0.1 -0.4,-0.1 -0.8,-0.2 -1.2,-0.3 -1.3,-0.4 -2.6,-1.1 -3.8,-2.1 l -2.6,-2.1 c -2.5,-2 -4,-4.8 -4,-7.2 0,-0.5 0,-0.9 0.1,-1.3 v 0 c -0.1,-0.3 0,-0.6 0.2,-0.9 -0.1,0.1 0,0.1 0,0 z M 77.8,8.7 98.6,11.8 c 0,0.1 -0.1,0.2 -0.1,0.3 v 0 c 0,0 0,0.1 0,0.1 -0.1,0.3 -0.3,0.5 -0.4,0.7 -0.2,0.4 -0.5,0.7 -0.9,1 -1.8,1.6 -4.8,2.4 -8,1.9 L 85.9,15.3 C 84.4,15.1 83,14.6 81.8,13.9 81.4,13.7 81.1,13.5 80.8,13.2 80.5,13 80.2,12.7 80,12.5 c 0,0 -0.1,0 -0.1,-0.1 C 78.5,11.3 77.8,10 77.8,8.7 Z M 87.1,23 c -0.3,0.1 -0.6,0.1 -1,0.2 -0.1,0 -0.3,0 -0.4,0.1 L 81,23.7 C 77.6,24 74.3,23.3 71.8,21.5 69.5,19.9 68,17.8 67.5,15.4 l 11.6,-1.2 c 0.8,0.7 1.8,1.3 2.9,1.8 1.1,0.5 2.2,0.8 3.5,1 l 3.3,0.5 c 2.8,0.4 5.4,0 7.5,-1.1 -0.4,0.9 -1,1.7 -1.6,2.4 v 0 c -1.1,1.2 -2.5,2.3 -4.2,3.1 -0.3,0.1 -0.6,0.3 -1,0.4 0,0 -0.1,0 -0.1,0 -0.4,0.1 -0.8,0.3 -1.2,0.4 h -0.1 c -0.4,0.2 -0.7,0.3 -1,0.3 z m 5.3,15.5 -2.9,-1.3 c -0.4,-0.2 -0.9,0 -1.1,0.4 -0.2,0.4 0,0.9 0.4,1.1 0,0 2.2,1 2.2,1 -1.8,1.4 -3.3,2 -4.4,1.5 -1.3,-0.6 -2,-2.7 -1.9,-5.8 0,-1.1 0.2,-2.3 0.4,-3.5 l 4.3,1.9 c 0.4,0.2 0.9,0 1.1,-0.4 0.2,-0.4 0,-0.9 -0.4,-1.1 l -4.6,-2 c 0.2,-1 0.5,-2 0.9,-3 v 0 l 7.5,3.3 c 0.4,0.2 0.9,0 1.1,-0.4 0.2,-0.4 0,-0.9 -0.4,-1.1 L 87,25.8 c 0.1,-0.3 0.3,-0.7 0.4,-1 0.8,-0.1 1.5,-0.3 2.2,-0.6 0.3,-0.1 0.5,-0.2 0.8,-0.3 l 6.7,2.9 c 0.1,0.3 0.2,0.5 0.3,0.8 0.3,0.7 0.7,1.4 1.1,2 -1.8,3.5 -3.9,6.6 -6.1,8.9 z m 18.8,0.3 c -3,-0.7 -5.8,-2.6 -7.9,-5.3 l -2.8,-3.7 c -0.1,-0.1 -0.2,-0.2 -0.3,-0.4 C 100,29.1 99.8,28.9 99.7,28.6 99.5,28.3 99.3,28 99.2,27.7 l -0.1,-0.1 c -0.2,-0.4 -0.4,-0.8 -0.5,-1.1 0,0 0,-0.1 0,-0.1 -0.1,-0.3 -0.2,-0.6 -0.3,-1 -0.5,-1.5 -0.7,-3.1 -0.6,-4.6 0,-0.2 0,-0.3 0,-0.5 0.1,-1 0.3,-2 0.7,-2.9 0.6,2.2 2.1,4.5 4.3,6.2 l 2.6,2.1 c 1,0.8 2,1.4 3.1,1.9 1.1,0.5 2.2,0.8 3.3,0.9 l 7,9.3 c -2.2,1.3 -4.8,1.6 -7.5,1 z" />
		</g>
	</g></g><style
     type="text/css"
     id="style1-35">
	.st0{fill:#00003C;}
	.st1{fill:#64648C;}
	.st2{fill:#1ED2AF;}
</style></svg>
